%TF.GenerationSoftware,KiCad,Pcbnew,(5.1.9)-1*%
%TF.CreationDate,2021-07-15T08:49:35+03:00*%
%TF.ProjectId,SmartAirExchanger,536d6172-7441-4697-9245-786368616e67,rev?*%
%TF.SameCoordinates,PX6d01460PY68290a0*%
%TF.FileFunction,Legend,Top*%
%TF.FilePolarity,Positive*%
%FSLAX46Y46*%
G04 Gerber Fmt 4.6, Leading zero omitted, Abs format (unit mm)*
G04 Created by KiCad (PCBNEW (5.1.9)-1) date 2021-07-15 08:49:35*
%MOMM*%
%LPD*%
G01*
G04 APERTURE LIST*
%ADD10C,0.120000*%
%ADD11C,0.150000*%
%ADD12C,1.524000*%
%ADD13C,1.600000*%
%ADD14R,1.600000X1.600000*%
%ADD15R,3.500000X3.500000*%
%ADD16O,1.700000X1.700000*%
%ADD17R,1.700000X1.700000*%
%ADD18R,1.100000X1.800000*%
%ADD19O,1.600000X1.600000*%
%ADD20O,1.200000X2.000000*%
%ADD21R,1.524000X1.524000*%
%ADD22R,1.800000X1.800000*%
%ADD23C,1.800000*%
G04 APERTURE END LIST*
D10*
X3048000Y60706000D02*
X2540000Y60706000D01*
X2794000Y60960000D02*
X2794000Y60452000D01*
X2794000Y64516000D02*
X2794000Y64008000D01*
X2286000Y63246000D02*
X2286000Y64262000D01*
X2286000Y61870790D02*
X2286000Y60960000D01*
X2645210Y62230000D02*
G75*
G03*
X2645210Y62230000I-359210J0D01*
G01*
X1270000Y62230000D02*
G75*
G02*
X3302000Y62230000I1016000J0D01*
G01*
D11*
X50070000Y67523334D02*
X50546190Y67523334D01*
X49974761Y67237620D02*
X50308095Y68237620D01*
X50641428Y67237620D01*
X51117619Y67237620D02*
X51022380Y67285239D01*
X50974761Y67380477D01*
X50974761Y68237620D01*
X51355714Y67904286D02*
X51736666Y67904286D01*
X51498571Y68237620D02*
X51498571Y67380477D01*
X51546190Y67285239D01*
X51641428Y67237620D01*
X51736666Y67237620D01*
X52070000Y67237620D02*
X52070000Y67904286D01*
X52070000Y67713810D02*
X52117619Y67809048D01*
X52165238Y67856667D01*
X52260476Y67904286D01*
X52355714Y67904286D01*
X53117619Y67237620D02*
X53117619Y67761429D01*
X53070000Y67856667D01*
X52974761Y67904286D01*
X52784285Y67904286D01*
X52689047Y67856667D01*
X53117619Y67285239D02*
X53022380Y67237620D01*
X52784285Y67237620D01*
X52689047Y67285239D01*
X52641428Y67380477D01*
X52641428Y67475715D01*
X52689047Y67570953D01*
X52784285Y67618572D01*
X53022380Y67618572D01*
X53117619Y67666191D01*
X53593809Y67904286D02*
X53593809Y67237620D01*
X53593809Y67809048D02*
X53641428Y67856667D01*
X53736666Y67904286D01*
X53879523Y67904286D01*
X53974761Y67856667D01*
X54022380Y67761429D01*
X54022380Y67237620D01*
X49665238Y65587620D02*
X49331904Y66063810D01*
X49093809Y65587620D02*
X49093809Y66587620D01*
X49474761Y66587620D01*
X49570000Y66540000D01*
X49617619Y66492381D01*
X49665238Y66397143D01*
X49665238Y66254286D01*
X49617619Y66159048D01*
X49570000Y66111429D01*
X49474761Y66063810D01*
X49093809Y66063810D01*
X50236666Y65587620D02*
X50141428Y65635239D01*
X50093809Y65682858D01*
X50046190Y65778096D01*
X50046190Y66063810D01*
X50093809Y66159048D01*
X50141428Y66206667D01*
X50236666Y66254286D01*
X50379523Y66254286D01*
X50474761Y66206667D01*
X50522380Y66159048D01*
X50570000Y66063810D01*
X50570000Y65778096D01*
X50522380Y65682858D01*
X50474761Y65635239D01*
X50379523Y65587620D01*
X50236666Y65587620D01*
X50998571Y65587620D02*
X50998571Y66254286D01*
X50998571Y66159048D02*
X51046190Y66206667D01*
X51141428Y66254286D01*
X51284285Y66254286D01*
X51379523Y66206667D01*
X51427142Y66111429D01*
X51427142Y65587620D01*
X51427142Y66111429D02*
X51474761Y66206667D01*
X51570000Y66254286D01*
X51712857Y66254286D01*
X51808095Y66206667D01*
X51855714Y66111429D01*
X51855714Y65587620D01*
X52760476Y65587620D02*
X52760476Y66111429D01*
X52712857Y66206667D01*
X52617619Y66254286D01*
X52427142Y66254286D01*
X52331904Y66206667D01*
X52760476Y65635239D02*
X52665238Y65587620D01*
X52427142Y65587620D01*
X52331904Y65635239D01*
X52284285Y65730477D01*
X52284285Y65825715D01*
X52331904Y65920953D01*
X52427142Y65968572D01*
X52665238Y65968572D01*
X52760476Y66016191D01*
X53236666Y66254286D02*
X53236666Y65587620D01*
X53236666Y66159048D02*
X53284285Y66206667D01*
X53379523Y66254286D01*
X53522380Y66254286D01*
X53617619Y66206667D01*
X53665238Y66111429D01*
X53665238Y65587620D01*
X54141428Y65587620D02*
X54141428Y66254286D01*
X54141428Y66587620D02*
X54093809Y66540000D01*
X54141428Y66492381D01*
X54189047Y66540000D01*
X54141428Y66587620D01*
X54141428Y66492381D01*
X55046190Y65587620D02*
X55046190Y66111429D01*
X54998571Y66206667D01*
X54903333Y66254286D01*
X54712857Y66254286D01*
X54617619Y66206667D01*
X55046190Y65635239D02*
X54950952Y65587620D01*
X54712857Y65587620D01*
X54617619Y65635239D01*
X54570000Y65730477D01*
X54570000Y65825715D01*
X54617619Y65920953D01*
X54712857Y65968572D01*
X54950952Y65968572D01*
X55046190Y66016191D01*
X50355714Y64842381D02*
X50403333Y64890000D01*
X50498571Y64937620D01*
X50736666Y64937620D01*
X50831904Y64890000D01*
X50879523Y64842381D01*
X50927142Y64747143D01*
X50927142Y64651905D01*
X50879523Y64509048D01*
X50308095Y63937620D01*
X50927142Y63937620D01*
X51546190Y64937620D02*
X51641428Y64937620D01*
X51736666Y64890000D01*
X51784285Y64842381D01*
X51831904Y64747143D01*
X51879523Y64556667D01*
X51879523Y64318572D01*
X51831904Y64128096D01*
X51784285Y64032858D01*
X51736666Y63985239D01*
X51641428Y63937620D01*
X51546190Y63937620D01*
X51450952Y63985239D01*
X51403333Y64032858D01*
X51355714Y64128096D01*
X51308095Y64318572D01*
X51308095Y64556667D01*
X51355714Y64747143D01*
X51403333Y64842381D01*
X51450952Y64890000D01*
X51546190Y64937620D01*
X52260476Y64842381D02*
X52308095Y64890000D01*
X52403333Y64937620D01*
X52641428Y64937620D01*
X52736666Y64890000D01*
X52784285Y64842381D01*
X52831904Y64747143D01*
X52831904Y64651905D01*
X52784285Y64509048D01*
X52212857Y63937620D01*
X52831904Y63937620D01*
X53784285Y63937620D02*
X53212857Y63937620D01*
X53498571Y63937620D02*
X53498571Y64937620D01*
X53403333Y64794762D01*
X53308095Y64699524D01*
X53212857Y64651905D01*
X4119619Y63357048D02*
X4119619Y63928477D01*
X4119619Y63642762D02*
X5119619Y63642762D01*
X4976761Y63738000D01*
X4881523Y63833239D01*
X4833904Y63928477D01*
X5024380Y62976096D02*
X5072000Y62928477D01*
X5119619Y62833239D01*
X5119619Y62595143D01*
X5072000Y62499905D01*
X5024380Y62452286D01*
X4929142Y62404667D01*
X4833904Y62404667D01*
X4691047Y62452286D01*
X4119619Y63023715D01*
X4119619Y62404667D01*
X5119619Y62118953D02*
X4119619Y61785620D01*
X5119619Y61452286D01*
X59634380Y31099715D02*
X58634380Y31099715D01*
X58634380Y31337810D01*
X58682000Y31480667D01*
X58777238Y31575905D01*
X58872476Y31623524D01*
X59062952Y31671143D01*
X59205809Y31671143D01*
X59396285Y31623524D01*
X59491523Y31575905D01*
X59586761Y31480667D01*
X59634380Y31337810D01*
X59634380Y31099715D01*
X59586761Y32052096D02*
X59634380Y32194953D01*
X59634380Y32433048D01*
X59586761Y32528286D01*
X59539142Y32575905D01*
X59443904Y32623524D01*
X59348666Y32623524D01*
X59253428Y32575905D01*
X59205809Y32528286D01*
X59158190Y32433048D01*
X59110571Y32242572D01*
X59062952Y32147334D01*
X59015333Y32099715D01*
X58920095Y32052096D01*
X58824857Y32052096D01*
X58729619Y32099715D01*
X58682000Y32147334D01*
X58634380Y32242572D01*
X58634380Y32480667D01*
X58682000Y32623524D01*
X59634380Y33575905D02*
X59634380Y33004477D01*
X59634380Y33290191D02*
X58634380Y33290191D01*
X58777238Y33194953D01*
X58872476Y33099715D01*
X58920095Y33004477D01*
X59062952Y34147334D02*
X59015333Y34052096D01*
X58967714Y34004477D01*
X58872476Y33956858D01*
X58824857Y33956858D01*
X58729619Y34004477D01*
X58682000Y34052096D01*
X58634380Y34147334D01*
X58634380Y34337810D01*
X58682000Y34433048D01*
X58729619Y34480667D01*
X58824857Y34528286D01*
X58872476Y34528286D01*
X58967714Y34480667D01*
X59015333Y34433048D01*
X59062952Y34337810D01*
X59062952Y34147334D01*
X59110571Y34052096D01*
X59158190Y34004477D01*
X59253428Y33956858D01*
X59443904Y33956858D01*
X59539142Y34004477D01*
X59586761Y34052096D01*
X59634380Y34147334D01*
X59634380Y34337810D01*
X59586761Y34433048D01*
X59539142Y34480667D01*
X59443904Y34528286D01*
X59253428Y34528286D01*
X59158190Y34480667D01*
X59110571Y34433048D01*
X59062952Y34337810D01*
X59110571Y35290191D02*
X59158190Y35433048D01*
X59205809Y35480667D01*
X59301047Y35528286D01*
X59443904Y35528286D01*
X59539142Y35480667D01*
X59586761Y35433048D01*
X59634380Y35337810D01*
X59634380Y34956858D01*
X58634380Y34956858D01*
X58634380Y35290191D01*
X58682000Y35385429D01*
X58729619Y35433048D01*
X58824857Y35480667D01*
X58920095Y35480667D01*
X59015333Y35433048D01*
X59062952Y35385429D01*
X59110571Y35290191D01*
X59110571Y34956858D01*
X58729619Y35909239D02*
X58682000Y35956858D01*
X58634380Y36052096D01*
X58634380Y36290191D01*
X58682000Y36385429D01*
X58729619Y36433048D01*
X58824857Y36480667D01*
X58920095Y36480667D01*
X59062952Y36433048D01*
X59634380Y35861620D01*
X59634380Y36480667D01*
X58634380Y37099715D02*
X58634380Y37194953D01*
X58682000Y37290191D01*
X58729619Y37337810D01*
X58824857Y37385429D01*
X59015333Y37433048D01*
X59253428Y37433048D01*
X59443904Y37385429D01*
X59539142Y37337810D01*
X59586761Y37290191D01*
X59634380Y37194953D01*
X59634380Y37099715D01*
X59586761Y37004477D01*
X59539142Y36956858D01*
X59443904Y36909239D01*
X59253428Y36861620D01*
X59015333Y36861620D01*
X58824857Y36909239D01*
X58729619Y36956858D01*
X58682000Y37004477D01*
X58634380Y37099715D01*
X59634380Y38766381D02*
X59586761Y38671143D01*
X59539142Y38623524D01*
X59443904Y38575905D01*
X59158190Y38575905D01*
X59062952Y38623524D01*
X59015333Y38671143D01*
X58967714Y38766381D01*
X58967714Y38909239D01*
X59015333Y39004477D01*
X59062952Y39052096D01*
X59158190Y39099715D01*
X59443904Y39099715D01*
X59539142Y39052096D01*
X59586761Y39004477D01*
X59634380Y38909239D01*
X59634380Y38766381D01*
X58967714Y39956858D02*
X59634380Y39956858D01*
X58967714Y39528286D02*
X59491523Y39528286D01*
X59586761Y39575905D01*
X59634380Y39671143D01*
X59634380Y39814000D01*
X59586761Y39909239D01*
X59539142Y39956858D01*
X58967714Y40290191D02*
X58967714Y40671143D01*
X58634380Y40433048D02*
X59491523Y40433048D01*
X59586761Y40480667D01*
X59634380Y40575905D01*
X59634380Y40671143D01*
X59634380Y45315715D02*
X58634380Y45315715D01*
X58634380Y45553810D01*
X58682000Y45696667D01*
X58777238Y45791905D01*
X58872476Y45839524D01*
X59062952Y45887143D01*
X59205809Y45887143D01*
X59396285Y45839524D01*
X59491523Y45791905D01*
X59586761Y45696667D01*
X59634380Y45553810D01*
X59634380Y45315715D01*
X59586761Y46268096D02*
X59634380Y46410953D01*
X59634380Y46649048D01*
X59586761Y46744286D01*
X59539142Y46791905D01*
X59443904Y46839524D01*
X59348666Y46839524D01*
X59253428Y46791905D01*
X59205809Y46744286D01*
X59158190Y46649048D01*
X59110571Y46458572D01*
X59062952Y46363334D01*
X59015333Y46315715D01*
X58920095Y46268096D01*
X58824857Y46268096D01*
X58729619Y46315715D01*
X58682000Y46363334D01*
X58634380Y46458572D01*
X58634380Y46696667D01*
X58682000Y46839524D01*
X59634380Y47791905D02*
X59634380Y47220477D01*
X59634380Y47506191D02*
X58634380Y47506191D01*
X58777238Y47410953D01*
X58872476Y47315715D01*
X58920095Y47220477D01*
X59062952Y48363334D02*
X59015333Y48268096D01*
X58967714Y48220477D01*
X58872476Y48172858D01*
X58824857Y48172858D01*
X58729619Y48220477D01*
X58682000Y48268096D01*
X58634380Y48363334D01*
X58634380Y48553810D01*
X58682000Y48649048D01*
X58729619Y48696667D01*
X58824857Y48744286D01*
X58872476Y48744286D01*
X58967714Y48696667D01*
X59015333Y48649048D01*
X59062952Y48553810D01*
X59062952Y48363334D01*
X59110571Y48268096D01*
X59158190Y48220477D01*
X59253428Y48172858D01*
X59443904Y48172858D01*
X59539142Y48220477D01*
X59586761Y48268096D01*
X59634380Y48363334D01*
X59634380Y48553810D01*
X59586761Y48649048D01*
X59539142Y48696667D01*
X59443904Y48744286D01*
X59253428Y48744286D01*
X59158190Y48696667D01*
X59110571Y48649048D01*
X59062952Y48553810D01*
X59110571Y49506191D02*
X59158190Y49649048D01*
X59205809Y49696667D01*
X59301047Y49744286D01*
X59443904Y49744286D01*
X59539142Y49696667D01*
X59586761Y49649048D01*
X59634380Y49553810D01*
X59634380Y49172858D01*
X58634380Y49172858D01*
X58634380Y49506191D01*
X58682000Y49601429D01*
X58729619Y49649048D01*
X58824857Y49696667D01*
X58920095Y49696667D01*
X59015333Y49649048D01*
X59062952Y49601429D01*
X59110571Y49506191D01*
X59110571Y49172858D01*
X58729619Y50125239D02*
X58682000Y50172858D01*
X58634380Y50268096D01*
X58634380Y50506191D01*
X58682000Y50601429D01*
X58729619Y50649048D01*
X58824857Y50696667D01*
X58920095Y50696667D01*
X59062952Y50649048D01*
X59634380Y50077620D01*
X59634380Y50696667D01*
X58634380Y51315715D02*
X58634380Y51410953D01*
X58682000Y51506191D01*
X58729619Y51553810D01*
X58824857Y51601429D01*
X59015333Y51649048D01*
X59253428Y51649048D01*
X59443904Y51601429D01*
X59539142Y51553810D01*
X59586761Y51506191D01*
X59634380Y51410953D01*
X59634380Y51315715D01*
X59586761Y51220477D01*
X59539142Y51172858D01*
X59443904Y51125239D01*
X59253428Y51077620D01*
X59015333Y51077620D01*
X58824857Y51125239D01*
X58729619Y51172858D01*
X58682000Y51220477D01*
X58634380Y51315715D01*
X59634380Y52839524D02*
X58967714Y52839524D01*
X58634380Y52839524D02*
X58682000Y52791905D01*
X58729619Y52839524D01*
X58682000Y52887143D01*
X58634380Y52839524D01*
X58729619Y52839524D01*
X58967714Y53315715D02*
X59634380Y53315715D01*
X59062952Y53315715D02*
X59015333Y53363334D01*
X58967714Y53458572D01*
X58967714Y53601429D01*
X59015333Y53696667D01*
X59110571Y53744286D01*
X59634380Y53744286D01*
X35719047Y69667429D02*
X35385714Y69667429D01*
X35385714Y69143620D02*
X35385714Y70143620D01*
X35861904Y70143620D01*
X36195238Y69429334D02*
X36671428Y69429334D01*
X36100000Y69143620D02*
X36433333Y70143620D01*
X36766666Y69143620D01*
X37100000Y69143620D02*
X37100000Y70143620D01*
X37671428Y69143620D01*
X37671428Y70143620D01*
X39052380Y69143620D02*
X38957142Y69191239D01*
X38909523Y69238858D01*
X38861904Y69334096D01*
X38861904Y69619810D01*
X38909523Y69715048D01*
X38957142Y69762667D01*
X39052380Y69810286D01*
X39195238Y69810286D01*
X39290476Y69762667D01*
X39338095Y69715048D01*
X39385714Y69619810D01*
X39385714Y69334096D01*
X39338095Y69238858D01*
X39290476Y69191239D01*
X39195238Y69143620D01*
X39052380Y69143620D01*
X40242857Y69810286D02*
X40242857Y69143620D01*
X39814285Y69810286D02*
X39814285Y69286477D01*
X39861904Y69191239D01*
X39957142Y69143620D01*
X40100000Y69143620D01*
X40195238Y69191239D01*
X40242857Y69238858D01*
X40576190Y69810286D02*
X40957142Y69810286D01*
X40719047Y70143620D02*
X40719047Y69286477D01*
X40766666Y69191239D01*
X40861904Y69143620D01*
X40957142Y69143620D01*
X24789047Y69667429D02*
X24455714Y69667429D01*
X24455714Y69143620D02*
X24455714Y70143620D01*
X24931904Y70143620D01*
X25265238Y69429334D02*
X25741428Y69429334D01*
X25170000Y69143620D02*
X25503333Y70143620D01*
X25836666Y69143620D01*
X26170000Y69143620D02*
X26170000Y70143620D01*
X26741428Y69143620D01*
X26741428Y70143620D01*
X27979523Y69143620D02*
X27979523Y69810286D01*
X27979523Y70143620D02*
X27931904Y70096000D01*
X27979523Y70048381D01*
X28027142Y70096000D01*
X27979523Y70143620D01*
X27979523Y70048381D01*
X28455714Y69810286D02*
X28455714Y69143620D01*
X28455714Y69715048D02*
X28503333Y69762667D01*
X28598571Y69810286D01*
X28741428Y69810286D01*
X28836666Y69762667D01*
X28884285Y69667429D01*
X28884285Y69143620D01*
D10*
%TO.C,J2*%
X44838000Y3422000D02*
X44838000Y18422000D01*
X44838000Y18422000D02*
X29838000Y18422000D01*
X44838000Y3422000D02*
X29838000Y3422000D01*
X29838000Y3422000D02*
X29838000Y18422000D01*
%TO.C,C1*%
X14374000Y62762000D02*
X16614000Y62762000D01*
X14374000Y55522000D02*
X16614000Y55522000D01*
X16614000Y55522000D02*
X16614000Y62762000D01*
X14374000Y55522000D02*
X14374000Y62762000D01*
%TO.C,C2*%
X7673000Y56353225D02*
X8173000Y56353225D01*
X7923000Y56103225D02*
X7923000Y56603225D01*
X9114000Y61509000D02*
X9682000Y61509000D01*
X8880000Y61469000D02*
X9916000Y61469000D01*
X8721000Y61429000D02*
X10075000Y61429000D01*
X8593000Y61389000D02*
X10203000Y61389000D01*
X8483000Y61349000D02*
X10313000Y61349000D01*
X8387000Y61309000D02*
X10409000Y61309000D01*
X8300000Y61269000D02*
X10496000Y61269000D01*
X8220000Y61229000D02*
X10576000Y61229000D01*
X10438000Y61189000D02*
X10649000Y61189000D01*
X8147000Y61189000D02*
X8358000Y61189000D01*
X10438000Y61149000D02*
X10717000Y61149000D01*
X8079000Y61149000D02*
X8358000Y61149000D01*
X10438000Y61109000D02*
X10781000Y61109000D01*
X8015000Y61109000D02*
X8358000Y61109000D01*
X10438000Y61069000D02*
X10841000Y61069000D01*
X7955000Y61069000D02*
X8358000Y61069000D01*
X10438000Y61029000D02*
X10898000Y61029000D01*
X7898000Y61029000D02*
X8358000Y61029000D01*
X10438000Y60989000D02*
X10952000Y60989000D01*
X7844000Y60989000D02*
X8358000Y60989000D01*
X10438000Y60949000D02*
X11003000Y60949000D01*
X7793000Y60949000D02*
X8358000Y60949000D01*
X10438000Y60909000D02*
X11051000Y60909000D01*
X7745000Y60909000D02*
X8358000Y60909000D01*
X10438000Y60869000D02*
X11097000Y60869000D01*
X7699000Y60869000D02*
X8358000Y60869000D01*
X10438000Y60829000D02*
X11141000Y60829000D01*
X7655000Y60829000D02*
X8358000Y60829000D01*
X10438000Y60789000D02*
X11183000Y60789000D01*
X7613000Y60789000D02*
X8358000Y60789000D01*
X10438000Y60749000D02*
X11224000Y60749000D01*
X7572000Y60749000D02*
X8358000Y60749000D01*
X10438000Y60709000D02*
X11262000Y60709000D01*
X7534000Y60709000D02*
X8358000Y60709000D01*
X10438000Y60669000D02*
X11299000Y60669000D01*
X7497000Y60669000D02*
X8358000Y60669000D01*
X10438000Y60629000D02*
X11335000Y60629000D01*
X7461000Y60629000D02*
X8358000Y60629000D01*
X10438000Y60589000D02*
X11369000Y60589000D01*
X7427000Y60589000D02*
X8358000Y60589000D01*
X10438000Y60549000D02*
X11402000Y60549000D01*
X7394000Y60549000D02*
X8358000Y60549000D01*
X10438000Y60509000D02*
X11433000Y60509000D01*
X7363000Y60509000D02*
X8358000Y60509000D01*
X10438000Y60469000D02*
X11463000Y60469000D01*
X7333000Y60469000D02*
X8358000Y60469000D01*
X10438000Y60429000D02*
X11493000Y60429000D01*
X7303000Y60429000D02*
X8358000Y60429000D01*
X10438000Y60389000D02*
X11520000Y60389000D01*
X7276000Y60389000D02*
X8358000Y60389000D01*
X10438000Y60349000D02*
X11547000Y60349000D01*
X7249000Y60349000D02*
X8358000Y60349000D01*
X10438000Y60309000D02*
X11573000Y60309000D01*
X7223000Y60309000D02*
X8358000Y60309000D01*
X10438000Y60269000D02*
X11598000Y60269000D01*
X7198000Y60269000D02*
X8358000Y60269000D01*
X10438000Y60229000D02*
X11622000Y60229000D01*
X7174000Y60229000D02*
X8358000Y60229000D01*
X10438000Y60189000D02*
X11645000Y60189000D01*
X7151000Y60189000D02*
X8358000Y60189000D01*
X10438000Y60149000D02*
X11666000Y60149000D01*
X7130000Y60149000D02*
X8358000Y60149000D01*
X10438000Y60109000D02*
X11688000Y60109000D01*
X7108000Y60109000D02*
X8358000Y60109000D01*
X10438000Y60069000D02*
X11708000Y60069000D01*
X7088000Y60069000D02*
X8358000Y60069000D01*
X10438000Y60029000D02*
X11727000Y60029000D01*
X7069000Y60029000D02*
X8358000Y60029000D01*
X10438000Y59989000D02*
X11746000Y59989000D01*
X7050000Y59989000D02*
X8358000Y59989000D01*
X10438000Y59949000D02*
X11763000Y59949000D01*
X7033000Y59949000D02*
X8358000Y59949000D01*
X10438000Y59909000D02*
X11780000Y59909000D01*
X7016000Y59909000D02*
X8358000Y59909000D01*
X10438000Y59869000D02*
X11796000Y59869000D01*
X7000000Y59869000D02*
X8358000Y59869000D01*
X10438000Y59829000D02*
X11812000Y59829000D01*
X6984000Y59829000D02*
X8358000Y59829000D01*
X10438000Y59789000D02*
X11826000Y59789000D01*
X6970000Y59789000D02*
X8358000Y59789000D01*
X10438000Y59749000D02*
X11840000Y59749000D01*
X6956000Y59749000D02*
X8358000Y59749000D01*
X10438000Y59709000D02*
X11853000Y59709000D01*
X6943000Y59709000D02*
X8358000Y59709000D01*
X10438000Y59669000D02*
X11866000Y59669000D01*
X6930000Y59669000D02*
X8358000Y59669000D01*
X10438000Y59629000D02*
X11878000Y59629000D01*
X6918000Y59629000D02*
X8358000Y59629000D01*
X10438000Y59588000D02*
X11889000Y59588000D01*
X6907000Y59588000D02*
X8358000Y59588000D01*
X10438000Y59548000D02*
X11899000Y59548000D01*
X6897000Y59548000D02*
X8358000Y59548000D01*
X10438000Y59508000D02*
X11909000Y59508000D01*
X6887000Y59508000D02*
X8358000Y59508000D01*
X10438000Y59468000D02*
X11918000Y59468000D01*
X6878000Y59468000D02*
X8358000Y59468000D01*
X10438000Y59428000D02*
X11926000Y59428000D01*
X6870000Y59428000D02*
X8358000Y59428000D01*
X10438000Y59388000D02*
X11934000Y59388000D01*
X6862000Y59388000D02*
X8358000Y59388000D01*
X10438000Y59348000D02*
X11941000Y59348000D01*
X6855000Y59348000D02*
X8358000Y59348000D01*
X10438000Y59308000D02*
X11948000Y59308000D01*
X6848000Y59308000D02*
X8358000Y59308000D01*
X10438000Y59268000D02*
X11954000Y59268000D01*
X6842000Y59268000D02*
X8358000Y59268000D01*
X10438000Y59228000D02*
X11959000Y59228000D01*
X6837000Y59228000D02*
X8358000Y59228000D01*
X10438000Y59188000D02*
X11963000Y59188000D01*
X6833000Y59188000D02*
X8358000Y59188000D01*
X10438000Y59148000D02*
X11967000Y59148000D01*
X6829000Y59148000D02*
X8358000Y59148000D01*
X6825000Y59108000D02*
X11971000Y59108000D01*
X6822000Y59068000D02*
X11974000Y59068000D01*
X6820000Y59028000D02*
X11976000Y59028000D01*
X6819000Y58988000D02*
X11977000Y58988000D01*
X6818000Y58948000D02*
X11978000Y58948000D01*
X6818000Y58908000D02*
X11978000Y58908000D01*
X12018000Y58908000D02*
G75*
G03*
X12018000Y58908000I-2620000J0D01*
G01*
%TO.C,J1*%
X15886000Y74704000D02*
X15886000Y72104000D01*
X1186000Y74704000D02*
X15886000Y74704000D01*
X15886000Y65504000D02*
X13986000Y65504000D01*
X15886000Y68204000D02*
X15886000Y65504000D01*
X1186000Y65504000D02*
X1186000Y74704000D01*
X9986000Y65504000D02*
X1186000Y65504000D01*
X15036000Y74904000D02*
X16086000Y74904000D01*
X16086000Y73854000D02*
X16086000Y74904000D01*
%TO.C,J3*%
X63306000Y53146000D02*
X60646000Y53146000D01*
X63306000Y48006000D02*
X63306000Y53146000D01*
X60646000Y48006000D02*
X60646000Y53146000D01*
X63306000Y48006000D02*
X60646000Y48006000D01*
X63306000Y46736000D02*
X63306000Y45406000D01*
X63306000Y45406000D02*
X61976000Y45406000D01*
%TO.C,J4*%
X63052000Y31690000D02*
X61722000Y31690000D01*
X63052000Y33020000D02*
X63052000Y31690000D01*
X63052000Y34290000D02*
X60392000Y34290000D01*
X60392000Y34290000D02*
X60392000Y39430000D01*
X63052000Y34290000D02*
X63052000Y39430000D01*
X63052000Y39430000D02*
X60392000Y39430000D01*
%TO.C,Q1*%
X30502000Y66874000D02*
X26902000Y66874000D01*
X30513875Y66865741D02*
G75*
G02*
X29522000Y62574000I-1811875J-1841741D01*
G01*
X26893555Y66851684D02*
G75*
G03*
X27922000Y62574000I1808445J-1827684D01*
G01*
%TO.C,Q2*%
X36344000Y66874000D02*
X32744000Y66874000D01*
X32735555Y66851684D02*
G75*
G03*
X33764000Y62574000I1808445J-1827684D01*
G01*
X36355875Y66865741D02*
G75*
G02*
X35364000Y62574000I-1811875J-1841741D01*
G01*
%TO.C,R1*%
X21614000Y58420000D02*
X22384000Y58420000D01*
X29694000Y58420000D02*
X28924000Y58420000D01*
X22384000Y57050000D02*
X28924000Y57050000D01*
X22384000Y59790000D02*
X22384000Y57050000D01*
X28924000Y59790000D02*
X22384000Y59790000D01*
X28924000Y57050000D02*
X28924000Y59790000D01*
%TO.C,R2*%
X34576000Y59790000D02*
X34576000Y57050000D01*
X34576000Y57050000D02*
X41116000Y57050000D01*
X41116000Y57050000D02*
X41116000Y59790000D01*
X41116000Y59790000D02*
X34576000Y59790000D01*
X33806000Y58420000D02*
X34576000Y58420000D01*
X41886000Y58420000D02*
X41116000Y58420000D01*
%TO.C,R3*%
X52094000Y22352000D02*
X52864000Y22352000D01*
X60174000Y22352000D02*
X59404000Y22352000D01*
X52864000Y20982000D02*
X59404000Y20982000D01*
X52864000Y23722000D02*
X52864000Y20982000D01*
X59404000Y23722000D02*
X52864000Y23722000D01*
X59404000Y20982000D02*
X59404000Y23722000D01*
%TO.C,R4*%
X18696000Y15272000D02*
X21436000Y15272000D01*
X21436000Y15272000D02*
X21436000Y21812000D01*
X21436000Y21812000D02*
X18696000Y21812000D01*
X18696000Y21812000D02*
X18696000Y15272000D01*
X20066000Y14502000D02*
X20066000Y15272000D01*
X20066000Y22582000D02*
X20066000Y21812000D01*
%TO.C,R5*%
X23114000Y22582000D02*
X23114000Y21812000D01*
X23114000Y14502000D02*
X23114000Y15272000D01*
X21744000Y21812000D02*
X21744000Y15272000D01*
X24484000Y21812000D02*
X21744000Y21812000D01*
X24484000Y15272000D02*
X24484000Y21812000D01*
X21744000Y15272000D02*
X24484000Y15272000D01*
%TO.C,R6*%
X24792000Y15272000D02*
X27532000Y15272000D01*
X27532000Y15272000D02*
X27532000Y21812000D01*
X27532000Y21812000D02*
X24792000Y21812000D01*
X24792000Y21812000D02*
X24792000Y15272000D01*
X26162000Y14502000D02*
X26162000Y15272000D01*
X26162000Y22582000D02*
X26162000Y21812000D01*
%TO.C,U1*%
X10541000Y36068000D02*
X5461000Y36068000D01*
X10541000Y43688000D02*
X10541000Y36068000D01*
X5461000Y43688000D02*
X10541000Y43688000D01*
X31877000Y30988000D02*
X56769000Y30988000D01*
X31877000Y49276000D02*
X31877000Y30988000D01*
X56769000Y49276000D02*
X31877000Y49276000D01*
X5461000Y25908000D02*
X56961000Y25908000D01*
X56961000Y25908000D02*
X56961000Y54208000D01*
X56961000Y54238000D02*
X5461000Y54238000D01*
X5461000Y54238000D02*
X5461000Y25908000D01*
X9461000Y51738000D02*
G75*
G03*
X9461000Y51738000I-1500000J0D01*
G01*
X9461000Y28408000D02*
G75*
G03*
X9461000Y28408000I-1500000J0D01*
G01*
X55961000Y51738000D02*
G75*
G03*
X55961000Y51738000I-1500000J0D01*
G01*
X55961000Y28408000D02*
G75*
G03*
X55961000Y28408000I-1500000J0D01*
G01*
%TO.C,J6*%
X31302000Y70552000D02*
X31302000Y73212000D01*
X23622000Y70552000D02*
X31302000Y70552000D01*
X23622000Y73212000D02*
X31302000Y73212000D01*
X23622000Y70552000D02*
X23622000Y73212000D01*
X22352000Y70552000D02*
X21022000Y70552000D01*
X21022000Y70552000D02*
X21022000Y71882000D01*
%TO.C,J7*%
X32198000Y70552000D02*
X32198000Y71882000D01*
X33528000Y70552000D02*
X32198000Y70552000D01*
X34798000Y70552000D02*
X34798000Y73212000D01*
X34798000Y73212000D02*
X42478000Y73212000D01*
X34798000Y70552000D02*
X42478000Y70552000D01*
X42478000Y70552000D02*
X42478000Y73212000D01*
%TO.C,J5*%
X45974000Y5842000D02*
X58674000Y5842000D01*
X58674000Y5842000D02*
X58674000Y18542000D01*
X58674000Y18542000D02*
X45974000Y18542000D01*
X45974000Y18542000D02*
X45974000Y5842000D01*
X49022000Y14986000D02*
X49022000Y7874000D01*
X49022000Y7874000D02*
X58420000Y7874000D01*
X58420000Y7874000D02*
X58420000Y14986000D01*
X58420000Y14986000D02*
X49022000Y14986000D01*
%TO.C,D1*%
X20490500Y8403000D02*
X20490500Y7938000D01*
X20490500Y5778000D02*
X20490500Y5313000D01*
X25838315Y7938827D02*
G75*
G03*
X20490500Y8402830I-2787815J-1080827D01*
G01*
X25838315Y5777173D02*
G75*
G02*
X20490500Y5313170I-2787815J1080827D01*
G01*
X25304979Y7938429D02*
G75*
G03*
X20795816Y7938000I-2254479J-1080429D01*
G01*
X25304979Y5777571D02*
G75*
G02*
X20795816Y5778000I-2254479J1080429D01*
G01*
%TO.C,J2*%
D11*
X42084666Y20105620D02*
X42084666Y19391334D01*
X42037047Y19248477D01*
X41941809Y19153239D01*
X41798952Y19105620D01*
X41703714Y19105620D01*
X42513238Y20010381D02*
X42560857Y20058000D01*
X42656095Y20105620D01*
X42894190Y20105620D01*
X42989428Y20058000D01*
X43037047Y20010381D01*
X43084666Y19915143D01*
X43084666Y19819905D01*
X43037047Y19677048D01*
X42465619Y19105620D01*
X43084666Y19105620D01*
X37790380Y8279143D02*
X36790380Y8279143D01*
X37266571Y8279143D02*
X37266571Y8850572D01*
X37790380Y8850572D02*
X36790380Y8850572D01*
X36790380Y9183905D02*
X36790380Y9755334D01*
X37790380Y9469620D02*
X36790380Y9469620D01*
X36790380Y10088667D02*
X37599904Y10088667D01*
X37695142Y10136286D01*
X37742761Y10183905D01*
X37790380Y10279143D01*
X37790380Y10469620D01*
X37742761Y10564858D01*
X37695142Y10612477D01*
X37599904Y10660096D01*
X36790380Y10660096D01*
X36885619Y11088667D02*
X36838000Y11136286D01*
X36790380Y11231524D01*
X36790380Y11469620D01*
X36838000Y11564858D01*
X36885619Y11612477D01*
X36980857Y11660096D01*
X37076095Y11660096D01*
X37218952Y11612477D01*
X37790380Y11041048D01*
X37790380Y11660096D01*
X37790380Y12612477D02*
X37790380Y12041048D01*
X37790380Y12326762D02*
X36790380Y12326762D01*
X36933238Y12231524D01*
X37028476Y12136286D01*
X37076095Y12041048D01*
X37790380Y13041048D02*
X36790380Y13041048D01*
X36790380Y13279143D01*
X36838000Y13422000D01*
X36933238Y13517239D01*
X37028476Y13564858D01*
X37218952Y13612477D01*
X37361809Y13612477D01*
X37552285Y13564858D01*
X37647523Y13517239D01*
X37742761Y13422000D01*
X37790380Y13279143D01*
X37790380Y13041048D01*
%TO.C,C1*%
X15327333Y63142858D02*
X15279714Y63095239D01*
X15136857Y63047620D01*
X15041619Y63047620D01*
X14898761Y63095239D01*
X14803523Y63190477D01*
X14755904Y63285715D01*
X14708285Y63476191D01*
X14708285Y63619048D01*
X14755904Y63809524D01*
X14803523Y63904762D01*
X14898761Y64000000D01*
X15041619Y64047620D01*
X15136857Y64047620D01*
X15279714Y64000000D01*
X15327333Y63952381D01*
X16279714Y63047620D02*
X15708285Y63047620D01*
X15994000Y63047620D02*
X15994000Y64047620D01*
X15898761Y63904762D01*
X15803523Y63809524D01*
X15708285Y63761905D01*
%TO.C,C2*%
X5929333Y56538858D02*
X5881714Y56491239D01*
X5738857Y56443620D01*
X5643619Y56443620D01*
X5500761Y56491239D01*
X5405523Y56586477D01*
X5357904Y56681715D01*
X5310285Y56872191D01*
X5310285Y57015048D01*
X5357904Y57205524D01*
X5405523Y57300762D01*
X5500761Y57396000D01*
X5643619Y57443620D01*
X5738857Y57443620D01*
X5881714Y57396000D01*
X5929333Y57348381D01*
X6310285Y57348381D02*
X6357904Y57396000D01*
X6453142Y57443620D01*
X6691238Y57443620D01*
X6786476Y57396000D01*
X6834095Y57348381D01*
X6881714Y57253143D01*
X6881714Y57157905D01*
X6834095Y57015048D01*
X6262666Y56443620D01*
X6881714Y56443620D01*
%TO.C,J1*%
X16938666Y66841620D02*
X16938666Y66127334D01*
X16891047Y65984477D01*
X16795809Y65889239D01*
X16652952Y65841620D01*
X16557714Y65841620D01*
X17938666Y65841620D02*
X17367238Y65841620D01*
X17652952Y65841620D02*
X17652952Y66841620D01*
X17557714Y66698762D01*
X17462476Y66603524D01*
X17367238Y66555905D01*
%TO.C,J3*%
X61174380Y44116667D02*
X61888666Y44116667D01*
X62031523Y44069048D01*
X62126761Y43973810D01*
X62174380Y43830953D01*
X62174380Y43735715D01*
X61174380Y44497620D02*
X61174380Y45116667D01*
X61555333Y44783334D01*
X61555333Y44926191D01*
X61602952Y45021429D01*
X61650571Y45069048D01*
X61745809Y45116667D01*
X61983904Y45116667D01*
X62079142Y45069048D01*
X62126761Y45021429D01*
X62174380Y44926191D01*
X62174380Y44640477D01*
X62126761Y44545239D01*
X62079142Y44497620D01*
%TO.C,J4*%
X61174380Y30146667D02*
X61888666Y30146667D01*
X62031523Y30099048D01*
X62126761Y30003810D01*
X62174380Y29860953D01*
X62174380Y29765715D01*
X61507714Y31051429D02*
X62174380Y31051429D01*
X61126761Y30813334D02*
X61841047Y30575239D01*
X61841047Y31194286D01*
%TO.C,Q1*%
X25812761Y61936381D02*
X25717523Y61984000D01*
X25622285Y62079239D01*
X25479428Y62222096D01*
X25384190Y62269715D01*
X25288952Y62269715D01*
X25336571Y62031620D02*
X25241333Y62079239D01*
X25146095Y62174477D01*
X25098476Y62364953D01*
X25098476Y62698286D01*
X25146095Y62888762D01*
X25241333Y62984000D01*
X25336571Y63031620D01*
X25527047Y63031620D01*
X25622285Y62984000D01*
X25717523Y62888762D01*
X25765142Y62698286D01*
X25765142Y62364953D01*
X25717523Y62174477D01*
X25622285Y62079239D01*
X25527047Y62031620D01*
X25336571Y62031620D01*
X26717523Y62031620D02*
X26146095Y62031620D01*
X26431809Y62031620D02*
X26431809Y63031620D01*
X26336571Y62888762D01*
X26241333Y62793524D01*
X26146095Y62745905D01*
%TO.C,Q2*%
X37496761Y61936381D02*
X37401523Y61984000D01*
X37306285Y62079239D01*
X37163428Y62222096D01*
X37068190Y62269715D01*
X36972952Y62269715D01*
X37020571Y62031620D02*
X36925333Y62079239D01*
X36830095Y62174477D01*
X36782476Y62364953D01*
X36782476Y62698286D01*
X36830095Y62888762D01*
X36925333Y62984000D01*
X37020571Y63031620D01*
X37211047Y63031620D01*
X37306285Y62984000D01*
X37401523Y62888762D01*
X37449142Y62698286D01*
X37449142Y62364953D01*
X37401523Y62174477D01*
X37306285Y62079239D01*
X37211047Y62031620D01*
X37020571Y62031620D01*
X37830095Y62936381D02*
X37877714Y62984000D01*
X37972952Y63031620D01*
X38211047Y63031620D01*
X38306285Y62984000D01*
X38353904Y62936381D01*
X38401523Y62841143D01*
X38401523Y62745905D01*
X38353904Y62603048D01*
X37782476Y62031620D01*
X38401523Y62031620D01*
%TO.C,R1*%
X20915333Y60253620D02*
X20582000Y60729810D01*
X20343904Y60253620D02*
X20343904Y61253620D01*
X20724857Y61253620D01*
X20820095Y61206000D01*
X20867714Y61158381D01*
X20915333Y61063143D01*
X20915333Y60920286D01*
X20867714Y60825048D01*
X20820095Y60777429D01*
X20724857Y60729810D01*
X20343904Y60729810D01*
X21867714Y60253620D02*
X21296285Y60253620D01*
X21582000Y60253620D02*
X21582000Y61253620D01*
X21486761Y61110762D01*
X21391523Y61015524D01*
X21296285Y60967905D01*
%TO.C,R2*%
X45045333Y57967620D02*
X44712000Y58443810D01*
X44473904Y57967620D02*
X44473904Y58967620D01*
X44854857Y58967620D01*
X44950095Y58920000D01*
X44997714Y58872381D01*
X45045333Y58777143D01*
X45045333Y58634286D01*
X44997714Y58539048D01*
X44950095Y58491429D01*
X44854857Y58443810D01*
X44473904Y58443810D01*
X45426285Y58872381D02*
X45473904Y58920000D01*
X45569142Y58967620D01*
X45807238Y58967620D01*
X45902476Y58920000D01*
X45950095Y58872381D01*
X45997714Y58777143D01*
X45997714Y58681905D01*
X45950095Y58539048D01*
X45378666Y57967620D01*
X45997714Y57967620D01*
%TO.C,R3*%
X55967333Y19529620D02*
X55634000Y20005810D01*
X55395904Y19529620D02*
X55395904Y20529620D01*
X55776857Y20529620D01*
X55872095Y20482000D01*
X55919714Y20434381D01*
X55967333Y20339143D01*
X55967333Y20196286D01*
X55919714Y20101048D01*
X55872095Y20053429D01*
X55776857Y20005810D01*
X55395904Y20005810D01*
X56300666Y20529620D02*
X56919714Y20529620D01*
X56586380Y20148667D01*
X56729238Y20148667D01*
X56824476Y20101048D01*
X56872095Y20053429D01*
X56919714Y19958191D01*
X56919714Y19720096D01*
X56872095Y19624858D01*
X56824476Y19577239D01*
X56729238Y19529620D01*
X56443523Y19529620D01*
X56348285Y19577239D01*
X56300666Y19624858D01*
%TO.C,R4*%
X20518380Y11009334D02*
X20042190Y10676000D01*
X20518380Y10437905D02*
X19518380Y10437905D01*
X19518380Y10818858D01*
X19566000Y10914096D01*
X19613619Y10961715D01*
X19708857Y11009334D01*
X19851714Y11009334D01*
X19946952Y10961715D01*
X19994571Y10914096D01*
X20042190Y10818858D01*
X20042190Y10437905D01*
X19851714Y11866477D02*
X20518380Y11866477D01*
X19470761Y11628381D02*
X20185047Y11390286D01*
X20185047Y12009334D01*
%TO.C,R5*%
X23566380Y11009334D02*
X23090190Y10676000D01*
X23566380Y10437905D02*
X22566380Y10437905D01*
X22566380Y10818858D01*
X22614000Y10914096D01*
X22661619Y10961715D01*
X22756857Y11009334D01*
X22899714Y11009334D01*
X22994952Y10961715D01*
X23042571Y10914096D01*
X23090190Y10818858D01*
X23090190Y10437905D01*
X22566380Y11914096D02*
X22566380Y11437905D01*
X23042571Y11390286D01*
X22994952Y11437905D01*
X22947333Y11533143D01*
X22947333Y11771239D01*
X22994952Y11866477D01*
X23042571Y11914096D01*
X23137809Y11961715D01*
X23375904Y11961715D01*
X23471142Y11914096D01*
X23518761Y11866477D01*
X23566380Y11771239D01*
X23566380Y11533143D01*
X23518761Y11437905D01*
X23471142Y11390286D01*
%TO.C,R6*%
X26614380Y11009334D02*
X26138190Y10676000D01*
X26614380Y10437905D02*
X25614380Y10437905D01*
X25614380Y10818858D01*
X25662000Y10914096D01*
X25709619Y10961715D01*
X25804857Y11009334D01*
X25947714Y11009334D01*
X26042952Y10961715D01*
X26090571Y10914096D01*
X26138190Y10818858D01*
X26138190Y10437905D01*
X25614380Y11866477D02*
X25614380Y11676000D01*
X25662000Y11580762D01*
X25709619Y11533143D01*
X25852476Y11437905D01*
X26042952Y11390286D01*
X26423904Y11390286D01*
X26519142Y11437905D01*
X26566761Y11485524D01*
X26614380Y11580762D01*
X26614380Y11771239D01*
X26566761Y11866477D01*
X26519142Y11914096D01*
X26423904Y11961715D01*
X26185809Y11961715D01*
X26090571Y11914096D01*
X26042952Y11866477D01*
X25995333Y11771239D01*
X25995333Y11580762D01*
X26042952Y11485524D01*
X26090571Y11437905D01*
X26185809Y11390286D01*
%TO.C,U1*%
X53975095Y55665620D02*
X53975095Y54856096D01*
X54022714Y54760858D01*
X54070333Y54713239D01*
X54165571Y54665620D01*
X54356047Y54665620D01*
X54451285Y54713239D01*
X54498904Y54760858D01*
X54546523Y54856096D01*
X54546523Y55665620D01*
X55546523Y54665620D02*
X54975095Y54665620D01*
X55260809Y54665620D02*
X55260809Y55665620D01*
X55165571Y55522762D01*
X55070333Y55427524D01*
X54975095Y55379905D01*
%TO.C,J6*%
X21510666Y70143620D02*
X21510666Y69429334D01*
X21463047Y69286477D01*
X21367809Y69191239D01*
X21224952Y69143620D01*
X21129714Y69143620D01*
X22415428Y70143620D02*
X22224952Y70143620D01*
X22129714Y70096000D01*
X22082095Y70048381D01*
X21986857Y69905524D01*
X21939238Y69715048D01*
X21939238Y69334096D01*
X21986857Y69238858D01*
X22034476Y69191239D01*
X22129714Y69143620D01*
X22320190Y69143620D01*
X22415428Y69191239D01*
X22463047Y69238858D01*
X22510666Y69334096D01*
X22510666Y69572191D01*
X22463047Y69667429D01*
X22415428Y69715048D01*
X22320190Y69762667D01*
X22129714Y69762667D01*
X22034476Y69715048D01*
X21986857Y69667429D01*
X21939238Y69572191D01*
%TO.C,J7*%
X32940666Y70143620D02*
X32940666Y69429334D01*
X32893047Y69286477D01*
X32797809Y69191239D01*
X32654952Y69143620D01*
X32559714Y69143620D01*
X33321619Y70143620D02*
X33988285Y70143620D01*
X33559714Y69143620D01*
%TO.C,J5*%
X47672666Y5373620D02*
X47672666Y4659334D01*
X47625047Y4516477D01*
X47529809Y4421239D01*
X47386952Y4373620D01*
X47291714Y4373620D01*
X48625047Y5373620D02*
X48148857Y5373620D01*
X48101238Y4897429D01*
X48148857Y4945048D01*
X48244095Y4992667D01*
X48482190Y4992667D01*
X48577428Y4945048D01*
X48625047Y4897429D01*
X48672666Y4802191D01*
X48672666Y4564096D01*
X48625047Y4468858D01*
X48577428Y4421239D01*
X48482190Y4373620D01*
X48244095Y4373620D01*
X48148857Y4421239D01*
X48101238Y4468858D01*
X50951142Y10977620D02*
X50951142Y11977620D01*
X51189238Y11977620D01*
X51332095Y11930000D01*
X51427333Y11834762D01*
X51474952Y11739524D01*
X51522571Y11549048D01*
X51522571Y11406191D01*
X51474952Y11215715D01*
X51427333Y11120477D01*
X51332095Y11025239D01*
X51189238Y10977620D01*
X50951142Y10977620D01*
X51903523Y11025239D02*
X52046380Y10977620D01*
X52284476Y10977620D01*
X52379714Y11025239D01*
X52427333Y11072858D01*
X52474952Y11168096D01*
X52474952Y11263334D01*
X52427333Y11358572D01*
X52379714Y11406191D01*
X52284476Y11453810D01*
X52094000Y11501429D01*
X51998761Y11549048D01*
X51951142Y11596667D01*
X51903523Y11691905D01*
X51903523Y11787143D01*
X51951142Y11882381D01*
X51998761Y11930000D01*
X52094000Y11977620D01*
X52332095Y11977620D01*
X52474952Y11930000D01*
X52808285Y11977620D02*
X53427333Y11977620D01*
X53094000Y11596667D01*
X53236857Y11596667D01*
X53332095Y11549048D01*
X53379714Y11501429D01*
X53427333Y11406191D01*
X53427333Y11168096D01*
X53379714Y11072858D01*
X53332095Y11025239D01*
X53236857Y10977620D01*
X52951142Y10977620D01*
X52855904Y11025239D01*
X52808285Y11072858D01*
X53808285Y11882381D02*
X53855904Y11930000D01*
X53951142Y11977620D01*
X54189238Y11977620D01*
X54284476Y11930000D01*
X54332095Y11882381D01*
X54379714Y11787143D01*
X54379714Y11691905D01*
X54332095Y11549048D01*
X53760666Y10977620D01*
X54379714Y10977620D01*
X54713047Y11977620D02*
X55332095Y11977620D01*
X54998761Y11596667D01*
X55141619Y11596667D01*
X55236857Y11549048D01*
X55284476Y11501429D01*
X55332095Y11406191D01*
X55332095Y11168096D01*
X55284476Y11072858D01*
X55236857Y11025239D01*
X55141619Y10977620D01*
X54855904Y10977620D01*
X54760666Y11025239D01*
X54713047Y11072858D01*
X56284476Y10977620D02*
X55713047Y10977620D01*
X55998761Y10977620D02*
X55998761Y11977620D01*
X55903523Y11834762D01*
X55808285Y11739524D01*
X55713047Y11691905D01*
%TO.C,D1*%
X18311904Y3865620D02*
X18311904Y4865620D01*
X18550000Y4865620D01*
X18692857Y4818000D01*
X18788095Y4722762D01*
X18835714Y4627524D01*
X18883333Y4437048D01*
X18883333Y4294191D01*
X18835714Y4103715D01*
X18788095Y4008477D01*
X18692857Y3913239D01*
X18550000Y3865620D01*
X18311904Y3865620D01*
X19835714Y3865620D02*
X19264285Y3865620D01*
X19550000Y3865620D02*
X19550000Y4865620D01*
X19454761Y4722762D01*
X19359523Y4627524D01*
X19264285Y4579905D01*
%TD*%
%LPC*%
D12*
%TO.C,J2*%
X33528000Y17152000D03*
X36068000Y17152000D03*
X38608000Y17152000D03*
X41148000Y17152000D03*
%TD*%
D13*
%TO.C,C1*%
X15494000Y56642000D03*
X15494000Y61642000D03*
%TD*%
D14*
%TO.C,C2*%
X9398000Y57658000D03*
D13*
X9398000Y60158000D03*
%TD*%
D15*
%TO.C,J1*%
X14986000Y70104000D03*
G36*
G01*
X7486000Y69104000D02*
X7486000Y71104000D01*
G75*
G02*
X8236000Y71854000I750000J0D01*
G01*
X9736000Y71854000D01*
G75*
G02*
X10486000Y71104000I0J-750000D01*
G01*
X10486000Y69104000D01*
G75*
G02*
X9736000Y68354000I-750000J0D01*
G01*
X8236000Y68354000D01*
G75*
G02*
X7486000Y69104000I0J750000D01*
G01*
G37*
G36*
G01*
X10236000Y64529000D02*
X10236000Y66279000D01*
G75*
G02*
X11111000Y67154000I875000J0D01*
G01*
X12861000Y67154000D01*
G75*
G02*
X13736000Y66279000I0J-875000D01*
G01*
X13736000Y64529000D01*
G75*
G02*
X12861000Y63654000I-875000J0D01*
G01*
X11111000Y63654000D01*
G75*
G02*
X10236000Y64529000I0J875000D01*
G01*
G37*
%TD*%
D16*
%TO.C,J3*%
X61976000Y51816000D03*
X61976000Y49276000D03*
D17*
X61976000Y46736000D03*
%TD*%
%TO.C,J4*%
X61722000Y33020000D03*
D16*
X61722000Y35560000D03*
X61722000Y38100000D03*
%TD*%
%TO.C,Q1*%
G36*
G01*
X29252000Y63979000D02*
X29252000Y62729000D01*
G75*
G02*
X28977000Y62454000I-275000J0D01*
G01*
X28427000Y62454000D01*
G75*
G02*
X28152000Y62729000I0J275000D01*
G01*
X28152000Y63979000D01*
G75*
G02*
X28427000Y64254000I275000J0D01*
G01*
X28977000Y64254000D01*
G75*
G02*
X29252000Y63979000I0J-275000D01*
G01*
G37*
G36*
G01*
X27982000Y66049000D02*
X27982000Y64799000D01*
G75*
G02*
X27707000Y64524000I-275000J0D01*
G01*
X27157000Y64524000D01*
G75*
G02*
X26882000Y64799000I0J275000D01*
G01*
X26882000Y66049000D01*
G75*
G02*
X27157000Y66324000I275000J0D01*
G01*
X27707000Y66324000D01*
G75*
G02*
X27982000Y66049000I0J-275000D01*
G01*
G37*
D18*
X29972000Y65424000D03*
%TD*%
%TO.C,Q2*%
X35814000Y65424000D03*
G36*
G01*
X33824000Y66049000D02*
X33824000Y64799000D01*
G75*
G02*
X33549000Y64524000I-275000J0D01*
G01*
X32999000Y64524000D01*
G75*
G02*
X32724000Y64799000I0J275000D01*
G01*
X32724000Y66049000D01*
G75*
G02*
X32999000Y66324000I275000J0D01*
G01*
X33549000Y66324000D01*
G75*
G02*
X33824000Y66049000I0J-275000D01*
G01*
G37*
G36*
G01*
X35094000Y63979000D02*
X35094000Y62729000D01*
G75*
G02*
X34819000Y62454000I-275000J0D01*
G01*
X34269000Y62454000D01*
G75*
G02*
X33994000Y62729000I0J275000D01*
G01*
X33994000Y63979000D01*
G75*
G02*
X34269000Y64254000I275000J0D01*
G01*
X34819000Y64254000D01*
G75*
G02*
X35094000Y63979000I0J-275000D01*
G01*
G37*
%TD*%
D13*
%TO.C,R1*%
X30734000Y58420000D03*
D19*
X20574000Y58420000D03*
%TD*%
%TO.C,R2*%
X42926000Y58420000D03*
D13*
X32766000Y58420000D03*
%TD*%
%TO.C,R3*%
X61214000Y22352000D03*
D19*
X51054000Y22352000D03*
%TD*%
%TO.C,R4*%
X20066000Y23622000D03*
D13*
X20066000Y13462000D03*
%TD*%
%TO.C,R5*%
X23114000Y13462000D03*
D19*
X23114000Y23622000D03*
%TD*%
%TO.C,R6*%
X26162000Y23622000D03*
D13*
X26162000Y13462000D03*
%TD*%
D20*
%TO.C,U1*%
X25654000Y27432000D03*
X51054000Y27432000D03*
X51054000Y52832000D03*
X40894000Y27432000D03*
X23114000Y27432000D03*
X23114000Y52832000D03*
X20574000Y27432000D03*
X18034000Y52832000D03*
X30734000Y52832000D03*
X43434000Y52832000D03*
X28194000Y27432000D03*
X43434000Y27432000D03*
X18034000Y27432000D03*
X40894000Y52832000D03*
X35814000Y27432000D03*
X38354000Y52832000D03*
X38354000Y27432000D03*
X30734000Y27432000D03*
X48514000Y52832000D03*
X35814000Y52832000D03*
X45974000Y52832000D03*
X15494000Y52832000D03*
X33274000Y27432000D03*
X28194000Y52832000D03*
X45974000Y27432000D03*
X33274000Y52832000D03*
X48514000Y27432000D03*
X25654000Y52832000D03*
X20574000Y52832000D03*
X15494000Y27432000D03*
%TD*%
D16*
%TO.C,J6*%
X29972000Y71882000D03*
X27432000Y71882000D03*
X24892000Y71882000D03*
D17*
X22352000Y71882000D03*
%TD*%
%TO.C,J7*%
X33528000Y71882000D03*
D16*
X36068000Y71882000D03*
X38608000Y71882000D03*
X41148000Y71882000D03*
%TD*%
D21*
%TO.C,J5*%
X47244000Y17272000D03*
D12*
X49784000Y17272000D03*
X52324000Y17272000D03*
X54864000Y17272000D03*
X57404000Y17272000D03*
%TD*%
D22*
%TO.C,D1*%
X19812000Y6858000D03*
D23*
X21971000Y6858000D03*
X24130000Y6858000D03*
X26289000Y6858000D03*
%TD*%
M02*
