M48
; DRILL file {KiCad (5.1.9)-1} date 07/15/21 08:49:07
; FORMAT={-:-/ absolute / metric / decimal}
; #@! TF.CreationDate,2021-07-15T08:49:07+03:00
; #@! TF.GenerationSoftware,Kicad,Pcbnew,(5.1.9)-1
; #@! TF.FileFunction,Plated,1,2,PTH
FMAT,2
METRIC
T1C0.750
T2C0.762
T3C0.800
T4C0.900
T5C1.000
%
G90
G05
T1
X27.432Y65.024
X28.702Y63.754
X29.972Y65.024
X33.274Y65.024
X34.544Y63.754
X35.814Y65.024
T2
X33.528Y17.152
X36.068Y17.152
X38.608Y17.152
X41.148Y17.152
X47.244Y17.272
X49.784Y17.272
X52.324Y17.272
X54.864Y17.272
X57.404Y17.272
T3
X9.398Y60.158
X9.398Y57.658
X15.494Y61.642
X15.494Y56.642
X15.494Y52.832
X15.494Y27.432
X18.034Y52.832
X18.034Y27.432
X20.066Y23.622
X20.066Y13.462
X20.574Y58.42
X20.574Y52.832
X20.574Y27.432
X23.114Y52.832
X23.114Y27.432
X23.114Y23.622
X23.114Y13.462
X25.654Y52.832
X25.654Y27.432
X26.162Y23.622
X26.162Y13.462
X28.194Y52.832
X28.194Y27.432
X30.734Y58.42
X30.734Y52.832
X30.734Y27.432
X32.766Y58.42
X33.274Y52.832
X33.274Y27.432
X35.814Y52.832
X35.814Y27.432
X38.354Y52.832
X38.354Y27.432
X40.894Y52.832
X40.894Y27.432
X42.926Y58.42
X43.434Y52.832
X43.434Y27.432
X45.974Y52.832
X45.974Y27.432
X48.514Y52.832
X48.514Y27.432
X51.054Y52.832
X51.054Y27.432
X51.054Y22.352
X61.214Y22.352
T4
X19.812Y6.858
X21.971Y6.858
X24.13Y6.858
X26.289Y6.858
T5
X22.352Y71.882
X24.892Y71.882
X27.432Y71.882
X29.972Y71.882
X33.528Y71.882
X36.068Y71.882
X38.608Y71.882
X41.148Y71.882
X61.722Y38.1
X61.722Y35.56
X61.722Y33.02
X61.976Y51.816
X61.976Y49.276
X61.976Y46.736
T5
G00X8.986Y71.104
M15
G01X8.986Y69.104
M16
G05
G00X10.986Y65.404
M15
G01X12.986Y65.404
M16
G05
G00X14.986Y71.104
M15
G01X14.986Y69.104
M16
G05
T0
M30
