%TF.GenerationSoftware,KiCad,Pcbnew,(5.1.9)-1*%
%TF.CreationDate,2021-07-15T08:49:35+03:00*%
%TF.ProjectId,SmartAirExchanger,536d6172-7441-4697-9245-786368616e67,rev?*%
%TF.SameCoordinates,PX6d01460PY68290a0*%
%TF.FileFunction,Soldermask,Top*%
%TF.FilePolarity,Negative*%
%FSLAX46Y46*%
G04 Gerber Fmt 4.6, Leading zero omitted, Abs format (unit mm)*
G04 Created by KiCad (PCBNEW (5.1.9)-1) date 2021-07-15 08:49:35*
%MOMM*%
%LPD*%
G01*
G04 APERTURE LIST*
%ADD10C,1.524000*%
%ADD11C,1.600000*%
%ADD12R,1.600000X1.600000*%
%ADD13R,3.500000X3.500000*%
%ADD14O,1.700000X1.700000*%
%ADD15R,1.700000X1.700000*%
%ADD16R,1.100000X1.800000*%
%ADD17O,1.600000X1.600000*%
%ADD18O,1.200000X2.000000*%
%ADD19R,1.524000X1.524000*%
%ADD20R,1.800000X1.800000*%
%ADD21C,1.800000*%
G04 APERTURE END LIST*
D10*
%TO.C,J2*%
X33528000Y17152000D03*
X36068000Y17152000D03*
X38608000Y17152000D03*
X41148000Y17152000D03*
%TD*%
D11*
%TO.C,C1*%
X15494000Y56642000D03*
X15494000Y61642000D03*
%TD*%
D12*
%TO.C,C2*%
X9398000Y57658000D03*
D11*
X9398000Y60158000D03*
%TD*%
D13*
%TO.C,J1*%
X14986000Y70104000D03*
G36*
G01*
X7486000Y69104000D02*
X7486000Y71104000D01*
G75*
G02*
X8236000Y71854000I750000J0D01*
G01*
X9736000Y71854000D01*
G75*
G02*
X10486000Y71104000I0J-750000D01*
G01*
X10486000Y69104000D01*
G75*
G02*
X9736000Y68354000I-750000J0D01*
G01*
X8236000Y68354000D01*
G75*
G02*
X7486000Y69104000I0J750000D01*
G01*
G37*
G36*
G01*
X10236000Y64529000D02*
X10236000Y66279000D01*
G75*
G02*
X11111000Y67154000I875000J0D01*
G01*
X12861000Y67154000D01*
G75*
G02*
X13736000Y66279000I0J-875000D01*
G01*
X13736000Y64529000D01*
G75*
G02*
X12861000Y63654000I-875000J0D01*
G01*
X11111000Y63654000D01*
G75*
G02*
X10236000Y64529000I0J875000D01*
G01*
G37*
%TD*%
D14*
%TO.C,J3*%
X61976000Y51816000D03*
X61976000Y49276000D03*
D15*
X61976000Y46736000D03*
%TD*%
%TO.C,J4*%
X61722000Y33020000D03*
D14*
X61722000Y35560000D03*
X61722000Y38100000D03*
%TD*%
%TO.C,Q1*%
G36*
G01*
X29252000Y63979000D02*
X29252000Y62729000D01*
G75*
G02*
X28977000Y62454000I-275000J0D01*
G01*
X28427000Y62454000D01*
G75*
G02*
X28152000Y62729000I0J275000D01*
G01*
X28152000Y63979000D01*
G75*
G02*
X28427000Y64254000I275000J0D01*
G01*
X28977000Y64254000D01*
G75*
G02*
X29252000Y63979000I0J-275000D01*
G01*
G37*
G36*
G01*
X27982000Y66049000D02*
X27982000Y64799000D01*
G75*
G02*
X27707000Y64524000I-275000J0D01*
G01*
X27157000Y64524000D01*
G75*
G02*
X26882000Y64799000I0J275000D01*
G01*
X26882000Y66049000D01*
G75*
G02*
X27157000Y66324000I275000J0D01*
G01*
X27707000Y66324000D01*
G75*
G02*
X27982000Y66049000I0J-275000D01*
G01*
G37*
D16*
X29972000Y65424000D03*
%TD*%
%TO.C,Q2*%
X35814000Y65424000D03*
G36*
G01*
X33824000Y66049000D02*
X33824000Y64799000D01*
G75*
G02*
X33549000Y64524000I-275000J0D01*
G01*
X32999000Y64524000D01*
G75*
G02*
X32724000Y64799000I0J275000D01*
G01*
X32724000Y66049000D01*
G75*
G02*
X32999000Y66324000I275000J0D01*
G01*
X33549000Y66324000D01*
G75*
G02*
X33824000Y66049000I0J-275000D01*
G01*
G37*
G36*
G01*
X35094000Y63979000D02*
X35094000Y62729000D01*
G75*
G02*
X34819000Y62454000I-275000J0D01*
G01*
X34269000Y62454000D01*
G75*
G02*
X33994000Y62729000I0J275000D01*
G01*
X33994000Y63979000D01*
G75*
G02*
X34269000Y64254000I275000J0D01*
G01*
X34819000Y64254000D01*
G75*
G02*
X35094000Y63979000I0J-275000D01*
G01*
G37*
%TD*%
D11*
%TO.C,R1*%
X30734000Y58420000D03*
D17*
X20574000Y58420000D03*
%TD*%
%TO.C,R2*%
X42926000Y58420000D03*
D11*
X32766000Y58420000D03*
%TD*%
%TO.C,R3*%
X61214000Y22352000D03*
D17*
X51054000Y22352000D03*
%TD*%
%TO.C,R4*%
X20066000Y23622000D03*
D11*
X20066000Y13462000D03*
%TD*%
%TO.C,R5*%
X23114000Y13462000D03*
D17*
X23114000Y23622000D03*
%TD*%
%TO.C,R6*%
X26162000Y23622000D03*
D11*
X26162000Y13462000D03*
%TD*%
D18*
%TO.C,U1*%
X25654000Y27432000D03*
X51054000Y27432000D03*
X51054000Y52832000D03*
X40894000Y27432000D03*
X23114000Y27432000D03*
X23114000Y52832000D03*
X20574000Y27432000D03*
X18034000Y52832000D03*
X30734000Y52832000D03*
X43434000Y52832000D03*
X28194000Y27432000D03*
X43434000Y27432000D03*
X18034000Y27432000D03*
X40894000Y52832000D03*
X35814000Y27432000D03*
X38354000Y52832000D03*
X38354000Y27432000D03*
X30734000Y27432000D03*
X48514000Y52832000D03*
X35814000Y52832000D03*
X45974000Y52832000D03*
X15494000Y52832000D03*
X33274000Y27432000D03*
X28194000Y52832000D03*
X45974000Y27432000D03*
X33274000Y52832000D03*
X48514000Y27432000D03*
X25654000Y52832000D03*
X20574000Y52832000D03*
X15494000Y27432000D03*
%TD*%
D14*
%TO.C,J6*%
X29972000Y71882000D03*
X27432000Y71882000D03*
X24892000Y71882000D03*
D15*
X22352000Y71882000D03*
%TD*%
%TO.C,J7*%
X33528000Y71882000D03*
D14*
X36068000Y71882000D03*
X38608000Y71882000D03*
X41148000Y71882000D03*
%TD*%
D19*
%TO.C,J5*%
X47244000Y17272000D03*
D10*
X49784000Y17272000D03*
X52324000Y17272000D03*
X54864000Y17272000D03*
X57404000Y17272000D03*
%TD*%
D20*
%TO.C,D1*%
X19812000Y6858000D03*
D21*
X21971000Y6858000D03*
X24130000Y6858000D03*
X26289000Y6858000D03*
%TD*%
M02*
