%TF.GenerationSoftware,KiCad,Pcbnew,(5.1.9)-1*%
%TF.CreationDate,2021-07-15T08:49:35+03:00*%
%TF.ProjectId,SmartAirExchanger,536d6172-7441-4697-9245-786368616e67,rev?*%
%TF.SameCoordinates,PX6d01460PY68290a0*%
%TF.FileFunction,Copper,L1,Top*%
%TF.FilePolarity,Positive*%
%FSLAX46Y46*%
G04 Gerber Fmt 4.6, Leading zero omitted, Abs format (unit mm)*
G04 Created by KiCad (PCBNEW (5.1.9)-1) date 2021-07-15 08:49:35*
%MOMM*%
%LPD*%
G01*
G04 APERTURE LIST*
%TA.AperFunction,ComponentPad*%
%ADD10C,1.524000*%
%TD*%
%TA.AperFunction,ComponentPad*%
%ADD11C,1.600000*%
%TD*%
%TA.AperFunction,ComponentPad*%
%ADD12R,1.600000X1.600000*%
%TD*%
%TA.AperFunction,ComponentPad*%
%ADD13R,3.500000X3.500000*%
%TD*%
%TA.AperFunction,ComponentPad*%
%ADD14O,1.700000X1.700000*%
%TD*%
%TA.AperFunction,ComponentPad*%
%ADD15R,1.700000X1.700000*%
%TD*%
%TA.AperFunction,ComponentPad*%
%ADD16R,1.100000X1.800000*%
%TD*%
%TA.AperFunction,ComponentPad*%
%ADD17O,1.600000X1.600000*%
%TD*%
%TA.AperFunction,ComponentPad*%
%ADD18O,1.200000X2.000000*%
%TD*%
%TA.AperFunction,ComponentPad*%
%ADD19R,1.524000X1.524000*%
%TD*%
%TA.AperFunction,ComponentPad*%
%ADD20R,1.800000X1.800000*%
%TD*%
%TA.AperFunction,ComponentPad*%
%ADD21C,1.800000*%
%TD*%
%TA.AperFunction,Conductor*%
%ADD22C,1.000000*%
%TD*%
%TA.AperFunction,Conductor*%
%ADD23C,0.254000*%
%TD*%
%TA.AperFunction,Conductor*%
%ADD24C,0.100000*%
%TD*%
G04 APERTURE END LIST*
D10*
%TO.P,J2,4*%
%TO.N,/SCL*%
X33528000Y17152000D03*
%TO.P,J2,3*%
%TO.N,/SDA*%
X36068000Y17152000D03*
%TO.P,J2,2*%
%TO.N,GND*%
X38608000Y17152000D03*
%TO.P,J2,1*%
%TO.N,+3V3*%
X41148000Y17152000D03*
%TD*%
D11*
%TO.P,C1,1*%
%TO.N,+12V*%
X15494000Y56642000D03*
%TO.P,C1,2*%
%TO.N,GND*%
X15494000Y61642000D03*
%TD*%
D12*
%TO.P,C2,1*%
%TO.N,+12V*%
X9398000Y57658000D03*
D11*
%TO.P,C2,2*%
%TO.N,GND*%
X9398000Y60158000D03*
%TD*%
D13*
%TO.P,J1,1*%
%TO.N,+12V*%
X14986000Y70104000D03*
%TO.P,J1,2*%
%TO.N,GND*%
%TA.AperFunction,ComponentPad*%
G36*
G01*
X7486000Y69104000D02*
X7486000Y71104000D01*
G75*
G02*
X8236000Y71854000I750000J0D01*
G01*
X9736000Y71854000D01*
G75*
G02*
X10486000Y71104000I0J-750000D01*
G01*
X10486000Y69104000D01*
G75*
G02*
X9736000Y68354000I-750000J0D01*
G01*
X8236000Y68354000D01*
G75*
G02*
X7486000Y69104000I0J750000D01*
G01*
G37*
%TD.AperFunction*%
%TO.P,J1,3*%
%TO.N,Net-(J1-Pad3)*%
%TA.AperFunction,ComponentPad*%
G36*
G01*
X10236000Y64529000D02*
X10236000Y66279000D01*
G75*
G02*
X11111000Y67154000I875000J0D01*
G01*
X12861000Y67154000D01*
G75*
G02*
X13736000Y66279000I0J-875000D01*
G01*
X13736000Y64529000D01*
G75*
G02*
X12861000Y63654000I-875000J0D01*
G01*
X11111000Y63654000D01*
G75*
G02*
X10236000Y64529000I0J875000D01*
G01*
G37*
%TD.AperFunction*%
%TD*%
D14*
%TO.P,J3,3*%
%TO.N,GND*%
X61976000Y51816000D03*
%TO.P,J3,2*%
%TO.N,Net-(J3-Pad2)*%
X61976000Y49276000D03*
D15*
%TO.P,J3,1*%
%TO.N,+3V3*%
X61976000Y46736000D03*
%TD*%
%TO.P,J4,1*%
%TO.N,+3V3*%
X61722000Y33020000D03*
D14*
%TO.P,J4,2*%
%TO.N,Net-(J3-Pad2)*%
X61722000Y35560000D03*
%TO.P,J4,3*%
%TO.N,GND*%
X61722000Y38100000D03*
%TD*%
%TO.P,Q1,2*%
%TO.N,Net-(Q1-Pad2)*%
%TA.AperFunction,ComponentPad*%
G36*
G01*
X29252000Y63979000D02*
X29252000Y62729000D01*
G75*
G02*
X28977000Y62454000I-275000J0D01*
G01*
X28427000Y62454000D01*
G75*
G02*
X28152000Y62729000I0J275000D01*
G01*
X28152000Y63979000D01*
G75*
G02*
X28427000Y64254000I275000J0D01*
G01*
X28977000Y64254000D01*
G75*
G02*
X29252000Y63979000I0J-275000D01*
G01*
G37*
%TD.AperFunction*%
%TO.P,Q1,3*%
%TO.N,GND*%
%TA.AperFunction,ComponentPad*%
G36*
G01*
X27982000Y66049000D02*
X27982000Y64799000D01*
G75*
G02*
X27707000Y64524000I-275000J0D01*
G01*
X27157000Y64524000D01*
G75*
G02*
X26882000Y64799000I0J275000D01*
G01*
X26882000Y66049000D01*
G75*
G02*
X27157000Y66324000I275000J0D01*
G01*
X27707000Y66324000D01*
G75*
G02*
X27982000Y66049000I0J-275000D01*
G01*
G37*
%TD.AperFunction*%
D16*
%TO.P,Q1,1*%
%TO.N,Net-(J6-Pad4)*%
X29972000Y65424000D03*
%TD*%
%TO.P,Q2,1*%
%TO.N,Net-(J7-Pad4)*%
X35814000Y65424000D03*
%TO.P,Q2,3*%
%TO.N,GND*%
%TA.AperFunction,ComponentPad*%
G36*
G01*
X33824000Y66049000D02*
X33824000Y64799000D01*
G75*
G02*
X33549000Y64524000I-275000J0D01*
G01*
X32999000Y64524000D01*
G75*
G02*
X32724000Y64799000I0J275000D01*
G01*
X32724000Y66049000D01*
G75*
G02*
X32999000Y66324000I275000J0D01*
G01*
X33549000Y66324000D01*
G75*
G02*
X33824000Y66049000I0J-275000D01*
G01*
G37*
%TD.AperFunction*%
%TO.P,Q2,2*%
%TO.N,Net-(Q2-Pad2)*%
%TA.AperFunction,ComponentPad*%
G36*
G01*
X35094000Y63979000D02*
X35094000Y62729000D01*
G75*
G02*
X34819000Y62454000I-275000J0D01*
G01*
X34269000Y62454000D01*
G75*
G02*
X33994000Y62729000I0J275000D01*
G01*
X33994000Y63979000D01*
G75*
G02*
X34269000Y64254000I275000J0D01*
G01*
X34819000Y64254000D01*
G75*
G02*
X35094000Y63979000I0J-275000D01*
G01*
G37*
%TD.AperFunction*%
%TD*%
D11*
%TO.P,R1,1*%
%TO.N,Net-(Q1-Pad2)*%
X30734000Y58420000D03*
D17*
%TO.P,R1,2*%
%TO.N,Net-(R1-Pad2)*%
X20574000Y58420000D03*
%TD*%
%TO.P,R2,2*%
%TO.N,Net-(R2-Pad2)*%
X42926000Y58420000D03*
D11*
%TO.P,R2,1*%
%TO.N,Net-(Q2-Pad2)*%
X32766000Y58420000D03*
%TD*%
%TO.P,R3,1*%
%TO.N,+3V3*%
X61214000Y22352000D03*
D17*
%TO.P,R3,2*%
%TO.N,Net-(J3-Pad2)*%
X51054000Y22352000D03*
%TD*%
%TO.P,R4,2*%
%TO.N,Net-(R4-Pad2)*%
X20066000Y23622000D03*
D11*
%TO.P,R4,1*%
%TO.N,Net-(D1-Pad1)*%
X20066000Y13462000D03*
%TD*%
%TO.P,R5,1*%
%TO.N,Net-(D1-Pad3)*%
X23114000Y13462000D03*
D17*
%TO.P,R5,2*%
%TO.N,Net-(R5-Pad2)*%
X23114000Y23622000D03*
%TD*%
%TO.P,R6,2*%
%TO.N,Net-(R6-Pad2)*%
X26162000Y23622000D03*
D11*
%TO.P,R6,1*%
%TO.N,Net-(D1-Pad4)*%
X26162000Y13462000D03*
%TD*%
D18*
%TO.P,U1,5*%
%TO.N,Net-(R6-Pad2)*%
X25654000Y27432000D03*
%TO.P,U1,15*%
%TO.N,Net-(J3-Pad2)*%
X51054000Y27432000D03*
%TO.P,U1,16*%
%TO.N,Net-(U1-Pad16)*%
X51054000Y52832000D03*
%TO.P,U1,11*%
%TO.N,/SCL*%
X40894000Y27432000D03*
%TO.P,U1,4*%
%TO.N,Net-(R5-Pad2)*%
X23114000Y27432000D03*
%TO.P,U1,27*%
%TO.N,Net-(J6-Pad3)*%
X23114000Y52832000D03*
%TO.P,U1,3*%
%TO.N,Net-(R4-Pad2)*%
X20574000Y27432000D03*
%TO.P,U1,29*%
%TO.N,GND*%
X18034000Y52832000D03*
%TO.P,U1,24*%
%TO.N,Net-(U1-Pad24)*%
X30734000Y52832000D03*
%TO.P,U1,19*%
%TO.N,Net-(U1-Pad19)*%
X43434000Y52832000D03*
%TO.P,U1,6*%
%TO.N,Net-(U1-Pad6)*%
X28194000Y27432000D03*
%TO.P,U1,12*%
%TO.N,Net-(U1-Pad12)*%
X43434000Y27432000D03*
%TO.P,U1,2*%
%TO.N,GND*%
X18034000Y27432000D03*
%TO.P,U1,20*%
%TO.N,Net-(U1-Pad20)*%
X40894000Y52832000D03*
%TO.P,U1,9*%
%TO.N,Net-(U1-Pad9)*%
X35814000Y27432000D03*
%TO.P,U1,21*%
%TO.N,Net-(U1-Pad21)*%
X38354000Y52832000D03*
%TO.P,U1,10*%
%TO.N,Net-(U1-Pad10)*%
X38354000Y27432000D03*
%TO.P,U1,7*%
%TO.N,Net-(U1-Pad7)*%
X30734000Y27432000D03*
%TO.P,U1,17*%
%TO.N,Net-(U1-Pad17)*%
X48514000Y52832000D03*
%TO.P,U1,22*%
%TO.N,Net-(U1-Pad22)*%
X35814000Y52832000D03*
%TO.P,U1,18*%
%TO.N,Net-(U1-Pad18)*%
X45974000Y52832000D03*
%TO.P,U1,30*%
%TO.N,+12V*%
X15494000Y52832000D03*
%TO.P,U1,8*%
%TO.N,Net-(U1-Pad8)*%
X33274000Y27432000D03*
%TO.P,U1,25*%
%TO.N,Net-(J7-Pad3)*%
X28194000Y52832000D03*
%TO.P,U1,13*%
%TO.N,Net-(U1-Pad13)*%
X45974000Y27432000D03*
%TO.P,U1,23*%
%TO.N,Net-(U1-Pad23)*%
X33274000Y52832000D03*
%TO.P,U1,14*%
%TO.N,/SDA*%
X48514000Y27432000D03*
%TO.P,U1,26*%
%TO.N,Net-(R2-Pad2)*%
X25654000Y52832000D03*
%TO.P,U1,28*%
%TO.N,Net-(R1-Pad2)*%
X20574000Y52832000D03*
%TO.P,U1,1*%
%TO.N,+3V3*%
X15494000Y27432000D03*
%TD*%
D14*
%TO.P,J6,4*%
%TO.N,Net-(J6-Pad4)*%
X29972000Y71882000D03*
%TO.P,J6,3*%
%TO.N,Net-(J6-Pad3)*%
X27432000Y71882000D03*
%TO.P,J6,2*%
%TO.N,+12V*%
X24892000Y71882000D03*
D15*
%TO.P,J6,1*%
%TO.N,GND*%
X22352000Y71882000D03*
%TD*%
%TO.P,J7,1*%
%TO.N,GND*%
X33528000Y71882000D03*
D14*
%TO.P,J7,2*%
%TO.N,+12V*%
X36068000Y71882000D03*
%TO.P,J7,3*%
%TO.N,Net-(J7-Pad3)*%
X38608000Y71882000D03*
%TO.P,J7,4*%
%TO.N,Net-(J7-Pad4)*%
X41148000Y71882000D03*
%TD*%
D19*
%TO.P,J5,1*%
%TO.N,+3V3*%
X47244000Y17272000D03*
D10*
%TO.P,J5,2*%
%TO.N,/SDA*%
X49784000Y17272000D03*
%TO.P,J5,3*%
%TO.N,/SCL*%
X52324000Y17272000D03*
%TO.P,J5,4*%
%TO.N,Net-(J5-Pad4)*%
X54864000Y17272000D03*
%TO.P,J5,5*%
%TO.N,GND*%
X57404000Y17272000D03*
%TD*%
D20*
%TO.P,D1,1*%
%TO.N,Net-(D1-Pad1)*%
X19812000Y6858000D03*
D21*
%TO.P,D1,2*%
%TO.N,+3V3*%
X21971000Y6858000D03*
%TO.P,D1,3*%
%TO.N,Net-(D1-Pad3)*%
X24130000Y6858000D03*
%TO.P,D1,4*%
%TO.N,Net-(D1-Pad4)*%
X26289000Y6858000D03*
%TD*%
D22*
%TO.N,+12V*%
X24892000Y70679919D02*
X24892000Y71882000D01*
X24316081Y70104000D02*
X24892000Y70679919D01*
X14986000Y70104000D02*
X24316081Y70104000D01*
X36068000Y72302002D02*
X36068000Y71882000D01*
X26442001Y73432001D02*
X34938001Y73432001D01*
X34938001Y73432001D02*
X36068000Y72302002D01*
X24892000Y71882000D02*
X26442001Y73432001D01*
X14986000Y63525998D02*
X9398000Y57937998D01*
X9398000Y57937998D02*
X9398000Y57658000D01*
X14986000Y70104000D02*
X14986000Y63525998D01*
%TO.N,GND*%
X28861999Y67024001D02*
X31273999Y67024001D01*
X27432000Y65594002D02*
X28861999Y67024001D01*
X31273999Y67024001D02*
X33274000Y65024000D01*
X27432000Y65024000D02*
X27432000Y65594002D01*
X61722000Y37854002D02*
X61722000Y38100000D01*
X57404000Y33536002D02*
X61722000Y37854002D01*
X57404000Y17272000D02*
X57404000Y33536002D01*
%TO.N,/SDA*%
X37650001Y18734001D02*
X36068000Y17152000D01*
X48321999Y18734001D02*
X37650001Y18734001D01*
X49784000Y17272000D02*
X48321999Y18734001D01*
%TO.N,/SCL*%
X36310012Y19934012D02*
X33528000Y17152000D01*
X49661988Y19934012D02*
X36310012Y19934012D01*
X52324000Y17272000D02*
X49661988Y19934012D01*
%TO.N,Net-(J7-Pad3)*%
X33486001Y56919999D02*
X38608000Y62041998D01*
X32583508Y56919999D02*
X33486001Y56919999D01*
X38608000Y62041998D02*
X38608000Y71882000D01*
X28495509Y52832000D02*
X32583508Y56919999D01*
X28194000Y52832000D02*
X28495509Y52832000D01*
%TD*%
D23*
%TO.N,+12V*%
X64618000Y660000D02*
X660000Y660000D01*
X660000Y7758000D01*
X18273928Y7758000D01*
X18273928Y5958000D01*
X18286188Y5833518D01*
X18322498Y5713820D01*
X18381463Y5603506D01*
X18460815Y5506815D01*
X18557506Y5427463D01*
X18667820Y5368498D01*
X18787518Y5332188D01*
X18912000Y5319928D01*
X20712000Y5319928D01*
X20836482Y5332188D01*
X20956180Y5368498D01*
X21066494Y5427463D01*
X21163185Y5506815D01*
X21186942Y5535763D01*
X21243905Y5497701D01*
X21523257Y5381989D01*
X21819816Y5323000D01*
X22122184Y5323000D01*
X22418743Y5381989D01*
X22698095Y5497701D01*
X22949505Y5665688D01*
X23050500Y5766683D01*
X23151495Y5665688D01*
X23402905Y5497701D01*
X23682257Y5381989D01*
X23978816Y5323000D01*
X24281184Y5323000D01*
X24577743Y5381989D01*
X24857095Y5497701D01*
X25108505Y5665688D01*
X25209500Y5766683D01*
X25310495Y5665688D01*
X25561905Y5497701D01*
X25841257Y5381989D01*
X26137816Y5323000D01*
X26440184Y5323000D01*
X26736743Y5381989D01*
X27016095Y5497701D01*
X27267505Y5665688D01*
X27481312Y5879495D01*
X27649299Y6130905D01*
X27765011Y6410257D01*
X27824000Y6706816D01*
X27824000Y7009184D01*
X27765011Y7305743D01*
X27649299Y7585095D01*
X27481312Y7836505D01*
X27267505Y8050312D01*
X27016095Y8218299D01*
X26736743Y8334011D01*
X26440184Y8393000D01*
X26137816Y8393000D01*
X25841257Y8334011D01*
X25561905Y8218299D01*
X25310495Y8050312D01*
X25209500Y7949317D01*
X25108505Y8050312D01*
X24857095Y8218299D01*
X24577743Y8334011D01*
X24281184Y8393000D01*
X23978816Y8393000D01*
X23682257Y8334011D01*
X23402905Y8218299D01*
X23151495Y8050312D01*
X23050500Y7949317D01*
X22949505Y8050312D01*
X22698095Y8218299D01*
X22418743Y8334011D01*
X22122184Y8393000D01*
X21819816Y8393000D01*
X21523257Y8334011D01*
X21243905Y8218299D01*
X21186942Y8180237D01*
X21163185Y8209185D01*
X21066494Y8288537D01*
X20956180Y8347502D01*
X20836482Y8383812D01*
X20712000Y8396072D01*
X18912000Y8396072D01*
X18787518Y8383812D01*
X18667820Y8347502D01*
X18557506Y8288537D01*
X18460815Y8209185D01*
X18381463Y8112494D01*
X18322498Y8002180D01*
X18286188Y7882482D01*
X18273928Y7758000D01*
X660000Y7758000D01*
X660000Y13603335D01*
X18631000Y13603335D01*
X18631000Y13320665D01*
X18686147Y13043426D01*
X18794320Y12782273D01*
X18951363Y12547241D01*
X19151241Y12347363D01*
X19386273Y12190320D01*
X19647426Y12082147D01*
X19924665Y12027000D01*
X20207335Y12027000D01*
X20484574Y12082147D01*
X20745727Y12190320D01*
X20980759Y12347363D01*
X21180637Y12547241D01*
X21337680Y12782273D01*
X21445853Y13043426D01*
X21501000Y13320665D01*
X21501000Y13603335D01*
X21679000Y13603335D01*
X21679000Y13320665D01*
X21734147Y13043426D01*
X21842320Y12782273D01*
X21999363Y12547241D01*
X22199241Y12347363D01*
X22434273Y12190320D01*
X22695426Y12082147D01*
X22972665Y12027000D01*
X23255335Y12027000D01*
X23532574Y12082147D01*
X23793727Y12190320D01*
X24028759Y12347363D01*
X24228637Y12547241D01*
X24385680Y12782273D01*
X24493853Y13043426D01*
X24549000Y13320665D01*
X24549000Y13603335D01*
X24727000Y13603335D01*
X24727000Y13320665D01*
X24782147Y13043426D01*
X24890320Y12782273D01*
X25047363Y12547241D01*
X25247241Y12347363D01*
X25482273Y12190320D01*
X25743426Y12082147D01*
X26020665Y12027000D01*
X26303335Y12027000D01*
X26580574Y12082147D01*
X26841727Y12190320D01*
X27076759Y12347363D01*
X27276637Y12547241D01*
X27433680Y12782273D01*
X27541853Y13043426D01*
X27597000Y13320665D01*
X27597000Y13603335D01*
X27541853Y13880574D01*
X27433680Y14141727D01*
X27276637Y14376759D01*
X27076759Y14576637D01*
X26841727Y14733680D01*
X26580574Y14841853D01*
X26303335Y14897000D01*
X26020665Y14897000D01*
X25743426Y14841853D01*
X25482273Y14733680D01*
X25247241Y14576637D01*
X25047363Y14376759D01*
X24890320Y14141727D01*
X24782147Y13880574D01*
X24727000Y13603335D01*
X24549000Y13603335D01*
X24493853Y13880574D01*
X24385680Y14141727D01*
X24228637Y14376759D01*
X24028759Y14576637D01*
X23793727Y14733680D01*
X23532574Y14841853D01*
X23255335Y14897000D01*
X22972665Y14897000D01*
X22695426Y14841853D01*
X22434273Y14733680D01*
X22199241Y14576637D01*
X21999363Y14376759D01*
X21842320Y14141727D01*
X21734147Y13880574D01*
X21679000Y13603335D01*
X21501000Y13603335D01*
X21445853Y13880574D01*
X21337680Y14141727D01*
X21180637Y14376759D01*
X20980759Y14576637D01*
X20745727Y14733680D01*
X20484574Y14841853D01*
X20207335Y14897000D01*
X19924665Y14897000D01*
X19647426Y14841853D01*
X19386273Y14733680D01*
X19151241Y14576637D01*
X18951363Y14376759D01*
X18794320Y14141727D01*
X18686147Y13880574D01*
X18631000Y13603335D01*
X660000Y13603335D01*
X660000Y17289592D01*
X32131000Y17289592D01*
X32131000Y17014408D01*
X32184686Y16744510D01*
X32289995Y16490273D01*
X32442880Y16261465D01*
X32637465Y16066880D01*
X32866273Y15913995D01*
X33120510Y15808686D01*
X33390408Y15755000D01*
X33665592Y15755000D01*
X33935490Y15808686D01*
X34189727Y15913995D01*
X34418535Y16066880D01*
X34613120Y16261465D01*
X34766005Y16490273D01*
X34798000Y16567515D01*
X34829995Y16490273D01*
X34982880Y16261465D01*
X35177465Y16066880D01*
X35406273Y15913995D01*
X35660510Y15808686D01*
X35930408Y15755000D01*
X36205592Y15755000D01*
X36475490Y15808686D01*
X36729727Y15913995D01*
X36958535Y16066880D01*
X37153120Y16261465D01*
X37306005Y16490273D01*
X37338000Y16567515D01*
X37369995Y16490273D01*
X37522880Y16261465D01*
X37717465Y16066880D01*
X37946273Y15913995D01*
X38200510Y15808686D01*
X38470408Y15755000D01*
X38745592Y15755000D01*
X39015490Y15808686D01*
X39269727Y15913995D01*
X39498535Y16066880D01*
X39693120Y16261465D01*
X39846005Y16490273D01*
X39878000Y16567515D01*
X39909995Y16490273D01*
X40062880Y16261465D01*
X40257465Y16066880D01*
X40486273Y15913995D01*
X40740510Y15808686D01*
X41010408Y15755000D01*
X41285592Y15755000D01*
X41555490Y15808686D01*
X41809727Y15913995D01*
X42038535Y16066880D01*
X42233120Y16261465D01*
X42386005Y16490273D01*
X42491314Y16744510D01*
X42545000Y17014408D01*
X42545000Y17289592D01*
X42491314Y17559490D01*
X42474948Y17599001D01*
X45843928Y17599001D01*
X45843928Y16510000D01*
X45856188Y16385518D01*
X45892498Y16265820D01*
X45951463Y16155506D01*
X46030815Y16058815D01*
X46127506Y15979463D01*
X46237820Y15920498D01*
X46357518Y15884188D01*
X46482000Y15871928D01*
X48006000Y15871928D01*
X48130482Y15884188D01*
X48250180Y15920498D01*
X48360494Y15979463D01*
X48457185Y16058815D01*
X48536537Y16155506D01*
X48595502Y16265820D01*
X48631812Y16385518D01*
X48640080Y16469465D01*
X48698880Y16381465D01*
X48893465Y16186880D01*
X49122273Y16033995D01*
X49376510Y15928686D01*
X49646408Y15875000D01*
X49921592Y15875000D01*
X50191490Y15928686D01*
X50445727Y16033995D01*
X50674535Y16186880D01*
X50869120Y16381465D01*
X51022005Y16610273D01*
X51054000Y16687515D01*
X51085995Y16610273D01*
X51238880Y16381465D01*
X51433465Y16186880D01*
X51662273Y16033995D01*
X51916510Y15928686D01*
X52186408Y15875000D01*
X52461592Y15875000D01*
X52731490Y15928686D01*
X52985727Y16033995D01*
X53214535Y16186880D01*
X53409120Y16381465D01*
X53562005Y16610273D01*
X53594000Y16687515D01*
X53625995Y16610273D01*
X53778880Y16381465D01*
X53973465Y16186880D01*
X54202273Y16033995D01*
X54456510Y15928686D01*
X54726408Y15875000D01*
X55001592Y15875000D01*
X55271490Y15928686D01*
X55525727Y16033995D01*
X55754535Y16186880D01*
X55949120Y16381465D01*
X56102005Y16610273D01*
X56134000Y16687515D01*
X56165995Y16610273D01*
X56318880Y16381465D01*
X56513465Y16186880D01*
X56742273Y16033995D01*
X56996510Y15928686D01*
X57266408Y15875000D01*
X57541592Y15875000D01*
X57811490Y15928686D01*
X58065727Y16033995D01*
X58294535Y16186880D01*
X58489120Y16381465D01*
X58642005Y16610273D01*
X58747314Y16864510D01*
X58801000Y17134408D01*
X58801000Y17409592D01*
X58747314Y17679490D01*
X58642005Y17933727D01*
X58539000Y18087884D01*
X58539000Y22493335D01*
X59779000Y22493335D01*
X59779000Y22210665D01*
X59834147Y21933426D01*
X59942320Y21672273D01*
X60099363Y21437241D01*
X60299241Y21237363D01*
X60534273Y21080320D01*
X60795426Y20972147D01*
X61072665Y20917000D01*
X61355335Y20917000D01*
X61632574Y20972147D01*
X61893727Y21080320D01*
X62128759Y21237363D01*
X62328637Y21437241D01*
X62485680Y21672273D01*
X62593853Y21933426D01*
X62649000Y22210665D01*
X62649000Y22493335D01*
X62593853Y22770574D01*
X62485680Y23031727D01*
X62328637Y23266759D01*
X62128759Y23466637D01*
X61893727Y23623680D01*
X61632574Y23731853D01*
X61355335Y23787000D01*
X61072665Y23787000D01*
X60795426Y23731853D01*
X60534273Y23623680D01*
X60299241Y23466637D01*
X60099363Y23266759D01*
X59942320Y23031727D01*
X59834147Y22770574D01*
X59779000Y22493335D01*
X58539000Y22493335D01*
X58539000Y33065871D01*
X60383665Y34910535D01*
X60406010Y34856589D01*
X60568525Y34613368D01*
X60700380Y34481513D01*
X60627820Y34459502D01*
X60517506Y34400537D01*
X60420815Y34321185D01*
X60341463Y34224494D01*
X60282498Y34114180D01*
X60246188Y33994482D01*
X60233928Y33870000D01*
X60233928Y32170000D01*
X60246188Y32045518D01*
X60282498Y31925820D01*
X60341463Y31815506D01*
X60420815Y31718815D01*
X60517506Y31639463D01*
X60627820Y31580498D01*
X60747518Y31544188D01*
X60872000Y31531928D01*
X62572000Y31531928D01*
X62696482Y31544188D01*
X62816180Y31580498D01*
X62926494Y31639463D01*
X63023185Y31718815D01*
X63102537Y31815506D01*
X63161502Y31925820D01*
X63197812Y32045518D01*
X63210072Y32170000D01*
X63210072Y33870000D01*
X63197812Y33994482D01*
X63161502Y34114180D01*
X63102537Y34224494D01*
X63023185Y34321185D01*
X62926494Y34400537D01*
X62816180Y34459502D01*
X62743620Y34481513D01*
X62875475Y34613368D01*
X63037990Y34856589D01*
X63149932Y35126842D01*
X63207000Y35413740D01*
X63207000Y35706260D01*
X63149932Y35993158D01*
X63037990Y36263411D01*
X62875475Y36506632D01*
X62668632Y36713475D01*
X62494240Y36830000D01*
X62668632Y36946525D01*
X62875475Y37153368D01*
X63037990Y37396589D01*
X63149932Y37666842D01*
X63207000Y37953740D01*
X63207000Y38246260D01*
X63149932Y38533158D01*
X63037990Y38803411D01*
X62875475Y39046632D01*
X62668632Y39253475D01*
X62425411Y39415990D01*
X62155158Y39527932D01*
X61868260Y39585000D01*
X61575740Y39585000D01*
X61288842Y39527932D01*
X61018589Y39415990D01*
X60775368Y39253475D01*
X60568525Y39046632D01*
X60406010Y38803411D01*
X60294068Y38533158D01*
X60237000Y38246260D01*
X60237000Y37974134D01*
X56640860Y34377993D01*
X56597552Y34342451D01*
X56455717Y34169625D01*
X56435643Y34132068D01*
X56350324Y33972448D01*
X56285423Y33758500D01*
X56263509Y33536002D01*
X56269001Y33480241D01*
X56269000Y18087885D01*
X56165995Y17933727D01*
X56134000Y17856485D01*
X56102005Y17933727D01*
X55949120Y18162535D01*
X55754535Y18357120D01*
X55525727Y18510005D01*
X55271490Y18615314D01*
X55001592Y18669000D01*
X54726408Y18669000D01*
X54456510Y18615314D01*
X54202273Y18510005D01*
X53973465Y18357120D01*
X53778880Y18162535D01*
X53625995Y17933727D01*
X53594000Y17856485D01*
X53562005Y17933727D01*
X53409120Y18162535D01*
X53214535Y18357120D01*
X52985727Y18510005D01*
X52731490Y18615314D01*
X52549647Y18651485D01*
X50503984Y20697147D01*
X50468437Y20740461D01*
X50295611Y20882296D01*
X50098435Y20987688D01*
X49884487Y21052589D01*
X49717740Y21069012D01*
X49717739Y21069012D01*
X49661988Y21074503D01*
X49606237Y21069012D01*
X36365763Y21069012D01*
X36310011Y21074503D01*
X36254260Y21069012D01*
X36087513Y21052589D01*
X35873565Y20987688D01*
X35676389Y20882296D01*
X35503563Y20740461D01*
X35468021Y20697153D01*
X33302354Y18531485D01*
X33120510Y18495314D01*
X32866273Y18390005D01*
X32637465Y18237120D01*
X32442880Y18042535D01*
X32289995Y17813727D01*
X32184686Y17559490D01*
X32131000Y17289592D01*
X660000Y17289592D01*
X660000Y23763335D01*
X18631000Y23763335D01*
X18631000Y23480665D01*
X18686147Y23203426D01*
X18794320Y22942273D01*
X18951363Y22707241D01*
X19151241Y22507363D01*
X19386273Y22350320D01*
X19647426Y22242147D01*
X19924665Y22187000D01*
X20207335Y22187000D01*
X20484574Y22242147D01*
X20745727Y22350320D01*
X20980759Y22507363D01*
X21180637Y22707241D01*
X21337680Y22942273D01*
X21445853Y23203426D01*
X21501000Y23480665D01*
X21501000Y23763335D01*
X21679000Y23763335D01*
X21679000Y23480665D01*
X21734147Y23203426D01*
X21842320Y22942273D01*
X21999363Y22707241D01*
X22199241Y22507363D01*
X22434273Y22350320D01*
X22695426Y22242147D01*
X22972665Y22187000D01*
X23255335Y22187000D01*
X23532574Y22242147D01*
X23793727Y22350320D01*
X24028759Y22507363D01*
X24228637Y22707241D01*
X24385680Y22942273D01*
X24493853Y23203426D01*
X24549000Y23480665D01*
X24549000Y23763335D01*
X24727000Y23763335D01*
X24727000Y23480665D01*
X24782147Y23203426D01*
X24890320Y22942273D01*
X25047363Y22707241D01*
X25247241Y22507363D01*
X25482273Y22350320D01*
X25743426Y22242147D01*
X26020665Y22187000D01*
X26303335Y22187000D01*
X26580574Y22242147D01*
X26841727Y22350320D01*
X27055764Y22493335D01*
X49619000Y22493335D01*
X49619000Y22210665D01*
X49674147Y21933426D01*
X49782320Y21672273D01*
X49939363Y21437241D01*
X50139241Y21237363D01*
X50374273Y21080320D01*
X50635426Y20972147D01*
X50912665Y20917000D01*
X51195335Y20917000D01*
X51472574Y20972147D01*
X51733727Y21080320D01*
X51968759Y21237363D01*
X52168637Y21437241D01*
X52325680Y21672273D01*
X52433853Y21933426D01*
X52489000Y22210665D01*
X52489000Y22493335D01*
X52433853Y22770574D01*
X52325680Y23031727D01*
X52168637Y23266759D01*
X51968759Y23466637D01*
X51733727Y23623680D01*
X51472574Y23731853D01*
X51195335Y23787000D01*
X50912665Y23787000D01*
X50635426Y23731853D01*
X50374273Y23623680D01*
X50139241Y23466637D01*
X49939363Y23266759D01*
X49782320Y23031727D01*
X49674147Y22770574D01*
X49619000Y22493335D01*
X27055764Y22493335D01*
X27076759Y22507363D01*
X27276637Y22707241D01*
X27433680Y22942273D01*
X27541853Y23203426D01*
X27597000Y23480665D01*
X27597000Y23763335D01*
X27541853Y24040574D01*
X27433680Y24301727D01*
X27276637Y24536759D01*
X27076759Y24736637D01*
X26841727Y24893680D01*
X26580574Y25001853D01*
X26303335Y25057000D01*
X26020665Y25057000D01*
X25743426Y25001853D01*
X25482273Y24893680D01*
X25247241Y24736637D01*
X25047363Y24536759D01*
X24890320Y24301727D01*
X24782147Y24040574D01*
X24727000Y23763335D01*
X24549000Y23763335D01*
X24493853Y24040574D01*
X24385680Y24301727D01*
X24228637Y24536759D01*
X24028759Y24736637D01*
X23793727Y24893680D01*
X23532574Y25001853D01*
X23255335Y25057000D01*
X22972665Y25057000D01*
X22695426Y25001853D01*
X22434273Y24893680D01*
X22199241Y24736637D01*
X21999363Y24536759D01*
X21842320Y24301727D01*
X21734147Y24040574D01*
X21679000Y23763335D01*
X21501000Y23763335D01*
X21445853Y24040574D01*
X21337680Y24301727D01*
X21180637Y24536759D01*
X20980759Y24736637D01*
X20745727Y24893680D01*
X20484574Y25001853D01*
X20207335Y25057000D01*
X19924665Y25057000D01*
X19647426Y25001853D01*
X19386273Y24893680D01*
X19151241Y24736637D01*
X18951363Y24536759D01*
X18794320Y24301727D01*
X18686147Y24040574D01*
X18631000Y23763335D01*
X660000Y23763335D01*
X660000Y27892664D01*
X14259000Y27892664D01*
X14259000Y26971335D01*
X14276870Y26789898D01*
X14347489Y26557099D01*
X14462168Y26342551D01*
X14616499Y26154498D01*
X14804552Y26000167D01*
X15019100Y25885489D01*
X15251899Y25814870D01*
X15494000Y25791025D01*
X15736102Y25814870D01*
X15968901Y25885489D01*
X16183449Y26000167D01*
X16371502Y26154498D01*
X16525833Y26342551D01*
X16640511Y26557099D01*
X16711130Y26789899D01*
X16729000Y26971336D01*
X16729000Y27892664D01*
X16799000Y27892664D01*
X16799000Y26971335D01*
X16816870Y26789898D01*
X16887489Y26557099D01*
X17002168Y26342551D01*
X17156499Y26154498D01*
X17344552Y26000167D01*
X17559100Y25885489D01*
X17791899Y25814870D01*
X18034000Y25791025D01*
X18276102Y25814870D01*
X18508901Y25885489D01*
X18723449Y26000167D01*
X18911502Y26154498D01*
X19065833Y26342551D01*
X19180511Y26557099D01*
X19251130Y26789899D01*
X19269000Y26971336D01*
X19269000Y27892664D01*
X19339000Y27892664D01*
X19339000Y26971335D01*
X19356870Y26789898D01*
X19427489Y26557099D01*
X19542168Y26342551D01*
X19696499Y26154498D01*
X19884552Y26000167D01*
X20099100Y25885489D01*
X20331899Y25814870D01*
X20574000Y25791025D01*
X20816102Y25814870D01*
X21048901Y25885489D01*
X21263449Y26000167D01*
X21451502Y26154498D01*
X21605833Y26342551D01*
X21720511Y26557099D01*
X21791130Y26789899D01*
X21809000Y26971336D01*
X21809000Y27892664D01*
X21879000Y27892664D01*
X21879000Y26971335D01*
X21896870Y26789898D01*
X21967489Y26557099D01*
X22082168Y26342551D01*
X22236499Y26154498D01*
X22424552Y26000167D01*
X22639100Y25885489D01*
X22871899Y25814870D01*
X23114000Y25791025D01*
X23356102Y25814870D01*
X23588901Y25885489D01*
X23803449Y26000167D01*
X23991502Y26154498D01*
X24145833Y26342551D01*
X24260511Y26557099D01*
X24331130Y26789899D01*
X24349000Y26971336D01*
X24349000Y27892664D01*
X24419000Y27892664D01*
X24419000Y26971335D01*
X24436870Y26789898D01*
X24507489Y26557099D01*
X24622168Y26342551D01*
X24776499Y26154498D01*
X24964552Y26000167D01*
X25179100Y25885489D01*
X25411899Y25814870D01*
X25654000Y25791025D01*
X25896102Y25814870D01*
X26128901Y25885489D01*
X26343449Y26000167D01*
X26531502Y26154498D01*
X26685833Y26342551D01*
X26800511Y26557099D01*
X26871130Y26789899D01*
X26889000Y26971336D01*
X26889000Y27892664D01*
X26959000Y27892664D01*
X26959000Y26971335D01*
X26976870Y26789898D01*
X27047489Y26557099D01*
X27162168Y26342551D01*
X27316499Y26154498D01*
X27504552Y26000167D01*
X27719100Y25885489D01*
X27951899Y25814870D01*
X28194000Y25791025D01*
X28436102Y25814870D01*
X28668901Y25885489D01*
X28883449Y26000167D01*
X29071502Y26154498D01*
X29225833Y26342551D01*
X29340511Y26557099D01*
X29411130Y26789899D01*
X29429000Y26971336D01*
X29429000Y27892664D01*
X29499000Y27892664D01*
X29499000Y26971335D01*
X29516870Y26789898D01*
X29587489Y26557099D01*
X29702168Y26342551D01*
X29856499Y26154498D01*
X30044552Y26000167D01*
X30259100Y25885489D01*
X30491899Y25814870D01*
X30734000Y25791025D01*
X30976102Y25814870D01*
X31208901Y25885489D01*
X31423449Y26000167D01*
X31611502Y26154498D01*
X31765833Y26342551D01*
X31880511Y26557099D01*
X31951130Y26789899D01*
X31969000Y26971336D01*
X31969000Y27892664D01*
X32039000Y27892664D01*
X32039000Y26971335D01*
X32056870Y26789898D01*
X32127489Y26557099D01*
X32242168Y26342551D01*
X32396499Y26154498D01*
X32584552Y26000167D01*
X32799100Y25885489D01*
X33031899Y25814870D01*
X33274000Y25791025D01*
X33516102Y25814870D01*
X33748901Y25885489D01*
X33963449Y26000167D01*
X34151502Y26154498D01*
X34305833Y26342551D01*
X34420511Y26557099D01*
X34491130Y26789899D01*
X34509000Y26971336D01*
X34509000Y27892664D01*
X34579000Y27892664D01*
X34579000Y26971335D01*
X34596870Y26789898D01*
X34667489Y26557099D01*
X34782168Y26342551D01*
X34936499Y26154498D01*
X35124552Y26000167D01*
X35339100Y25885489D01*
X35571899Y25814870D01*
X35814000Y25791025D01*
X36056102Y25814870D01*
X36288901Y25885489D01*
X36503449Y26000167D01*
X36691502Y26154498D01*
X36845833Y26342551D01*
X36960511Y26557099D01*
X37031130Y26789899D01*
X37049000Y26971336D01*
X37049000Y27892664D01*
X37119000Y27892664D01*
X37119000Y26971335D01*
X37136870Y26789898D01*
X37207489Y26557099D01*
X37322168Y26342551D01*
X37476499Y26154498D01*
X37664552Y26000167D01*
X37879100Y25885489D01*
X38111899Y25814870D01*
X38354000Y25791025D01*
X38596102Y25814870D01*
X38828901Y25885489D01*
X39043449Y26000167D01*
X39231502Y26154498D01*
X39385833Y26342551D01*
X39500511Y26557099D01*
X39571130Y26789899D01*
X39589000Y26971336D01*
X39589000Y27892664D01*
X39659000Y27892664D01*
X39659000Y26971335D01*
X39676870Y26789898D01*
X39747489Y26557099D01*
X39862168Y26342551D01*
X40016499Y26154498D01*
X40204552Y26000167D01*
X40419100Y25885489D01*
X40651899Y25814870D01*
X40894000Y25791025D01*
X41136102Y25814870D01*
X41368901Y25885489D01*
X41583449Y26000167D01*
X41771502Y26154498D01*
X41925833Y26342551D01*
X42040511Y26557099D01*
X42111130Y26789899D01*
X42129000Y26971336D01*
X42129000Y27892664D01*
X42199000Y27892664D01*
X42199000Y26971335D01*
X42216870Y26789898D01*
X42287489Y26557099D01*
X42402168Y26342551D01*
X42556499Y26154498D01*
X42744552Y26000167D01*
X42959100Y25885489D01*
X43191899Y25814870D01*
X43434000Y25791025D01*
X43676102Y25814870D01*
X43908901Y25885489D01*
X44123449Y26000167D01*
X44311502Y26154498D01*
X44465833Y26342551D01*
X44580511Y26557099D01*
X44651130Y26789899D01*
X44669000Y26971336D01*
X44669000Y27892664D01*
X44739000Y27892664D01*
X44739000Y26971335D01*
X44756870Y26789898D01*
X44827489Y26557099D01*
X44942168Y26342551D01*
X45096499Y26154498D01*
X45284552Y26000167D01*
X45499100Y25885489D01*
X45731899Y25814870D01*
X45974000Y25791025D01*
X46216102Y25814870D01*
X46448901Y25885489D01*
X46663449Y26000167D01*
X46851502Y26154498D01*
X47005833Y26342551D01*
X47120511Y26557099D01*
X47191130Y26789899D01*
X47209000Y26971336D01*
X47209000Y27892664D01*
X47279000Y27892664D01*
X47279000Y26971335D01*
X47296870Y26789898D01*
X47367489Y26557099D01*
X47482168Y26342551D01*
X47636499Y26154498D01*
X47824552Y26000167D01*
X48039100Y25885489D01*
X48271899Y25814870D01*
X48514000Y25791025D01*
X48756102Y25814870D01*
X48988901Y25885489D01*
X49203449Y26000167D01*
X49391502Y26154498D01*
X49545833Y26342551D01*
X49660511Y26557099D01*
X49731130Y26789899D01*
X49749000Y26971336D01*
X49749000Y27892664D01*
X49819000Y27892664D01*
X49819000Y26971335D01*
X49836870Y26789898D01*
X49907489Y26557099D01*
X50022168Y26342551D01*
X50176499Y26154498D01*
X50364552Y26000167D01*
X50579100Y25885489D01*
X50811899Y25814870D01*
X51054000Y25791025D01*
X51296102Y25814870D01*
X51528901Y25885489D01*
X51743449Y26000167D01*
X51931502Y26154498D01*
X52085833Y26342551D01*
X52200511Y26557099D01*
X52271130Y26789899D01*
X52289000Y26971336D01*
X52289000Y27892665D01*
X52271130Y28074102D01*
X52200511Y28306901D01*
X52085833Y28521449D01*
X51931502Y28709502D01*
X51743448Y28863833D01*
X51528900Y28978511D01*
X51296101Y29049130D01*
X51054000Y29072975D01*
X50811898Y29049130D01*
X50579099Y28978511D01*
X50364551Y28863833D01*
X50176498Y28709502D01*
X50022167Y28521448D01*
X49907489Y28306900D01*
X49836870Y28074101D01*
X49819000Y27892664D01*
X49749000Y27892664D01*
X49749000Y27892665D01*
X49731130Y28074102D01*
X49660511Y28306901D01*
X49545833Y28521449D01*
X49391502Y28709502D01*
X49203448Y28863833D01*
X48988900Y28978511D01*
X48756101Y29049130D01*
X48514000Y29072975D01*
X48271898Y29049130D01*
X48039099Y28978511D01*
X47824551Y28863833D01*
X47636498Y28709502D01*
X47482167Y28521448D01*
X47367489Y28306900D01*
X47296870Y28074101D01*
X47279000Y27892664D01*
X47209000Y27892664D01*
X47209000Y27892665D01*
X47191130Y28074102D01*
X47120511Y28306901D01*
X47005833Y28521449D01*
X46851502Y28709502D01*
X46663448Y28863833D01*
X46448900Y28978511D01*
X46216101Y29049130D01*
X45974000Y29072975D01*
X45731898Y29049130D01*
X45499099Y28978511D01*
X45284551Y28863833D01*
X45096498Y28709502D01*
X44942167Y28521448D01*
X44827489Y28306900D01*
X44756870Y28074101D01*
X44739000Y27892664D01*
X44669000Y27892664D01*
X44669000Y27892665D01*
X44651130Y28074102D01*
X44580511Y28306901D01*
X44465833Y28521449D01*
X44311502Y28709502D01*
X44123448Y28863833D01*
X43908900Y28978511D01*
X43676101Y29049130D01*
X43434000Y29072975D01*
X43191898Y29049130D01*
X42959099Y28978511D01*
X42744551Y28863833D01*
X42556498Y28709502D01*
X42402167Y28521448D01*
X42287489Y28306900D01*
X42216870Y28074101D01*
X42199000Y27892664D01*
X42129000Y27892664D01*
X42129000Y27892665D01*
X42111130Y28074102D01*
X42040511Y28306901D01*
X41925833Y28521449D01*
X41771502Y28709502D01*
X41583448Y28863833D01*
X41368900Y28978511D01*
X41136101Y29049130D01*
X40894000Y29072975D01*
X40651898Y29049130D01*
X40419099Y28978511D01*
X40204551Y28863833D01*
X40016498Y28709502D01*
X39862167Y28521448D01*
X39747489Y28306900D01*
X39676870Y28074101D01*
X39659000Y27892664D01*
X39589000Y27892664D01*
X39589000Y27892665D01*
X39571130Y28074102D01*
X39500511Y28306901D01*
X39385833Y28521449D01*
X39231502Y28709502D01*
X39043448Y28863833D01*
X38828900Y28978511D01*
X38596101Y29049130D01*
X38354000Y29072975D01*
X38111898Y29049130D01*
X37879099Y28978511D01*
X37664551Y28863833D01*
X37476498Y28709502D01*
X37322167Y28521448D01*
X37207489Y28306900D01*
X37136870Y28074101D01*
X37119000Y27892664D01*
X37049000Y27892664D01*
X37049000Y27892665D01*
X37031130Y28074102D01*
X36960511Y28306901D01*
X36845833Y28521449D01*
X36691502Y28709502D01*
X36503448Y28863833D01*
X36288900Y28978511D01*
X36056101Y29049130D01*
X35814000Y29072975D01*
X35571898Y29049130D01*
X35339099Y28978511D01*
X35124551Y28863833D01*
X34936498Y28709502D01*
X34782167Y28521448D01*
X34667489Y28306900D01*
X34596870Y28074101D01*
X34579000Y27892664D01*
X34509000Y27892664D01*
X34509000Y27892665D01*
X34491130Y28074102D01*
X34420511Y28306901D01*
X34305833Y28521449D01*
X34151502Y28709502D01*
X33963448Y28863833D01*
X33748900Y28978511D01*
X33516101Y29049130D01*
X33274000Y29072975D01*
X33031898Y29049130D01*
X32799099Y28978511D01*
X32584551Y28863833D01*
X32396498Y28709502D01*
X32242167Y28521448D01*
X32127489Y28306900D01*
X32056870Y28074101D01*
X32039000Y27892664D01*
X31969000Y27892664D01*
X31969000Y27892665D01*
X31951130Y28074102D01*
X31880511Y28306901D01*
X31765833Y28521449D01*
X31611502Y28709502D01*
X31423448Y28863833D01*
X31208900Y28978511D01*
X30976101Y29049130D01*
X30734000Y29072975D01*
X30491898Y29049130D01*
X30259099Y28978511D01*
X30044551Y28863833D01*
X29856498Y28709502D01*
X29702167Y28521448D01*
X29587489Y28306900D01*
X29516870Y28074101D01*
X29499000Y27892664D01*
X29429000Y27892664D01*
X29429000Y27892665D01*
X29411130Y28074102D01*
X29340511Y28306901D01*
X29225833Y28521449D01*
X29071502Y28709502D01*
X28883448Y28863833D01*
X28668900Y28978511D01*
X28436101Y29049130D01*
X28194000Y29072975D01*
X27951898Y29049130D01*
X27719099Y28978511D01*
X27504551Y28863833D01*
X27316498Y28709502D01*
X27162167Y28521448D01*
X27047489Y28306900D01*
X26976870Y28074101D01*
X26959000Y27892664D01*
X26889000Y27892664D01*
X26889000Y27892665D01*
X26871130Y28074102D01*
X26800511Y28306901D01*
X26685833Y28521449D01*
X26531502Y28709502D01*
X26343448Y28863833D01*
X26128900Y28978511D01*
X25896101Y29049130D01*
X25654000Y29072975D01*
X25411898Y29049130D01*
X25179099Y28978511D01*
X24964551Y28863833D01*
X24776498Y28709502D01*
X24622167Y28521448D01*
X24507489Y28306900D01*
X24436870Y28074101D01*
X24419000Y27892664D01*
X24349000Y27892664D01*
X24349000Y27892665D01*
X24331130Y28074102D01*
X24260511Y28306901D01*
X24145833Y28521449D01*
X23991502Y28709502D01*
X23803448Y28863833D01*
X23588900Y28978511D01*
X23356101Y29049130D01*
X23114000Y29072975D01*
X22871898Y29049130D01*
X22639099Y28978511D01*
X22424551Y28863833D01*
X22236498Y28709502D01*
X22082167Y28521448D01*
X21967489Y28306900D01*
X21896870Y28074101D01*
X21879000Y27892664D01*
X21809000Y27892664D01*
X21809000Y27892665D01*
X21791130Y28074102D01*
X21720511Y28306901D01*
X21605833Y28521449D01*
X21451502Y28709502D01*
X21263448Y28863833D01*
X21048900Y28978511D01*
X20816101Y29049130D01*
X20574000Y29072975D01*
X20331898Y29049130D01*
X20099099Y28978511D01*
X19884551Y28863833D01*
X19696498Y28709502D01*
X19542167Y28521448D01*
X19427489Y28306900D01*
X19356870Y28074101D01*
X19339000Y27892664D01*
X19269000Y27892664D01*
X19269000Y27892665D01*
X19251130Y28074102D01*
X19180511Y28306901D01*
X19065833Y28521449D01*
X18911502Y28709502D01*
X18723448Y28863833D01*
X18508900Y28978511D01*
X18276101Y29049130D01*
X18034000Y29072975D01*
X17791898Y29049130D01*
X17559099Y28978511D01*
X17344551Y28863833D01*
X17156498Y28709502D01*
X17002167Y28521448D01*
X16887489Y28306900D01*
X16816870Y28074101D01*
X16799000Y27892664D01*
X16729000Y27892664D01*
X16729000Y27892665D01*
X16711130Y28074102D01*
X16640511Y28306901D01*
X16525833Y28521449D01*
X16371502Y28709502D01*
X16183448Y28863833D01*
X15968900Y28978511D01*
X15736101Y29049130D01*
X15494000Y29072975D01*
X15251898Y29049130D01*
X15019099Y28978511D01*
X14804551Y28863833D01*
X14616498Y28709502D01*
X14462167Y28521448D01*
X14347489Y28306900D01*
X14276870Y28074101D01*
X14259000Y27892664D01*
X660000Y27892664D01*
X660000Y47586000D01*
X60487928Y47586000D01*
X60487928Y45886000D01*
X60500188Y45761518D01*
X60536498Y45641820D01*
X60595463Y45531506D01*
X60674815Y45434815D01*
X60771506Y45355463D01*
X60881820Y45296498D01*
X61001518Y45260188D01*
X61126000Y45247928D01*
X62826000Y45247928D01*
X62950482Y45260188D01*
X63070180Y45296498D01*
X63180494Y45355463D01*
X63277185Y45434815D01*
X63356537Y45531506D01*
X63415502Y45641820D01*
X63451812Y45761518D01*
X63464072Y45886000D01*
X63464072Y47586000D01*
X63451812Y47710482D01*
X63415502Y47830180D01*
X63356537Y47940494D01*
X63277185Y48037185D01*
X63180494Y48116537D01*
X63070180Y48175502D01*
X62997620Y48197513D01*
X63129475Y48329368D01*
X63291990Y48572589D01*
X63403932Y48842842D01*
X63461000Y49129740D01*
X63461000Y49422260D01*
X63403932Y49709158D01*
X63291990Y49979411D01*
X63129475Y50222632D01*
X62922632Y50429475D01*
X62748240Y50546000D01*
X62922632Y50662525D01*
X63129475Y50869368D01*
X63291990Y51112589D01*
X63403932Y51382842D01*
X63461000Y51669740D01*
X63461000Y51962260D01*
X63403932Y52249158D01*
X63291990Y52519411D01*
X63129475Y52762632D01*
X62922632Y52969475D01*
X62679411Y53131990D01*
X62409158Y53243932D01*
X62122260Y53301000D01*
X61829740Y53301000D01*
X61542842Y53243932D01*
X61272589Y53131990D01*
X61029368Y52969475D01*
X60822525Y52762632D01*
X60660010Y52519411D01*
X60548068Y52249158D01*
X60491000Y51962260D01*
X60491000Y51669740D01*
X60548068Y51382842D01*
X60660010Y51112589D01*
X60822525Y50869368D01*
X61029368Y50662525D01*
X61203760Y50546000D01*
X61029368Y50429475D01*
X60822525Y50222632D01*
X60660010Y49979411D01*
X60548068Y49709158D01*
X60491000Y49422260D01*
X60491000Y49129740D01*
X60548068Y48842842D01*
X60660010Y48572589D01*
X60822525Y48329368D01*
X60954380Y48197513D01*
X60881820Y48175502D01*
X60771506Y48116537D01*
X60674815Y48037185D01*
X60595463Y47940494D01*
X60536498Y47830180D01*
X60500188Y47710482D01*
X60487928Y47586000D01*
X660000Y47586000D01*
X660000Y52705000D01*
X14259000Y52705000D01*
X14259000Y52305000D01*
X14307507Y52066504D01*
X14401610Y51842054D01*
X14537693Y51640275D01*
X14710526Y51468922D01*
X14913467Y51334579D01*
X15138718Y51242409D01*
X15176391Y51238538D01*
X15367000Y51363269D01*
X15367000Y52705000D01*
X15621000Y52705000D01*
X15621000Y51363269D01*
X15811609Y51238538D01*
X15849282Y51242409D01*
X16074533Y51334579D01*
X16277474Y51468922D01*
X16450307Y51640275D01*
X16586390Y51842054D01*
X16680493Y52066504D01*
X16729000Y52305000D01*
X16729000Y52705000D01*
X15621000Y52705000D01*
X15367000Y52705000D01*
X14259000Y52705000D01*
X660000Y52705000D01*
X660000Y53359000D01*
X14259000Y53359000D01*
X14259000Y52959000D01*
X15367000Y52959000D01*
X15367000Y54300731D01*
X15621000Y54300731D01*
X15621000Y52959000D01*
X16729000Y52959000D01*
X16729000Y53292664D01*
X16799000Y53292664D01*
X16799000Y52371335D01*
X16816870Y52189898D01*
X16887489Y51957099D01*
X17002168Y51742551D01*
X17156499Y51554498D01*
X17344552Y51400167D01*
X17559100Y51285489D01*
X17791899Y51214870D01*
X18034000Y51191025D01*
X18276102Y51214870D01*
X18508901Y51285489D01*
X18723449Y51400167D01*
X18911502Y51554498D01*
X19065833Y51742551D01*
X19180511Y51957099D01*
X19251130Y52189899D01*
X19269000Y52371336D01*
X19269000Y53292664D01*
X19339000Y53292664D01*
X19339000Y52371335D01*
X19356870Y52189898D01*
X19427489Y51957099D01*
X19542168Y51742551D01*
X19696499Y51554498D01*
X19884552Y51400167D01*
X20099100Y51285489D01*
X20331899Y51214870D01*
X20574000Y51191025D01*
X20816102Y51214870D01*
X21048901Y51285489D01*
X21263449Y51400167D01*
X21451502Y51554498D01*
X21605833Y51742551D01*
X21720511Y51957099D01*
X21791130Y52189899D01*
X21809000Y52371336D01*
X21809000Y53292664D01*
X21879000Y53292664D01*
X21879000Y52371335D01*
X21896870Y52189898D01*
X21967489Y51957099D01*
X22082168Y51742551D01*
X22236499Y51554498D01*
X22424552Y51400167D01*
X22639100Y51285489D01*
X22871899Y51214870D01*
X23114000Y51191025D01*
X23356102Y51214870D01*
X23588901Y51285489D01*
X23803449Y51400167D01*
X23991502Y51554498D01*
X24145833Y51742551D01*
X24260511Y51957099D01*
X24331130Y52189899D01*
X24349000Y52371336D01*
X24349000Y53292664D01*
X24419000Y53292664D01*
X24419000Y52371335D01*
X24436870Y52189898D01*
X24507489Y51957099D01*
X24622168Y51742551D01*
X24776499Y51554498D01*
X24964552Y51400167D01*
X25179100Y51285489D01*
X25411899Y51214870D01*
X25654000Y51191025D01*
X25896102Y51214870D01*
X26128901Y51285489D01*
X26343449Y51400167D01*
X26531502Y51554498D01*
X26685833Y51742551D01*
X26800511Y51957099D01*
X26871130Y52189899D01*
X26889000Y52371336D01*
X26889000Y53292664D01*
X26959000Y53292664D01*
X26959000Y52371335D01*
X26976870Y52189898D01*
X27047489Y51957099D01*
X27162168Y51742551D01*
X27316499Y51554498D01*
X27504552Y51400167D01*
X27719100Y51285489D01*
X27951899Y51214870D01*
X28194000Y51191025D01*
X28436102Y51214870D01*
X28668901Y51285489D01*
X28883449Y51400167D01*
X29071502Y51554498D01*
X29225833Y51742551D01*
X29340511Y51957099D01*
X29390487Y52121846D01*
X29511640Y52243000D01*
X29516870Y52189898D01*
X29587489Y51957099D01*
X29702168Y51742551D01*
X29856499Y51554498D01*
X30044552Y51400167D01*
X30259100Y51285489D01*
X30491899Y51214870D01*
X30734000Y51191025D01*
X30976102Y51214870D01*
X31208901Y51285489D01*
X31423449Y51400167D01*
X31611502Y51554498D01*
X31765833Y51742551D01*
X31880511Y51957099D01*
X31951130Y52189899D01*
X31969000Y52371336D01*
X31969000Y53292664D01*
X32039000Y53292664D01*
X32039000Y52371335D01*
X32056870Y52189898D01*
X32127489Y51957099D01*
X32242168Y51742551D01*
X32396499Y51554498D01*
X32584552Y51400167D01*
X32799100Y51285489D01*
X33031899Y51214870D01*
X33274000Y51191025D01*
X33516102Y51214870D01*
X33748901Y51285489D01*
X33963449Y51400167D01*
X34151502Y51554498D01*
X34305833Y51742551D01*
X34420511Y51957099D01*
X34491130Y52189899D01*
X34509000Y52371336D01*
X34509000Y53292664D01*
X34579000Y53292664D01*
X34579000Y52371335D01*
X34596870Y52189898D01*
X34667489Y51957099D01*
X34782168Y51742551D01*
X34936499Y51554498D01*
X35124552Y51400167D01*
X35339100Y51285489D01*
X35571899Y51214870D01*
X35814000Y51191025D01*
X36056102Y51214870D01*
X36288901Y51285489D01*
X36503449Y51400167D01*
X36691502Y51554498D01*
X36845833Y51742551D01*
X36960511Y51957099D01*
X37031130Y52189899D01*
X37049000Y52371336D01*
X37049000Y53292664D01*
X37119000Y53292664D01*
X37119000Y52371335D01*
X37136870Y52189898D01*
X37207489Y51957099D01*
X37322168Y51742551D01*
X37476499Y51554498D01*
X37664552Y51400167D01*
X37879100Y51285489D01*
X38111899Y51214870D01*
X38354000Y51191025D01*
X38596102Y51214870D01*
X38828901Y51285489D01*
X39043449Y51400167D01*
X39231502Y51554498D01*
X39385833Y51742551D01*
X39500511Y51957099D01*
X39571130Y52189899D01*
X39589000Y52371336D01*
X39589000Y53292664D01*
X39659000Y53292664D01*
X39659000Y52371335D01*
X39676870Y52189898D01*
X39747489Y51957099D01*
X39862168Y51742551D01*
X40016499Y51554498D01*
X40204552Y51400167D01*
X40419100Y51285489D01*
X40651899Y51214870D01*
X40894000Y51191025D01*
X41136102Y51214870D01*
X41368901Y51285489D01*
X41583449Y51400167D01*
X41771502Y51554498D01*
X41925833Y51742551D01*
X42040511Y51957099D01*
X42111130Y52189899D01*
X42129000Y52371336D01*
X42129000Y53292664D01*
X42199000Y53292664D01*
X42199000Y52371335D01*
X42216870Y52189898D01*
X42287489Y51957099D01*
X42402168Y51742551D01*
X42556499Y51554498D01*
X42744552Y51400167D01*
X42959100Y51285489D01*
X43191899Y51214870D01*
X43434000Y51191025D01*
X43676102Y51214870D01*
X43908901Y51285489D01*
X44123449Y51400167D01*
X44311502Y51554498D01*
X44465833Y51742551D01*
X44580511Y51957099D01*
X44651130Y52189899D01*
X44669000Y52371336D01*
X44669000Y53292664D01*
X44739000Y53292664D01*
X44739000Y52371335D01*
X44756870Y52189898D01*
X44827489Y51957099D01*
X44942168Y51742551D01*
X45096499Y51554498D01*
X45284552Y51400167D01*
X45499100Y51285489D01*
X45731899Y51214870D01*
X45974000Y51191025D01*
X46216102Y51214870D01*
X46448901Y51285489D01*
X46663449Y51400167D01*
X46851502Y51554498D01*
X47005833Y51742551D01*
X47120511Y51957099D01*
X47191130Y52189899D01*
X47209000Y52371336D01*
X47209000Y53292664D01*
X47279000Y53292664D01*
X47279000Y52371335D01*
X47296870Y52189898D01*
X47367489Y51957099D01*
X47482168Y51742551D01*
X47636499Y51554498D01*
X47824552Y51400167D01*
X48039100Y51285489D01*
X48271899Y51214870D01*
X48514000Y51191025D01*
X48756102Y51214870D01*
X48988901Y51285489D01*
X49203449Y51400167D01*
X49391502Y51554498D01*
X49545833Y51742551D01*
X49660511Y51957099D01*
X49731130Y52189899D01*
X49749000Y52371336D01*
X49749000Y53292664D01*
X49819000Y53292664D01*
X49819000Y52371335D01*
X49836870Y52189898D01*
X49907489Y51957099D01*
X50022168Y51742551D01*
X50176499Y51554498D01*
X50364552Y51400167D01*
X50579100Y51285489D01*
X50811899Y51214870D01*
X51054000Y51191025D01*
X51296102Y51214870D01*
X51528901Y51285489D01*
X51743449Y51400167D01*
X51931502Y51554498D01*
X52085833Y51742551D01*
X52200511Y51957099D01*
X52271130Y52189899D01*
X52289000Y52371336D01*
X52289000Y53292665D01*
X52271130Y53474102D01*
X52200511Y53706901D01*
X52085833Y53921449D01*
X51931502Y54109502D01*
X51743448Y54263833D01*
X51528900Y54378511D01*
X51296101Y54449130D01*
X51054000Y54472975D01*
X50811898Y54449130D01*
X50579099Y54378511D01*
X50364551Y54263833D01*
X50176498Y54109502D01*
X50022167Y53921448D01*
X49907489Y53706900D01*
X49836870Y53474101D01*
X49819000Y53292664D01*
X49749000Y53292664D01*
X49749000Y53292665D01*
X49731130Y53474102D01*
X49660511Y53706901D01*
X49545833Y53921449D01*
X49391502Y54109502D01*
X49203448Y54263833D01*
X48988900Y54378511D01*
X48756101Y54449130D01*
X48514000Y54472975D01*
X48271898Y54449130D01*
X48039099Y54378511D01*
X47824551Y54263833D01*
X47636498Y54109502D01*
X47482167Y53921448D01*
X47367489Y53706900D01*
X47296870Y53474101D01*
X47279000Y53292664D01*
X47209000Y53292664D01*
X47209000Y53292665D01*
X47191130Y53474102D01*
X47120511Y53706901D01*
X47005833Y53921449D01*
X46851502Y54109502D01*
X46663448Y54263833D01*
X46448900Y54378511D01*
X46216101Y54449130D01*
X45974000Y54472975D01*
X45731898Y54449130D01*
X45499099Y54378511D01*
X45284551Y54263833D01*
X45096498Y54109502D01*
X44942167Y53921448D01*
X44827489Y53706900D01*
X44756870Y53474101D01*
X44739000Y53292664D01*
X44669000Y53292664D01*
X44669000Y53292665D01*
X44651130Y53474102D01*
X44580511Y53706901D01*
X44465833Y53921449D01*
X44311502Y54109502D01*
X44123448Y54263833D01*
X43908900Y54378511D01*
X43676101Y54449130D01*
X43434000Y54472975D01*
X43191898Y54449130D01*
X42959099Y54378511D01*
X42744551Y54263833D01*
X42556498Y54109502D01*
X42402167Y53921448D01*
X42287489Y53706900D01*
X42216870Y53474101D01*
X42199000Y53292664D01*
X42129000Y53292664D01*
X42129000Y53292665D01*
X42111130Y53474102D01*
X42040511Y53706901D01*
X41925833Y53921449D01*
X41771502Y54109502D01*
X41583448Y54263833D01*
X41368900Y54378511D01*
X41136101Y54449130D01*
X40894000Y54472975D01*
X40651898Y54449130D01*
X40419099Y54378511D01*
X40204551Y54263833D01*
X40016498Y54109502D01*
X39862167Y53921448D01*
X39747489Y53706900D01*
X39676870Y53474101D01*
X39659000Y53292664D01*
X39589000Y53292664D01*
X39589000Y53292665D01*
X39571130Y53474102D01*
X39500511Y53706901D01*
X39385833Y53921449D01*
X39231502Y54109502D01*
X39043448Y54263833D01*
X38828900Y54378511D01*
X38596101Y54449130D01*
X38354000Y54472975D01*
X38111898Y54449130D01*
X37879099Y54378511D01*
X37664551Y54263833D01*
X37476498Y54109502D01*
X37322167Y53921448D01*
X37207489Y53706900D01*
X37136870Y53474101D01*
X37119000Y53292664D01*
X37049000Y53292664D01*
X37049000Y53292665D01*
X37031130Y53474102D01*
X36960511Y53706901D01*
X36845833Y53921449D01*
X36691502Y54109502D01*
X36503448Y54263833D01*
X36288900Y54378511D01*
X36056101Y54449130D01*
X35814000Y54472975D01*
X35571898Y54449130D01*
X35339099Y54378511D01*
X35124551Y54263833D01*
X34936498Y54109502D01*
X34782167Y53921448D01*
X34667489Y53706900D01*
X34596870Y53474101D01*
X34579000Y53292664D01*
X34509000Y53292664D01*
X34509000Y53292665D01*
X34491130Y53474102D01*
X34420511Y53706901D01*
X34305833Y53921449D01*
X34151502Y54109502D01*
X33963448Y54263833D01*
X33748900Y54378511D01*
X33516101Y54449130D01*
X33274000Y54472975D01*
X33031898Y54449130D01*
X32799099Y54378511D01*
X32584551Y54263833D01*
X32396498Y54109502D01*
X32242167Y53921448D01*
X32127489Y53706900D01*
X32056870Y53474101D01*
X32039000Y53292664D01*
X31969000Y53292664D01*
X31969000Y53292665D01*
X31951130Y53474102D01*
X31880511Y53706901D01*
X31765833Y53921449D01*
X31611502Y54109502D01*
X31483330Y54214689D01*
X33053641Y55784999D01*
X33430250Y55784999D01*
X33486001Y55779508D01*
X33541752Y55784999D01*
X33541753Y55784999D01*
X33708500Y55801422D01*
X33922448Y55866323D01*
X34119624Y55971715D01*
X34292450Y56113550D01*
X34327997Y56156864D01*
X36732468Y58561335D01*
X41491000Y58561335D01*
X41491000Y58278665D01*
X41546147Y58001426D01*
X41654320Y57740273D01*
X41811363Y57505241D01*
X42011241Y57305363D01*
X42246273Y57148320D01*
X42507426Y57040147D01*
X42784665Y56985000D01*
X43067335Y56985000D01*
X43344574Y57040147D01*
X43605727Y57148320D01*
X43840759Y57305363D01*
X44040637Y57505241D01*
X44197680Y57740273D01*
X44305853Y58001426D01*
X44361000Y58278665D01*
X44361000Y58561335D01*
X44305853Y58838574D01*
X44197680Y59099727D01*
X44040637Y59334759D01*
X43840759Y59534637D01*
X43605727Y59691680D01*
X43344574Y59799853D01*
X43067335Y59855000D01*
X42784665Y59855000D01*
X42507426Y59799853D01*
X42246273Y59691680D01*
X42011241Y59534637D01*
X41811363Y59334759D01*
X41654320Y59099727D01*
X41546147Y58838574D01*
X41491000Y58561335D01*
X36732468Y58561335D01*
X39371141Y61200007D01*
X39414449Y61235549D01*
X39556284Y61408375D01*
X39661676Y61605551D01*
X39726577Y61819499D01*
X39743000Y61986246D01*
X39743000Y61986255D01*
X39748490Y62041997D01*
X39743000Y62097739D01*
X39743000Y70916893D01*
X39761475Y70935368D01*
X39878000Y71109760D01*
X39994525Y70935368D01*
X40201368Y70728525D01*
X40444589Y70566010D01*
X40714842Y70454068D01*
X41001740Y70397000D01*
X41294260Y70397000D01*
X41581158Y70454068D01*
X41851411Y70566010D01*
X42094632Y70728525D01*
X42301475Y70935368D01*
X42463990Y71178589D01*
X42575932Y71448842D01*
X42633000Y71735740D01*
X42633000Y72028260D01*
X42575932Y72315158D01*
X42463990Y72585411D01*
X42301475Y72828632D01*
X42094632Y73035475D01*
X41851411Y73197990D01*
X41581158Y73309932D01*
X41294260Y73367000D01*
X41001740Y73367000D01*
X40714842Y73309932D01*
X40444589Y73197990D01*
X40201368Y73035475D01*
X39994525Y72828632D01*
X39878000Y72654240D01*
X39761475Y72828632D01*
X39554632Y73035475D01*
X39311411Y73197990D01*
X39041158Y73309932D01*
X38754260Y73367000D01*
X38461740Y73367000D01*
X38174842Y73309932D01*
X37904589Y73197990D01*
X37661368Y73035475D01*
X37454525Y72828632D01*
X37332805Y72646466D01*
X37263178Y72763355D01*
X37068269Y72979588D01*
X36834920Y73153641D01*
X36572099Y73278825D01*
X36424890Y73323476D01*
X36195000Y73202155D01*
X36195000Y72009000D01*
X36215000Y72009000D01*
X36215000Y71755000D01*
X36195000Y71755000D01*
X36195000Y70561845D01*
X36424890Y70440524D01*
X36572099Y70485175D01*
X36834920Y70610359D01*
X37068269Y70784412D01*
X37263178Y71000645D01*
X37332805Y71117534D01*
X37454525Y70935368D01*
X37473001Y70916892D01*
X37473000Y62512130D01*
X34044392Y59083522D01*
X34037680Y59099727D01*
X33880637Y59334759D01*
X33680759Y59534637D01*
X33445727Y59691680D01*
X33184574Y59799853D01*
X32907335Y59855000D01*
X32624665Y59855000D01*
X32347426Y59799853D01*
X32086273Y59691680D01*
X31851241Y59534637D01*
X31750000Y59433396D01*
X31648759Y59534637D01*
X31413727Y59691680D01*
X31152574Y59799853D01*
X30875335Y59855000D01*
X30592665Y59855000D01*
X30315426Y59799853D01*
X30054273Y59691680D01*
X29819241Y59534637D01*
X29619363Y59334759D01*
X29462320Y59099727D01*
X29354147Y58838574D01*
X29299000Y58561335D01*
X29299000Y58278665D01*
X29354147Y58001426D01*
X29462320Y57740273D01*
X29619363Y57505241D01*
X29819241Y57305363D01*
X30054273Y57148320D01*
X30315426Y57040147D01*
X30592665Y56985000D01*
X30875335Y56985000D01*
X31085102Y57026726D01*
X28490888Y54432510D01*
X28436101Y54449130D01*
X28194000Y54472975D01*
X27951898Y54449130D01*
X27719099Y54378511D01*
X27504551Y54263833D01*
X27316498Y54109502D01*
X27162167Y53921448D01*
X27047489Y53706900D01*
X26976870Y53474101D01*
X26959000Y53292664D01*
X26889000Y53292664D01*
X26889000Y53292665D01*
X26871130Y53474102D01*
X26800511Y53706901D01*
X26685833Y53921449D01*
X26531502Y54109502D01*
X26343448Y54263833D01*
X26128900Y54378511D01*
X25896101Y54449130D01*
X25654000Y54472975D01*
X25411898Y54449130D01*
X25179099Y54378511D01*
X24964551Y54263833D01*
X24776498Y54109502D01*
X24622167Y53921448D01*
X24507489Y53706900D01*
X24436870Y53474101D01*
X24419000Y53292664D01*
X24349000Y53292664D01*
X24349000Y53292665D01*
X24331130Y53474102D01*
X24260511Y53706901D01*
X24145833Y53921449D01*
X23991502Y54109502D01*
X23803448Y54263833D01*
X23588900Y54378511D01*
X23356101Y54449130D01*
X23114000Y54472975D01*
X22871898Y54449130D01*
X22639099Y54378511D01*
X22424551Y54263833D01*
X22236498Y54109502D01*
X22082167Y53921448D01*
X21967489Y53706900D01*
X21896870Y53474101D01*
X21879000Y53292664D01*
X21809000Y53292664D01*
X21809000Y53292665D01*
X21791130Y53474102D01*
X21720511Y53706901D01*
X21605833Y53921449D01*
X21451502Y54109502D01*
X21263448Y54263833D01*
X21048900Y54378511D01*
X20816101Y54449130D01*
X20574000Y54472975D01*
X20331898Y54449130D01*
X20099099Y54378511D01*
X19884551Y54263833D01*
X19696498Y54109502D01*
X19542167Y53921448D01*
X19427489Y53706900D01*
X19356870Y53474101D01*
X19339000Y53292664D01*
X19269000Y53292664D01*
X19269000Y53292665D01*
X19251130Y53474102D01*
X19180511Y53706901D01*
X19065833Y53921449D01*
X18911502Y54109502D01*
X18723448Y54263833D01*
X18508900Y54378511D01*
X18276101Y54449130D01*
X18034000Y54472975D01*
X17791898Y54449130D01*
X17559099Y54378511D01*
X17344551Y54263833D01*
X17156498Y54109502D01*
X17002167Y53921448D01*
X16887489Y53706900D01*
X16816870Y53474101D01*
X16799000Y53292664D01*
X16729000Y53292664D01*
X16729000Y53359000D01*
X16680493Y53597496D01*
X16586390Y53821946D01*
X16450307Y54023725D01*
X16277474Y54195078D01*
X16074533Y54329421D01*
X15849282Y54421591D01*
X15811609Y54425462D01*
X15621000Y54300731D01*
X15367000Y54300731D01*
X15176391Y54425462D01*
X15138718Y54421591D01*
X14913467Y54329421D01*
X14710526Y54195078D01*
X14537693Y54023725D01*
X14401610Y53821946D01*
X14307507Y53597496D01*
X14259000Y53359000D01*
X660000Y53359000D01*
X660000Y55649298D01*
X14680903Y55649298D01*
X14752486Y55405329D01*
X15007996Y55284429D01*
X15282184Y55215700D01*
X15564512Y55201783D01*
X15844130Y55243213D01*
X16110292Y55338397D01*
X16235514Y55405329D01*
X16307097Y55649298D01*
X15494000Y56462395D01*
X14680903Y55649298D01*
X660000Y55649298D01*
X660000Y56858000D01*
X7959928Y56858000D01*
X7972188Y56733518D01*
X8008498Y56613820D01*
X8067463Y56503506D01*
X8146815Y56406815D01*
X8243506Y56327463D01*
X8353820Y56268498D01*
X8473518Y56232188D01*
X8598000Y56219928D01*
X9112250Y56223000D01*
X9271000Y56381750D01*
X9271000Y57531000D01*
X9525000Y57531000D01*
X9525000Y56381750D01*
X9683750Y56223000D01*
X10198000Y56219928D01*
X10322482Y56232188D01*
X10442180Y56268498D01*
X10552494Y56327463D01*
X10649185Y56406815D01*
X10728537Y56503506D01*
X10764874Y56571488D01*
X14053783Y56571488D01*
X14095213Y56291870D01*
X14190397Y56025708D01*
X14257329Y55900486D01*
X14501298Y55828903D01*
X15314395Y56642000D01*
X15673605Y56642000D01*
X16486702Y55828903D01*
X16730671Y55900486D01*
X16851571Y56155996D01*
X16920300Y56430184D01*
X16934217Y56712512D01*
X16892787Y56992130D01*
X16797603Y57258292D01*
X16730671Y57383514D01*
X16486702Y57455097D01*
X15673605Y56642000D01*
X15314395Y56642000D01*
X14501298Y57455097D01*
X14257329Y57383514D01*
X14136429Y57128004D01*
X14067700Y56853816D01*
X14053783Y56571488D01*
X10764874Y56571488D01*
X10787502Y56613820D01*
X10823812Y56733518D01*
X10836072Y56858000D01*
X10833000Y57372250D01*
X10674250Y57531000D01*
X9525000Y57531000D01*
X9271000Y57531000D01*
X8121750Y57531000D01*
X7963000Y57372250D01*
X7959928Y56858000D01*
X660000Y56858000D01*
X660000Y57634702D01*
X14680903Y57634702D01*
X15494000Y56821605D01*
X16307097Y57634702D01*
X16235514Y57878671D01*
X15980004Y57999571D01*
X15705816Y58068300D01*
X15423488Y58082217D01*
X15143870Y58040787D01*
X14877708Y57945603D01*
X14752486Y57878671D01*
X14680903Y57634702D01*
X660000Y57634702D01*
X660000Y58458000D01*
X7959928Y58458000D01*
X7963000Y57943750D01*
X8121750Y57785000D01*
X9271000Y57785000D01*
X9271000Y57805000D01*
X9525000Y57805000D01*
X9525000Y57785000D01*
X10674250Y57785000D01*
X10833000Y57943750D01*
X10836072Y58458000D01*
X10825895Y58561335D01*
X19139000Y58561335D01*
X19139000Y58278665D01*
X19194147Y58001426D01*
X19302320Y57740273D01*
X19459363Y57505241D01*
X19659241Y57305363D01*
X19894273Y57148320D01*
X20155426Y57040147D01*
X20432665Y56985000D01*
X20715335Y56985000D01*
X20992574Y57040147D01*
X21253727Y57148320D01*
X21488759Y57305363D01*
X21688637Y57505241D01*
X21845680Y57740273D01*
X21953853Y58001426D01*
X22009000Y58278665D01*
X22009000Y58561335D01*
X21953853Y58838574D01*
X21845680Y59099727D01*
X21688637Y59334759D01*
X21488759Y59534637D01*
X21253727Y59691680D01*
X20992574Y59799853D01*
X20715335Y59855000D01*
X20432665Y59855000D01*
X20155426Y59799853D01*
X19894273Y59691680D01*
X19659241Y59534637D01*
X19459363Y59334759D01*
X19302320Y59099727D01*
X19194147Y58838574D01*
X19139000Y58561335D01*
X10825895Y58561335D01*
X10823812Y58582482D01*
X10787502Y58702180D01*
X10728537Y58812494D01*
X10649185Y58909185D01*
X10552494Y58988537D01*
X10442180Y59047502D01*
X10346057Y59076661D01*
X10512637Y59243241D01*
X10669680Y59478273D01*
X10777853Y59739426D01*
X10833000Y60016665D01*
X10833000Y60299335D01*
X10777853Y60576574D01*
X10669680Y60837727D01*
X10512637Y61072759D01*
X10312759Y61272637D01*
X10077727Y61429680D01*
X9816574Y61537853D01*
X9539335Y61593000D01*
X9256665Y61593000D01*
X8979426Y61537853D01*
X8718273Y61429680D01*
X8483241Y61272637D01*
X8283363Y61072759D01*
X8126320Y60837727D01*
X8018147Y60576574D01*
X7963000Y60299335D01*
X7963000Y60016665D01*
X8018147Y59739426D01*
X8126320Y59478273D01*
X8283363Y59243241D01*
X8449943Y59076661D01*
X8353820Y59047502D01*
X8243506Y58988537D01*
X8146815Y58909185D01*
X8067463Y58812494D01*
X8008498Y58702180D01*
X7972188Y58582482D01*
X7959928Y58458000D01*
X660000Y58458000D01*
X660000Y61783335D01*
X14059000Y61783335D01*
X14059000Y61500665D01*
X14114147Y61223426D01*
X14222320Y60962273D01*
X14379363Y60727241D01*
X14579241Y60527363D01*
X14814273Y60370320D01*
X15075426Y60262147D01*
X15352665Y60207000D01*
X15635335Y60207000D01*
X15912574Y60262147D01*
X16173727Y60370320D01*
X16408759Y60527363D01*
X16608637Y60727241D01*
X16765680Y60962273D01*
X16873853Y61223426D01*
X16929000Y61500665D01*
X16929000Y61783335D01*
X16873853Y62060574D01*
X16765680Y62321727D01*
X16608637Y62556759D01*
X16408759Y62756637D01*
X16173727Y62913680D01*
X15912574Y63021853D01*
X15635335Y63077000D01*
X15352665Y63077000D01*
X15075426Y63021853D01*
X14814273Y62913680D01*
X14579241Y62756637D01*
X14379363Y62556759D01*
X14222320Y62321727D01*
X14114147Y62060574D01*
X14059000Y61783335D01*
X660000Y61783335D01*
X660000Y66279000D01*
X9597928Y66279000D01*
X9597928Y64529000D01*
X9627001Y64233814D01*
X9713104Y63949972D01*
X9852927Y63688382D01*
X10041097Y63459097D01*
X10270382Y63270927D01*
X10531972Y63131104D01*
X10815814Y63045001D01*
X11111000Y63015928D01*
X12861000Y63015928D01*
X13156186Y63045001D01*
X13440028Y63131104D01*
X13701618Y63270927D01*
X13930903Y63459097D01*
X14119073Y63688382D01*
X14258896Y63949972D01*
X14344999Y64233814D01*
X14374072Y64529000D01*
X14374072Y66049000D01*
X26243928Y66049000D01*
X26243928Y64799000D01*
X26261472Y64620868D01*
X26313431Y64449582D01*
X26397808Y64291724D01*
X26511361Y64153361D01*
X26649724Y64039808D01*
X26807582Y63955431D01*
X26978868Y63903472D01*
X27157000Y63885928D01*
X27407439Y63885928D01*
X27432000Y63883509D01*
X27456561Y63885928D01*
X27513928Y63885928D01*
X27513928Y62729000D01*
X27531472Y62550868D01*
X27583431Y62379582D01*
X27667808Y62221724D01*
X27781361Y62083361D01*
X27919724Y61969808D01*
X28077582Y61885431D01*
X28248868Y61833472D01*
X28427000Y61815928D01*
X28977000Y61815928D01*
X29155132Y61833472D01*
X29326418Y61885431D01*
X29484276Y61969808D01*
X29622639Y62083361D01*
X29736192Y62221724D01*
X29820569Y62379582D01*
X29872528Y62550868D01*
X29890072Y62729000D01*
X29890072Y63885928D01*
X30522000Y63885928D01*
X30646482Y63898188D01*
X30766180Y63934498D01*
X30876494Y63993463D01*
X30973185Y64072815D01*
X31052537Y64169506D01*
X31111502Y64279820D01*
X31147812Y64399518D01*
X31160072Y64524000D01*
X31160072Y65532796D01*
X32117176Y64575691D01*
X32155431Y64449582D01*
X32239808Y64291724D01*
X32353361Y64153361D01*
X32491724Y64039808D01*
X32649582Y63955431D01*
X32820868Y63903472D01*
X32999000Y63885928D01*
X33249439Y63885928D01*
X33274000Y63883509D01*
X33298561Y63885928D01*
X33355928Y63885928D01*
X33355928Y62729000D01*
X33373472Y62550868D01*
X33425431Y62379582D01*
X33509808Y62221724D01*
X33623361Y62083361D01*
X33761724Y61969808D01*
X33919582Y61885431D01*
X34090868Y61833472D01*
X34269000Y61815928D01*
X34819000Y61815928D01*
X34997132Y61833472D01*
X35168418Y61885431D01*
X35326276Y61969808D01*
X35464639Y62083361D01*
X35578192Y62221724D01*
X35662569Y62379582D01*
X35714528Y62550868D01*
X35732072Y62729000D01*
X35732072Y63885928D01*
X36364000Y63885928D01*
X36488482Y63898188D01*
X36608180Y63934498D01*
X36718494Y63993463D01*
X36815185Y64072815D01*
X36894537Y64169506D01*
X36953502Y64279820D01*
X36989812Y64399518D01*
X37002072Y64524000D01*
X37002072Y66324000D01*
X36989812Y66448482D01*
X36953502Y66568180D01*
X36894537Y66678494D01*
X36815185Y66775185D01*
X36718494Y66854537D01*
X36608180Y66913502D01*
X36488482Y66949812D01*
X36364000Y66962072D01*
X35264000Y66962072D01*
X35139518Y66949812D01*
X35019820Y66913502D01*
X34909506Y66854537D01*
X34812815Y66775185D01*
X34733463Y66678494D01*
X34674498Y66568180D01*
X34638188Y66448482D01*
X34625928Y66324000D01*
X34625928Y64892072D01*
X34462072Y64892072D01*
X34462072Y66049000D01*
X34444528Y66227132D01*
X34392569Y66398418D01*
X34308192Y66556276D01*
X34194639Y66694639D01*
X34056276Y66808192D01*
X33898418Y66892569D01*
X33727132Y66944528D01*
X33549000Y66962072D01*
X32999000Y66962072D01*
X32946255Y66956877D01*
X32115995Y67787137D01*
X32080448Y67830450D01*
X31907622Y67972285D01*
X31710446Y68077677D01*
X31496498Y68142578D01*
X31329751Y68159001D01*
X31329750Y68159001D01*
X31273999Y68164492D01*
X31218248Y68159001D01*
X28917750Y68159001D01*
X28861999Y68164492D01*
X28806247Y68159001D01*
X28639500Y68142578D01*
X28425552Y68077677D01*
X28228376Y67972285D01*
X28055550Y67830450D01*
X28020007Y67787141D01*
X27194939Y66962072D01*
X27157000Y66962072D01*
X26978868Y66944528D01*
X26807582Y66892569D01*
X26649724Y66808192D01*
X26511361Y66694639D01*
X26397808Y66556276D01*
X26313431Y66398418D01*
X26261472Y66227132D01*
X26243928Y66049000D01*
X14374072Y66049000D01*
X14374072Y66279000D01*
X14344999Y66574186D01*
X14258896Y66858028D01*
X14119073Y67119618D01*
X13930903Y67348903D01*
X13701618Y67537073D01*
X13440028Y67676896D01*
X13310840Y67716085D01*
X14700250Y67719000D01*
X14859000Y67877750D01*
X14859000Y69977000D01*
X15113000Y69977000D01*
X15113000Y67877750D01*
X15271750Y67719000D01*
X16736000Y67715928D01*
X16860482Y67728188D01*
X16980180Y67764498D01*
X17090494Y67823463D01*
X17187185Y67902815D01*
X17266537Y67999506D01*
X17325502Y68109820D01*
X17361812Y68229518D01*
X17374072Y68354000D01*
X17371000Y69818250D01*
X17212250Y69977000D01*
X15113000Y69977000D01*
X14859000Y69977000D01*
X12759750Y69977000D01*
X12601000Y69818250D01*
X12597928Y68354000D01*
X12610188Y68229518D01*
X12646498Y68109820D01*
X12705463Y67999506D01*
X12784815Y67902815D01*
X12881506Y67823463D01*
X12958131Y67782506D01*
X12861000Y67792072D01*
X11111000Y67792072D01*
X10815814Y67762999D01*
X10531972Y67676896D01*
X10270382Y67537073D01*
X10041097Y67348903D01*
X9852927Y67119618D01*
X9713104Y66858028D01*
X9627001Y66574186D01*
X9597928Y66279000D01*
X660000Y66279000D01*
X660000Y71104000D01*
X6847928Y71104000D01*
X6847928Y69104000D01*
X6874599Y68833201D01*
X6953589Y68572808D01*
X7081860Y68332829D01*
X7254485Y68122485D01*
X7464829Y67949860D01*
X7704808Y67821589D01*
X7965201Y67742599D01*
X8236000Y67715928D01*
X9736000Y67715928D01*
X10006799Y67742599D01*
X10267192Y67821589D01*
X10507171Y67949860D01*
X10717515Y68122485D01*
X10890140Y68332829D01*
X11018411Y68572808D01*
X11097401Y68833201D01*
X11124072Y69104000D01*
X11124072Y71104000D01*
X11097401Y71374799D01*
X11018411Y71635192D01*
X10901457Y71854000D01*
X12597928Y71854000D01*
X12601000Y70389750D01*
X12759750Y70231000D01*
X14859000Y70231000D01*
X14859000Y72330250D01*
X15113000Y72330250D01*
X15113000Y70231000D01*
X17212250Y70231000D01*
X17371000Y70389750D01*
X17374072Y71854000D01*
X17361812Y71978482D01*
X17325502Y72098180D01*
X17266537Y72208494D01*
X17187185Y72305185D01*
X17090494Y72384537D01*
X16980180Y72443502D01*
X16860482Y72479812D01*
X16736000Y72492072D01*
X15271750Y72489000D01*
X15113000Y72330250D01*
X14859000Y72330250D01*
X14700250Y72489000D01*
X13236000Y72492072D01*
X13111518Y72479812D01*
X12991820Y72443502D01*
X12881506Y72384537D01*
X12784815Y72305185D01*
X12705463Y72208494D01*
X12646498Y72098180D01*
X12610188Y71978482D01*
X12597928Y71854000D01*
X10901457Y71854000D01*
X10890140Y71875171D01*
X10717515Y72085515D01*
X10507171Y72258140D01*
X10267192Y72386411D01*
X10006799Y72465401D01*
X9736000Y72492072D01*
X8236000Y72492072D01*
X7965201Y72465401D01*
X7704808Y72386411D01*
X7464829Y72258140D01*
X7254485Y72085515D01*
X7081860Y71875171D01*
X6953589Y71635192D01*
X6874599Y71374799D01*
X6847928Y71104000D01*
X660000Y71104000D01*
X660000Y72732000D01*
X20863928Y72732000D01*
X20863928Y71032000D01*
X20876188Y70907518D01*
X20912498Y70787820D01*
X20971463Y70677506D01*
X21050815Y70580815D01*
X21147506Y70501463D01*
X21257820Y70442498D01*
X21377518Y70406188D01*
X21502000Y70393928D01*
X23202000Y70393928D01*
X23326482Y70406188D01*
X23446180Y70442498D01*
X23556494Y70501463D01*
X23653185Y70580815D01*
X23732537Y70677506D01*
X23791502Y70787820D01*
X23815966Y70868466D01*
X23891731Y70784412D01*
X24125080Y70610359D01*
X24387901Y70485175D01*
X24535110Y70440524D01*
X24765000Y70561845D01*
X24765000Y71755000D01*
X24745000Y71755000D01*
X24745000Y72009000D01*
X24765000Y72009000D01*
X24765000Y73202155D01*
X25019000Y73202155D01*
X25019000Y72009000D01*
X25039000Y72009000D01*
X25039000Y71755000D01*
X25019000Y71755000D01*
X25019000Y70561845D01*
X25248890Y70440524D01*
X25396099Y70485175D01*
X25658920Y70610359D01*
X25892269Y70784412D01*
X26087178Y71000645D01*
X26156805Y71117534D01*
X26278525Y70935368D01*
X26485368Y70728525D01*
X26728589Y70566010D01*
X26998842Y70454068D01*
X27285740Y70397000D01*
X27578260Y70397000D01*
X27865158Y70454068D01*
X28135411Y70566010D01*
X28378632Y70728525D01*
X28585475Y70935368D01*
X28702000Y71109760D01*
X28818525Y70935368D01*
X29025368Y70728525D01*
X29268589Y70566010D01*
X29538842Y70454068D01*
X29825740Y70397000D01*
X30118260Y70397000D01*
X30405158Y70454068D01*
X30675411Y70566010D01*
X30918632Y70728525D01*
X31125475Y70935368D01*
X31287990Y71178589D01*
X31399932Y71448842D01*
X31457000Y71735740D01*
X31457000Y72028260D01*
X31399932Y72315158D01*
X31287990Y72585411D01*
X31190043Y72732000D01*
X32039928Y72732000D01*
X32039928Y71032000D01*
X32052188Y70907518D01*
X32088498Y70787820D01*
X32147463Y70677506D01*
X32226815Y70580815D01*
X32323506Y70501463D01*
X32433820Y70442498D01*
X32553518Y70406188D01*
X32678000Y70393928D01*
X34378000Y70393928D01*
X34502482Y70406188D01*
X34622180Y70442498D01*
X34732494Y70501463D01*
X34829185Y70580815D01*
X34908537Y70677506D01*
X34967502Y70787820D01*
X34991966Y70868466D01*
X35067731Y70784412D01*
X35301080Y70610359D01*
X35563901Y70485175D01*
X35711110Y70440524D01*
X35941000Y70561845D01*
X35941000Y71755000D01*
X35921000Y71755000D01*
X35921000Y72009000D01*
X35941000Y72009000D01*
X35941000Y73202155D01*
X35711110Y73323476D01*
X35563901Y73278825D01*
X35301080Y73153641D01*
X35067731Y72979588D01*
X34991966Y72895534D01*
X34967502Y72976180D01*
X34908537Y73086494D01*
X34829185Y73183185D01*
X34732494Y73262537D01*
X34622180Y73321502D01*
X34502482Y73357812D01*
X34378000Y73370072D01*
X32678000Y73370072D01*
X32553518Y73357812D01*
X32433820Y73321502D01*
X32323506Y73262537D01*
X32226815Y73183185D01*
X32147463Y73086494D01*
X32088498Y72976180D01*
X32052188Y72856482D01*
X32039928Y72732000D01*
X31190043Y72732000D01*
X31125475Y72828632D01*
X30918632Y73035475D01*
X30675411Y73197990D01*
X30405158Y73309932D01*
X30118260Y73367000D01*
X29825740Y73367000D01*
X29538842Y73309932D01*
X29268589Y73197990D01*
X29025368Y73035475D01*
X28818525Y72828632D01*
X28702000Y72654240D01*
X28585475Y72828632D01*
X28378632Y73035475D01*
X28135411Y73197990D01*
X27865158Y73309932D01*
X27578260Y73367000D01*
X27285740Y73367000D01*
X26998842Y73309932D01*
X26728589Y73197990D01*
X26485368Y73035475D01*
X26278525Y72828632D01*
X26156805Y72646466D01*
X26087178Y72763355D01*
X25892269Y72979588D01*
X25658920Y73153641D01*
X25396099Y73278825D01*
X25248890Y73323476D01*
X25019000Y73202155D01*
X24765000Y73202155D01*
X24535110Y73323476D01*
X24387901Y73278825D01*
X24125080Y73153641D01*
X23891731Y72979588D01*
X23815966Y72895534D01*
X23791502Y72976180D01*
X23732537Y73086494D01*
X23653185Y73183185D01*
X23556494Y73262537D01*
X23446180Y73321502D01*
X23326482Y73357812D01*
X23202000Y73370072D01*
X21502000Y73370072D01*
X21377518Y73357812D01*
X21257820Y73321502D01*
X21147506Y73262537D01*
X21050815Y73183185D01*
X20971463Y73086494D01*
X20912498Y72976180D01*
X20876188Y72856482D01*
X20863928Y72732000D01*
X660000Y72732000D01*
X660000Y75540000D01*
X64618001Y75540000D01*
X64618000Y660000D01*
%TA.AperFunction,Conductor*%
D24*
G36*
X64618000Y660000D02*
G01*
X660000Y660000D01*
X660000Y7758000D01*
X18273928Y7758000D01*
X18273928Y5958000D01*
X18286188Y5833518D01*
X18322498Y5713820D01*
X18381463Y5603506D01*
X18460815Y5506815D01*
X18557506Y5427463D01*
X18667820Y5368498D01*
X18787518Y5332188D01*
X18912000Y5319928D01*
X20712000Y5319928D01*
X20836482Y5332188D01*
X20956180Y5368498D01*
X21066494Y5427463D01*
X21163185Y5506815D01*
X21186942Y5535763D01*
X21243905Y5497701D01*
X21523257Y5381989D01*
X21819816Y5323000D01*
X22122184Y5323000D01*
X22418743Y5381989D01*
X22698095Y5497701D01*
X22949505Y5665688D01*
X23050500Y5766683D01*
X23151495Y5665688D01*
X23402905Y5497701D01*
X23682257Y5381989D01*
X23978816Y5323000D01*
X24281184Y5323000D01*
X24577743Y5381989D01*
X24857095Y5497701D01*
X25108505Y5665688D01*
X25209500Y5766683D01*
X25310495Y5665688D01*
X25561905Y5497701D01*
X25841257Y5381989D01*
X26137816Y5323000D01*
X26440184Y5323000D01*
X26736743Y5381989D01*
X27016095Y5497701D01*
X27267505Y5665688D01*
X27481312Y5879495D01*
X27649299Y6130905D01*
X27765011Y6410257D01*
X27824000Y6706816D01*
X27824000Y7009184D01*
X27765011Y7305743D01*
X27649299Y7585095D01*
X27481312Y7836505D01*
X27267505Y8050312D01*
X27016095Y8218299D01*
X26736743Y8334011D01*
X26440184Y8393000D01*
X26137816Y8393000D01*
X25841257Y8334011D01*
X25561905Y8218299D01*
X25310495Y8050312D01*
X25209500Y7949317D01*
X25108505Y8050312D01*
X24857095Y8218299D01*
X24577743Y8334011D01*
X24281184Y8393000D01*
X23978816Y8393000D01*
X23682257Y8334011D01*
X23402905Y8218299D01*
X23151495Y8050312D01*
X23050500Y7949317D01*
X22949505Y8050312D01*
X22698095Y8218299D01*
X22418743Y8334011D01*
X22122184Y8393000D01*
X21819816Y8393000D01*
X21523257Y8334011D01*
X21243905Y8218299D01*
X21186942Y8180237D01*
X21163185Y8209185D01*
X21066494Y8288537D01*
X20956180Y8347502D01*
X20836482Y8383812D01*
X20712000Y8396072D01*
X18912000Y8396072D01*
X18787518Y8383812D01*
X18667820Y8347502D01*
X18557506Y8288537D01*
X18460815Y8209185D01*
X18381463Y8112494D01*
X18322498Y8002180D01*
X18286188Y7882482D01*
X18273928Y7758000D01*
X660000Y7758000D01*
X660000Y13603335D01*
X18631000Y13603335D01*
X18631000Y13320665D01*
X18686147Y13043426D01*
X18794320Y12782273D01*
X18951363Y12547241D01*
X19151241Y12347363D01*
X19386273Y12190320D01*
X19647426Y12082147D01*
X19924665Y12027000D01*
X20207335Y12027000D01*
X20484574Y12082147D01*
X20745727Y12190320D01*
X20980759Y12347363D01*
X21180637Y12547241D01*
X21337680Y12782273D01*
X21445853Y13043426D01*
X21501000Y13320665D01*
X21501000Y13603335D01*
X21679000Y13603335D01*
X21679000Y13320665D01*
X21734147Y13043426D01*
X21842320Y12782273D01*
X21999363Y12547241D01*
X22199241Y12347363D01*
X22434273Y12190320D01*
X22695426Y12082147D01*
X22972665Y12027000D01*
X23255335Y12027000D01*
X23532574Y12082147D01*
X23793727Y12190320D01*
X24028759Y12347363D01*
X24228637Y12547241D01*
X24385680Y12782273D01*
X24493853Y13043426D01*
X24549000Y13320665D01*
X24549000Y13603335D01*
X24727000Y13603335D01*
X24727000Y13320665D01*
X24782147Y13043426D01*
X24890320Y12782273D01*
X25047363Y12547241D01*
X25247241Y12347363D01*
X25482273Y12190320D01*
X25743426Y12082147D01*
X26020665Y12027000D01*
X26303335Y12027000D01*
X26580574Y12082147D01*
X26841727Y12190320D01*
X27076759Y12347363D01*
X27276637Y12547241D01*
X27433680Y12782273D01*
X27541853Y13043426D01*
X27597000Y13320665D01*
X27597000Y13603335D01*
X27541853Y13880574D01*
X27433680Y14141727D01*
X27276637Y14376759D01*
X27076759Y14576637D01*
X26841727Y14733680D01*
X26580574Y14841853D01*
X26303335Y14897000D01*
X26020665Y14897000D01*
X25743426Y14841853D01*
X25482273Y14733680D01*
X25247241Y14576637D01*
X25047363Y14376759D01*
X24890320Y14141727D01*
X24782147Y13880574D01*
X24727000Y13603335D01*
X24549000Y13603335D01*
X24493853Y13880574D01*
X24385680Y14141727D01*
X24228637Y14376759D01*
X24028759Y14576637D01*
X23793727Y14733680D01*
X23532574Y14841853D01*
X23255335Y14897000D01*
X22972665Y14897000D01*
X22695426Y14841853D01*
X22434273Y14733680D01*
X22199241Y14576637D01*
X21999363Y14376759D01*
X21842320Y14141727D01*
X21734147Y13880574D01*
X21679000Y13603335D01*
X21501000Y13603335D01*
X21445853Y13880574D01*
X21337680Y14141727D01*
X21180637Y14376759D01*
X20980759Y14576637D01*
X20745727Y14733680D01*
X20484574Y14841853D01*
X20207335Y14897000D01*
X19924665Y14897000D01*
X19647426Y14841853D01*
X19386273Y14733680D01*
X19151241Y14576637D01*
X18951363Y14376759D01*
X18794320Y14141727D01*
X18686147Y13880574D01*
X18631000Y13603335D01*
X660000Y13603335D01*
X660000Y17289592D01*
X32131000Y17289592D01*
X32131000Y17014408D01*
X32184686Y16744510D01*
X32289995Y16490273D01*
X32442880Y16261465D01*
X32637465Y16066880D01*
X32866273Y15913995D01*
X33120510Y15808686D01*
X33390408Y15755000D01*
X33665592Y15755000D01*
X33935490Y15808686D01*
X34189727Y15913995D01*
X34418535Y16066880D01*
X34613120Y16261465D01*
X34766005Y16490273D01*
X34798000Y16567515D01*
X34829995Y16490273D01*
X34982880Y16261465D01*
X35177465Y16066880D01*
X35406273Y15913995D01*
X35660510Y15808686D01*
X35930408Y15755000D01*
X36205592Y15755000D01*
X36475490Y15808686D01*
X36729727Y15913995D01*
X36958535Y16066880D01*
X37153120Y16261465D01*
X37306005Y16490273D01*
X37338000Y16567515D01*
X37369995Y16490273D01*
X37522880Y16261465D01*
X37717465Y16066880D01*
X37946273Y15913995D01*
X38200510Y15808686D01*
X38470408Y15755000D01*
X38745592Y15755000D01*
X39015490Y15808686D01*
X39269727Y15913995D01*
X39498535Y16066880D01*
X39693120Y16261465D01*
X39846005Y16490273D01*
X39878000Y16567515D01*
X39909995Y16490273D01*
X40062880Y16261465D01*
X40257465Y16066880D01*
X40486273Y15913995D01*
X40740510Y15808686D01*
X41010408Y15755000D01*
X41285592Y15755000D01*
X41555490Y15808686D01*
X41809727Y15913995D01*
X42038535Y16066880D01*
X42233120Y16261465D01*
X42386005Y16490273D01*
X42491314Y16744510D01*
X42545000Y17014408D01*
X42545000Y17289592D01*
X42491314Y17559490D01*
X42474948Y17599001D01*
X45843928Y17599001D01*
X45843928Y16510000D01*
X45856188Y16385518D01*
X45892498Y16265820D01*
X45951463Y16155506D01*
X46030815Y16058815D01*
X46127506Y15979463D01*
X46237820Y15920498D01*
X46357518Y15884188D01*
X46482000Y15871928D01*
X48006000Y15871928D01*
X48130482Y15884188D01*
X48250180Y15920498D01*
X48360494Y15979463D01*
X48457185Y16058815D01*
X48536537Y16155506D01*
X48595502Y16265820D01*
X48631812Y16385518D01*
X48640080Y16469465D01*
X48698880Y16381465D01*
X48893465Y16186880D01*
X49122273Y16033995D01*
X49376510Y15928686D01*
X49646408Y15875000D01*
X49921592Y15875000D01*
X50191490Y15928686D01*
X50445727Y16033995D01*
X50674535Y16186880D01*
X50869120Y16381465D01*
X51022005Y16610273D01*
X51054000Y16687515D01*
X51085995Y16610273D01*
X51238880Y16381465D01*
X51433465Y16186880D01*
X51662273Y16033995D01*
X51916510Y15928686D01*
X52186408Y15875000D01*
X52461592Y15875000D01*
X52731490Y15928686D01*
X52985727Y16033995D01*
X53214535Y16186880D01*
X53409120Y16381465D01*
X53562005Y16610273D01*
X53594000Y16687515D01*
X53625995Y16610273D01*
X53778880Y16381465D01*
X53973465Y16186880D01*
X54202273Y16033995D01*
X54456510Y15928686D01*
X54726408Y15875000D01*
X55001592Y15875000D01*
X55271490Y15928686D01*
X55525727Y16033995D01*
X55754535Y16186880D01*
X55949120Y16381465D01*
X56102005Y16610273D01*
X56134000Y16687515D01*
X56165995Y16610273D01*
X56318880Y16381465D01*
X56513465Y16186880D01*
X56742273Y16033995D01*
X56996510Y15928686D01*
X57266408Y15875000D01*
X57541592Y15875000D01*
X57811490Y15928686D01*
X58065727Y16033995D01*
X58294535Y16186880D01*
X58489120Y16381465D01*
X58642005Y16610273D01*
X58747314Y16864510D01*
X58801000Y17134408D01*
X58801000Y17409592D01*
X58747314Y17679490D01*
X58642005Y17933727D01*
X58539000Y18087884D01*
X58539000Y22493335D01*
X59779000Y22493335D01*
X59779000Y22210665D01*
X59834147Y21933426D01*
X59942320Y21672273D01*
X60099363Y21437241D01*
X60299241Y21237363D01*
X60534273Y21080320D01*
X60795426Y20972147D01*
X61072665Y20917000D01*
X61355335Y20917000D01*
X61632574Y20972147D01*
X61893727Y21080320D01*
X62128759Y21237363D01*
X62328637Y21437241D01*
X62485680Y21672273D01*
X62593853Y21933426D01*
X62649000Y22210665D01*
X62649000Y22493335D01*
X62593853Y22770574D01*
X62485680Y23031727D01*
X62328637Y23266759D01*
X62128759Y23466637D01*
X61893727Y23623680D01*
X61632574Y23731853D01*
X61355335Y23787000D01*
X61072665Y23787000D01*
X60795426Y23731853D01*
X60534273Y23623680D01*
X60299241Y23466637D01*
X60099363Y23266759D01*
X59942320Y23031727D01*
X59834147Y22770574D01*
X59779000Y22493335D01*
X58539000Y22493335D01*
X58539000Y33065871D01*
X60383665Y34910535D01*
X60406010Y34856589D01*
X60568525Y34613368D01*
X60700380Y34481513D01*
X60627820Y34459502D01*
X60517506Y34400537D01*
X60420815Y34321185D01*
X60341463Y34224494D01*
X60282498Y34114180D01*
X60246188Y33994482D01*
X60233928Y33870000D01*
X60233928Y32170000D01*
X60246188Y32045518D01*
X60282498Y31925820D01*
X60341463Y31815506D01*
X60420815Y31718815D01*
X60517506Y31639463D01*
X60627820Y31580498D01*
X60747518Y31544188D01*
X60872000Y31531928D01*
X62572000Y31531928D01*
X62696482Y31544188D01*
X62816180Y31580498D01*
X62926494Y31639463D01*
X63023185Y31718815D01*
X63102537Y31815506D01*
X63161502Y31925820D01*
X63197812Y32045518D01*
X63210072Y32170000D01*
X63210072Y33870000D01*
X63197812Y33994482D01*
X63161502Y34114180D01*
X63102537Y34224494D01*
X63023185Y34321185D01*
X62926494Y34400537D01*
X62816180Y34459502D01*
X62743620Y34481513D01*
X62875475Y34613368D01*
X63037990Y34856589D01*
X63149932Y35126842D01*
X63207000Y35413740D01*
X63207000Y35706260D01*
X63149932Y35993158D01*
X63037990Y36263411D01*
X62875475Y36506632D01*
X62668632Y36713475D01*
X62494240Y36830000D01*
X62668632Y36946525D01*
X62875475Y37153368D01*
X63037990Y37396589D01*
X63149932Y37666842D01*
X63207000Y37953740D01*
X63207000Y38246260D01*
X63149932Y38533158D01*
X63037990Y38803411D01*
X62875475Y39046632D01*
X62668632Y39253475D01*
X62425411Y39415990D01*
X62155158Y39527932D01*
X61868260Y39585000D01*
X61575740Y39585000D01*
X61288842Y39527932D01*
X61018589Y39415990D01*
X60775368Y39253475D01*
X60568525Y39046632D01*
X60406010Y38803411D01*
X60294068Y38533158D01*
X60237000Y38246260D01*
X60237000Y37974134D01*
X56640860Y34377993D01*
X56597552Y34342451D01*
X56455717Y34169625D01*
X56435643Y34132068D01*
X56350324Y33972448D01*
X56285423Y33758500D01*
X56263509Y33536002D01*
X56269001Y33480241D01*
X56269000Y18087885D01*
X56165995Y17933727D01*
X56134000Y17856485D01*
X56102005Y17933727D01*
X55949120Y18162535D01*
X55754535Y18357120D01*
X55525727Y18510005D01*
X55271490Y18615314D01*
X55001592Y18669000D01*
X54726408Y18669000D01*
X54456510Y18615314D01*
X54202273Y18510005D01*
X53973465Y18357120D01*
X53778880Y18162535D01*
X53625995Y17933727D01*
X53594000Y17856485D01*
X53562005Y17933727D01*
X53409120Y18162535D01*
X53214535Y18357120D01*
X52985727Y18510005D01*
X52731490Y18615314D01*
X52549647Y18651485D01*
X50503984Y20697147D01*
X50468437Y20740461D01*
X50295611Y20882296D01*
X50098435Y20987688D01*
X49884487Y21052589D01*
X49717740Y21069012D01*
X49717739Y21069012D01*
X49661988Y21074503D01*
X49606237Y21069012D01*
X36365763Y21069012D01*
X36310011Y21074503D01*
X36254260Y21069012D01*
X36087513Y21052589D01*
X35873565Y20987688D01*
X35676389Y20882296D01*
X35503563Y20740461D01*
X35468021Y20697153D01*
X33302354Y18531485D01*
X33120510Y18495314D01*
X32866273Y18390005D01*
X32637465Y18237120D01*
X32442880Y18042535D01*
X32289995Y17813727D01*
X32184686Y17559490D01*
X32131000Y17289592D01*
X660000Y17289592D01*
X660000Y23763335D01*
X18631000Y23763335D01*
X18631000Y23480665D01*
X18686147Y23203426D01*
X18794320Y22942273D01*
X18951363Y22707241D01*
X19151241Y22507363D01*
X19386273Y22350320D01*
X19647426Y22242147D01*
X19924665Y22187000D01*
X20207335Y22187000D01*
X20484574Y22242147D01*
X20745727Y22350320D01*
X20980759Y22507363D01*
X21180637Y22707241D01*
X21337680Y22942273D01*
X21445853Y23203426D01*
X21501000Y23480665D01*
X21501000Y23763335D01*
X21679000Y23763335D01*
X21679000Y23480665D01*
X21734147Y23203426D01*
X21842320Y22942273D01*
X21999363Y22707241D01*
X22199241Y22507363D01*
X22434273Y22350320D01*
X22695426Y22242147D01*
X22972665Y22187000D01*
X23255335Y22187000D01*
X23532574Y22242147D01*
X23793727Y22350320D01*
X24028759Y22507363D01*
X24228637Y22707241D01*
X24385680Y22942273D01*
X24493853Y23203426D01*
X24549000Y23480665D01*
X24549000Y23763335D01*
X24727000Y23763335D01*
X24727000Y23480665D01*
X24782147Y23203426D01*
X24890320Y22942273D01*
X25047363Y22707241D01*
X25247241Y22507363D01*
X25482273Y22350320D01*
X25743426Y22242147D01*
X26020665Y22187000D01*
X26303335Y22187000D01*
X26580574Y22242147D01*
X26841727Y22350320D01*
X27055764Y22493335D01*
X49619000Y22493335D01*
X49619000Y22210665D01*
X49674147Y21933426D01*
X49782320Y21672273D01*
X49939363Y21437241D01*
X50139241Y21237363D01*
X50374273Y21080320D01*
X50635426Y20972147D01*
X50912665Y20917000D01*
X51195335Y20917000D01*
X51472574Y20972147D01*
X51733727Y21080320D01*
X51968759Y21237363D01*
X52168637Y21437241D01*
X52325680Y21672273D01*
X52433853Y21933426D01*
X52489000Y22210665D01*
X52489000Y22493335D01*
X52433853Y22770574D01*
X52325680Y23031727D01*
X52168637Y23266759D01*
X51968759Y23466637D01*
X51733727Y23623680D01*
X51472574Y23731853D01*
X51195335Y23787000D01*
X50912665Y23787000D01*
X50635426Y23731853D01*
X50374273Y23623680D01*
X50139241Y23466637D01*
X49939363Y23266759D01*
X49782320Y23031727D01*
X49674147Y22770574D01*
X49619000Y22493335D01*
X27055764Y22493335D01*
X27076759Y22507363D01*
X27276637Y22707241D01*
X27433680Y22942273D01*
X27541853Y23203426D01*
X27597000Y23480665D01*
X27597000Y23763335D01*
X27541853Y24040574D01*
X27433680Y24301727D01*
X27276637Y24536759D01*
X27076759Y24736637D01*
X26841727Y24893680D01*
X26580574Y25001853D01*
X26303335Y25057000D01*
X26020665Y25057000D01*
X25743426Y25001853D01*
X25482273Y24893680D01*
X25247241Y24736637D01*
X25047363Y24536759D01*
X24890320Y24301727D01*
X24782147Y24040574D01*
X24727000Y23763335D01*
X24549000Y23763335D01*
X24493853Y24040574D01*
X24385680Y24301727D01*
X24228637Y24536759D01*
X24028759Y24736637D01*
X23793727Y24893680D01*
X23532574Y25001853D01*
X23255335Y25057000D01*
X22972665Y25057000D01*
X22695426Y25001853D01*
X22434273Y24893680D01*
X22199241Y24736637D01*
X21999363Y24536759D01*
X21842320Y24301727D01*
X21734147Y24040574D01*
X21679000Y23763335D01*
X21501000Y23763335D01*
X21445853Y24040574D01*
X21337680Y24301727D01*
X21180637Y24536759D01*
X20980759Y24736637D01*
X20745727Y24893680D01*
X20484574Y25001853D01*
X20207335Y25057000D01*
X19924665Y25057000D01*
X19647426Y25001853D01*
X19386273Y24893680D01*
X19151241Y24736637D01*
X18951363Y24536759D01*
X18794320Y24301727D01*
X18686147Y24040574D01*
X18631000Y23763335D01*
X660000Y23763335D01*
X660000Y27892664D01*
X14259000Y27892664D01*
X14259000Y26971335D01*
X14276870Y26789898D01*
X14347489Y26557099D01*
X14462168Y26342551D01*
X14616499Y26154498D01*
X14804552Y26000167D01*
X15019100Y25885489D01*
X15251899Y25814870D01*
X15494000Y25791025D01*
X15736102Y25814870D01*
X15968901Y25885489D01*
X16183449Y26000167D01*
X16371502Y26154498D01*
X16525833Y26342551D01*
X16640511Y26557099D01*
X16711130Y26789899D01*
X16729000Y26971336D01*
X16729000Y27892664D01*
X16799000Y27892664D01*
X16799000Y26971335D01*
X16816870Y26789898D01*
X16887489Y26557099D01*
X17002168Y26342551D01*
X17156499Y26154498D01*
X17344552Y26000167D01*
X17559100Y25885489D01*
X17791899Y25814870D01*
X18034000Y25791025D01*
X18276102Y25814870D01*
X18508901Y25885489D01*
X18723449Y26000167D01*
X18911502Y26154498D01*
X19065833Y26342551D01*
X19180511Y26557099D01*
X19251130Y26789899D01*
X19269000Y26971336D01*
X19269000Y27892664D01*
X19339000Y27892664D01*
X19339000Y26971335D01*
X19356870Y26789898D01*
X19427489Y26557099D01*
X19542168Y26342551D01*
X19696499Y26154498D01*
X19884552Y26000167D01*
X20099100Y25885489D01*
X20331899Y25814870D01*
X20574000Y25791025D01*
X20816102Y25814870D01*
X21048901Y25885489D01*
X21263449Y26000167D01*
X21451502Y26154498D01*
X21605833Y26342551D01*
X21720511Y26557099D01*
X21791130Y26789899D01*
X21809000Y26971336D01*
X21809000Y27892664D01*
X21879000Y27892664D01*
X21879000Y26971335D01*
X21896870Y26789898D01*
X21967489Y26557099D01*
X22082168Y26342551D01*
X22236499Y26154498D01*
X22424552Y26000167D01*
X22639100Y25885489D01*
X22871899Y25814870D01*
X23114000Y25791025D01*
X23356102Y25814870D01*
X23588901Y25885489D01*
X23803449Y26000167D01*
X23991502Y26154498D01*
X24145833Y26342551D01*
X24260511Y26557099D01*
X24331130Y26789899D01*
X24349000Y26971336D01*
X24349000Y27892664D01*
X24419000Y27892664D01*
X24419000Y26971335D01*
X24436870Y26789898D01*
X24507489Y26557099D01*
X24622168Y26342551D01*
X24776499Y26154498D01*
X24964552Y26000167D01*
X25179100Y25885489D01*
X25411899Y25814870D01*
X25654000Y25791025D01*
X25896102Y25814870D01*
X26128901Y25885489D01*
X26343449Y26000167D01*
X26531502Y26154498D01*
X26685833Y26342551D01*
X26800511Y26557099D01*
X26871130Y26789899D01*
X26889000Y26971336D01*
X26889000Y27892664D01*
X26959000Y27892664D01*
X26959000Y26971335D01*
X26976870Y26789898D01*
X27047489Y26557099D01*
X27162168Y26342551D01*
X27316499Y26154498D01*
X27504552Y26000167D01*
X27719100Y25885489D01*
X27951899Y25814870D01*
X28194000Y25791025D01*
X28436102Y25814870D01*
X28668901Y25885489D01*
X28883449Y26000167D01*
X29071502Y26154498D01*
X29225833Y26342551D01*
X29340511Y26557099D01*
X29411130Y26789899D01*
X29429000Y26971336D01*
X29429000Y27892664D01*
X29499000Y27892664D01*
X29499000Y26971335D01*
X29516870Y26789898D01*
X29587489Y26557099D01*
X29702168Y26342551D01*
X29856499Y26154498D01*
X30044552Y26000167D01*
X30259100Y25885489D01*
X30491899Y25814870D01*
X30734000Y25791025D01*
X30976102Y25814870D01*
X31208901Y25885489D01*
X31423449Y26000167D01*
X31611502Y26154498D01*
X31765833Y26342551D01*
X31880511Y26557099D01*
X31951130Y26789899D01*
X31969000Y26971336D01*
X31969000Y27892664D01*
X32039000Y27892664D01*
X32039000Y26971335D01*
X32056870Y26789898D01*
X32127489Y26557099D01*
X32242168Y26342551D01*
X32396499Y26154498D01*
X32584552Y26000167D01*
X32799100Y25885489D01*
X33031899Y25814870D01*
X33274000Y25791025D01*
X33516102Y25814870D01*
X33748901Y25885489D01*
X33963449Y26000167D01*
X34151502Y26154498D01*
X34305833Y26342551D01*
X34420511Y26557099D01*
X34491130Y26789899D01*
X34509000Y26971336D01*
X34509000Y27892664D01*
X34579000Y27892664D01*
X34579000Y26971335D01*
X34596870Y26789898D01*
X34667489Y26557099D01*
X34782168Y26342551D01*
X34936499Y26154498D01*
X35124552Y26000167D01*
X35339100Y25885489D01*
X35571899Y25814870D01*
X35814000Y25791025D01*
X36056102Y25814870D01*
X36288901Y25885489D01*
X36503449Y26000167D01*
X36691502Y26154498D01*
X36845833Y26342551D01*
X36960511Y26557099D01*
X37031130Y26789899D01*
X37049000Y26971336D01*
X37049000Y27892664D01*
X37119000Y27892664D01*
X37119000Y26971335D01*
X37136870Y26789898D01*
X37207489Y26557099D01*
X37322168Y26342551D01*
X37476499Y26154498D01*
X37664552Y26000167D01*
X37879100Y25885489D01*
X38111899Y25814870D01*
X38354000Y25791025D01*
X38596102Y25814870D01*
X38828901Y25885489D01*
X39043449Y26000167D01*
X39231502Y26154498D01*
X39385833Y26342551D01*
X39500511Y26557099D01*
X39571130Y26789899D01*
X39589000Y26971336D01*
X39589000Y27892664D01*
X39659000Y27892664D01*
X39659000Y26971335D01*
X39676870Y26789898D01*
X39747489Y26557099D01*
X39862168Y26342551D01*
X40016499Y26154498D01*
X40204552Y26000167D01*
X40419100Y25885489D01*
X40651899Y25814870D01*
X40894000Y25791025D01*
X41136102Y25814870D01*
X41368901Y25885489D01*
X41583449Y26000167D01*
X41771502Y26154498D01*
X41925833Y26342551D01*
X42040511Y26557099D01*
X42111130Y26789899D01*
X42129000Y26971336D01*
X42129000Y27892664D01*
X42199000Y27892664D01*
X42199000Y26971335D01*
X42216870Y26789898D01*
X42287489Y26557099D01*
X42402168Y26342551D01*
X42556499Y26154498D01*
X42744552Y26000167D01*
X42959100Y25885489D01*
X43191899Y25814870D01*
X43434000Y25791025D01*
X43676102Y25814870D01*
X43908901Y25885489D01*
X44123449Y26000167D01*
X44311502Y26154498D01*
X44465833Y26342551D01*
X44580511Y26557099D01*
X44651130Y26789899D01*
X44669000Y26971336D01*
X44669000Y27892664D01*
X44739000Y27892664D01*
X44739000Y26971335D01*
X44756870Y26789898D01*
X44827489Y26557099D01*
X44942168Y26342551D01*
X45096499Y26154498D01*
X45284552Y26000167D01*
X45499100Y25885489D01*
X45731899Y25814870D01*
X45974000Y25791025D01*
X46216102Y25814870D01*
X46448901Y25885489D01*
X46663449Y26000167D01*
X46851502Y26154498D01*
X47005833Y26342551D01*
X47120511Y26557099D01*
X47191130Y26789899D01*
X47209000Y26971336D01*
X47209000Y27892664D01*
X47279000Y27892664D01*
X47279000Y26971335D01*
X47296870Y26789898D01*
X47367489Y26557099D01*
X47482168Y26342551D01*
X47636499Y26154498D01*
X47824552Y26000167D01*
X48039100Y25885489D01*
X48271899Y25814870D01*
X48514000Y25791025D01*
X48756102Y25814870D01*
X48988901Y25885489D01*
X49203449Y26000167D01*
X49391502Y26154498D01*
X49545833Y26342551D01*
X49660511Y26557099D01*
X49731130Y26789899D01*
X49749000Y26971336D01*
X49749000Y27892664D01*
X49819000Y27892664D01*
X49819000Y26971335D01*
X49836870Y26789898D01*
X49907489Y26557099D01*
X50022168Y26342551D01*
X50176499Y26154498D01*
X50364552Y26000167D01*
X50579100Y25885489D01*
X50811899Y25814870D01*
X51054000Y25791025D01*
X51296102Y25814870D01*
X51528901Y25885489D01*
X51743449Y26000167D01*
X51931502Y26154498D01*
X52085833Y26342551D01*
X52200511Y26557099D01*
X52271130Y26789899D01*
X52289000Y26971336D01*
X52289000Y27892665D01*
X52271130Y28074102D01*
X52200511Y28306901D01*
X52085833Y28521449D01*
X51931502Y28709502D01*
X51743448Y28863833D01*
X51528900Y28978511D01*
X51296101Y29049130D01*
X51054000Y29072975D01*
X50811898Y29049130D01*
X50579099Y28978511D01*
X50364551Y28863833D01*
X50176498Y28709502D01*
X50022167Y28521448D01*
X49907489Y28306900D01*
X49836870Y28074101D01*
X49819000Y27892664D01*
X49749000Y27892664D01*
X49749000Y27892665D01*
X49731130Y28074102D01*
X49660511Y28306901D01*
X49545833Y28521449D01*
X49391502Y28709502D01*
X49203448Y28863833D01*
X48988900Y28978511D01*
X48756101Y29049130D01*
X48514000Y29072975D01*
X48271898Y29049130D01*
X48039099Y28978511D01*
X47824551Y28863833D01*
X47636498Y28709502D01*
X47482167Y28521448D01*
X47367489Y28306900D01*
X47296870Y28074101D01*
X47279000Y27892664D01*
X47209000Y27892664D01*
X47209000Y27892665D01*
X47191130Y28074102D01*
X47120511Y28306901D01*
X47005833Y28521449D01*
X46851502Y28709502D01*
X46663448Y28863833D01*
X46448900Y28978511D01*
X46216101Y29049130D01*
X45974000Y29072975D01*
X45731898Y29049130D01*
X45499099Y28978511D01*
X45284551Y28863833D01*
X45096498Y28709502D01*
X44942167Y28521448D01*
X44827489Y28306900D01*
X44756870Y28074101D01*
X44739000Y27892664D01*
X44669000Y27892664D01*
X44669000Y27892665D01*
X44651130Y28074102D01*
X44580511Y28306901D01*
X44465833Y28521449D01*
X44311502Y28709502D01*
X44123448Y28863833D01*
X43908900Y28978511D01*
X43676101Y29049130D01*
X43434000Y29072975D01*
X43191898Y29049130D01*
X42959099Y28978511D01*
X42744551Y28863833D01*
X42556498Y28709502D01*
X42402167Y28521448D01*
X42287489Y28306900D01*
X42216870Y28074101D01*
X42199000Y27892664D01*
X42129000Y27892664D01*
X42129000Y27892665D01*
X42111130Y28074102D01*
X42040511Y28306901D01*
X41925833Y28521449D01*
X41771502Y28709502D01*
X41583448Y28863833D01*
X41368900Y28978511D01*
X41136101Y29049130D01*
X40894000Y29072975D01*
X40651898Y29049130D01*
X40419099Y28978511D01*
X40204551Y28863833D01*
X40016498Y28709502D01*
X39862167Y28521448D01*
X39747489Y28306900D01*
X39676870Y28074101D01*
X39659000Y27892664D01*
X39589000Y27892664D01*
X39589000Y27892665D01*
X39571130Y28074102D01*
X39500511Y28306901D01*
X39385833Y28521449D01*
X39231502Y28709502D01*
X39043448Y28863833D01*
X38828900Y28978511D01*
X38596101Y29049130D01*
X38354000Y29072975D01*
X38111898Y29049130D01*
X37879099Y28978511D01*
X37664551Y28863833D01*
X37476498Y28709502D01*
X37322167Y28521448D01*
X37207489Y28306900D01*
X37136870Y28074101D01*
X37119000Y27892664D01*
X37049000Y27892664D01*
X37049000Y27892665D01*
X37031130Y28074102D01*
X36960511Y28306901D01*
X36845833Y28521449D01*
X36691502Y28709502D01*
X36503448Y28863833D01*
X36288900Y28978511D01*
X36056101Y29049130D01*
X35814000Y29072975D01*
X35571898Y29049130D01*
X35339099Y28978511D01*
X35124551Y28863833D01*
X34936498Y28709502D01*
X34782167Y28521448D01*
X34667489Y28306900D01*
X34596870Y28074101D01*
X34579000Y27892664D01*
X34509000Y27892664D01*
X34509000Y27892665D01*
X34491130Y28074102D01*
X34420511Y28306901D01*
X34305833Y28521449D01*
X34151502Y28709502D01*
X33963448Y28863833D01*
X33748900Y28978511D01*
X33516101Y29049130D01*
X33274000Y29072975D01*
X33031898Y29049130D01*
X32799099Y28978511D01*
X32584551Y28863833D01*
X32396498Y28709502D01*
X32242167Y28521448D01*
X32127489Y28306900D01*
X32056870Y28074101D01*
X32039000Y27892664D01*
X31969000Y27892664D01*
X31969000Y27892665D01*
X31951130Y28074102D01*
X31880511Y28306901D01*
X31765833Y28521449D01*
X31611502Y28709502D01*
X31423448Y28863833D01*
X31208900Y28978511D01*
X30976101Y29049130D01*
X30734000Y29072975D01*
X30491898Y29049130D01*
X30259099Y28978511D01*
X30044551Y28863833D01*
X29856498Y28709502D01*
X29702167Y28521448D01*
X29587489Y28306900D01*
X29516870Y28074101D01*
X29499000Y27892664D01*
X29429000Y27892664D01*
X29429000Y27892665D01*
X29411130Y28074102D01*
X29340511Y28306901D01*
X29225833Y28521449D01*
X29071502Y28709502D01*
X28883448Y28863833D01*
X28668900Y28978511D01*
X28436101Y29049130D01*
X28194000Y29072975D01*
X27951898Y29049130D01*
X27719099Y28978511D01*
X27504551Y28863833D01*
X27316498Y28709502D01*
X27162167Y28521448D01*
X27047489Y28306900D01*
X26976870Y28074101D01*
X26959000Y27892664D01*
X26889000Y27892664D01*
X26889000Y27892665D01*
X26871130Y28074102D01*
X26800511Y28306901D01*
X26685833Y28521449D01*
X26531502Y28709502D01*
X26343448Y28863833D01*
X26128900Y28978511D01*
X25896101Y29049130D01*
X25654000Y29072975D01*
X25411898Y29049130D01*
X25179099Y28978511D01*
X24964551Y28863833D01*
X24776498Y28709502D01*
X24622167Y28521448D01*
X24507489Y28306900D01*
X24436870Y28074101D01*
X24419000Y27892664D01*
X24349000Y27892664D01*
X24349000Y27892665D01*
X24331130Y28074102D01*
X24260511Y28306901D01*
X24145833Y28521449D01*
X23991502Y28709502D01*
X23803448Y28863833D01*
X23588900Y28978511D01*
X23356101Y29049130D01*
X23114000Y29072975D01*
X22871898Y29049130D01*
X22639099Y28978511D01*
X22424551Y28863833D01*
X22236498Y28709502D01*
X22082167Y28521448D01*
X21967489Y28306900D01*
X21896870Y28074101D01*
X21879000Y27892664D01*
X21809000Y27892664D01*
X21809000Y27892665D01*
X21791130Y28074102D01*
X21720511Y28306901D01*
X21605833Y28521449D01*
X21451502Y28709502D01*
X21263448Y28863833D01*
X21048900Y28978511D01*
X20816101Y29049130D01*
X20574000Y29072975D01*
X20331898Y29049130D01*
X20099099Y28978511D01*
X19884551Y28863833D01*
X19696498Y28709502D01*
X19542167Y28521448D01*
X19427489Y28306900D01*
X19356870Y28074101D01*
X19339000Y27892664D01*
X19269000Y27892664D01*
X19269000Y27892665D01*
X19251130Y28074102D01*
X19180511Y28306901D01*
X19065833Y28521449D01*
X18911502Y28709502D01*
X18723448Y28863833D01*
X18508900Y28978511D01*
X18276101Y29049130D01*
X18034000Y29072975D01*
X17791898Y29049130D01*
X17559099Y28978511D01*
X17344551Y28863833D01*
X17156498Y28709502D01*
X17002167Y28521448D01*
X16887489Y28306900D01*
X16816870Y28074101D01*
X16799000Y27892664D01*
X16729000Y27892664D01*
X16729000Y27892665D01*
X16711130Y28074102D01*
X16640511Y28306901D01*
X16525833Y28521449D01*
X16371502Y28709502D01*
X16183448Y28863833D01*
X15968900Y28978511D01*
X15736101Y29049130D01*
X15494000Y29072975D01*
X15251898Y29049130D01*
X15019099Y28978511D01*
X14804551Y28863833D01*
X14616498Y28709502D01*
X14462167Y28521448D01*
X14347489Y28306900D01*
X14276870Y28074101D01*
X14259000Y27892664D01*
X660000Y27892664D01*
X660000Y47586000D01*
X60487928Y47586000D01*
X60487928Y45886000D01*
X60500188Y45761518D01*
X60536498Y45641820D01*
X60595463Y45531506D01*
X60674815Y45434815D01*
X60771506Y45355463D01*
X60881820Y45296498D01*
X61001518Y45260188D01*
X61126000Y45247928D01*
X62826000Y45247928D01*
X62950482Y45260188D01*
X63070180Y45296498D01*
X63180494Y45355463D01*
X63277185Y45434815D01*
X63356537Y45531506D01*
X63415502Y45641820D01*
X63451812Y45761518D01*
X63464072Y45886000D01*
X63464072Y47586000D01*
X63451812Y47710482D01*
X63415502Y47830180D01*
X63356537Y47940494D01*
X63277185Y48037185D01*
X63180494Y48116537D01*
X63070180Y48175502D01*
X62997620Y48197513D01*
X63129475Y48329368D01*
X63291990Y48572589D01*
X63403932Y48842842D01*
X63461000Y49129740D01*
X63461000Y49422260D01*
X63403932Y49709158D01*
X63291990Y49979411D01*
X63129475Y50222632D01*
X62922632Y50429475D01*
X62748240Y50546000D01*
X62922632Y50662525D01*
X63129475Y50869368D01*
X63291990Y51112589D01*
X63403932Y51382842D01*
X63461000Y51669740D01*
X63461000Y51962260D01*
X63403932Y52249158D01*
X63291990Y52519411D01*
X63129475Y52762632D01*
X62922632Y52969475D01*
X62679411Y53131990D01*
X62409158Y53243932D01*
X62122260Y53301000D01*
X61829740Y53301000D01*
X61542842Y53243932D01*
X61272589Y53131990D01*
X61029368Y52969475D01*
X60822525Y52762632D01*
X60660010Y52519411D01*
X60548068Y52249158D01*
X60491000Y51962260D01*
X60491000Y51669740D01*
X60548068Y51382842D01*
X60660010Y51112589D01*
X60822525Y50869368D01*
X61029368Y50662525D01*
X61203760Y50546000D01*
X61029368Y50429475D01*
X60822525Y50222632D01*
X60660010Y49979411D01*
X60548068Y49709158D01*
X60491000Y49422260D01*
X60491000Y49129740D01*
X60548068Y48842842D01*
X60660010Y48572589D01*
X60822525Y48329368D01*
X60954380Y48197513D01*
X60881820Y48175502D01*
X60771506Y48116537D01*
X60674815Y48037185D01*
X60595463Y47940494D01*
X60536498Y47830180D01*
X60500188Y47710482D01*
X60487928Y47586000D01*
X660000Y47586000D01*
X660000Y52705000D01*
X14259000Y52705000D01*
X14259000Y52305000D01*
X14307507Y52066504D01*
X14401610Y51842054D01*
X14537693Y51640275D01*
X14710526Y51468922D01*
X14913467Y51334579D01*
X15138718Y51242409D01*
X15176391Y51238538D01*
X15367000Y51363269D01*
X15367000Y52705000D01*
X15621000Y52705000D01*
X15621000Y51363269D01*
X15811609Y51238538D01*
X15849282Y51242409D01*
X16074533Y51334579D01*
X16277474Y51468922D01*
X16450307Y51640275D01*
X16586390Y51842054D01*
X16680493Y52066504D01*
X16729000Y52305000D01*
X16729000Y52705000D01*
X15621000Y52705000D01*
X15367000Y52705000D01*
X14259000Y52705000D01*
X660000Y52705000D01*
X660000Y53359000D01*
X14259000Y53359000D01*
X14259000Y52959000D01*
X15367000Y52959000D01*
X15367000Y54300731D01*
X15621000Y54300731D01*
X15621000Y52959000D01*
X16729000Y52959000D01*
X16729000Y53292664D01*
X16799000Y53292664D01*
X16799000Y52371335D01*
X16816870Y52189898D01*
X16887489Y51957099D01*
X17002168Y51742551D01*
X17156499Y51554498D01*
X17344552Y51400167D01*
X17559100Y51285489D01*
X17791899Y51214870D01*
X18034000Y51191025D01*
X18276102Y51214870D01*
X18508901Y51285489D01*
X18723449Y51400167D01*
X18911502Y51554498D01*
X19065833Y51742551D01*
X19180511Y51957099D01*
X19251130Y52189899D01*
X19269000Y52371336D01*
X19269000Y53292664D01*
X19339000Y53292664D01*
X19339000Y52371335D01*
X19356870Y52189898D01*
X19427489Y51957099D01*
X19542168Y51742551D01*
X19696499Y51554498D01*
X19884552Y51400167D01*
X20099100Y51285489D01*
X20331899Y51214870D01*
X20574000Y51191025D01*
X20816102Y51214870D01*
X21048901Y51285489D01*
X21263449Y51400167D01*
X21451502Y51554498D01*
X21605833Y51742551D01*
X21720511Y51957099D01*
X21791130Y52189899D01*
X21809000Y52371336D01*
X21809000Y53292664D01*
X21879000Y53292664D01*
X21879000Y52371335D01*
X21896870Y52189898D01*
X21967489Y51957099D01*
X22082168Y51742551D01*
X22236499Y51554498D01*
X22424552Y51400167D01*
X22639100Y51285489D01*
X22871899Y51214870D01*
X23114000Y51191025D01*
X23356102Y51214870D01*
X23588901Y51285489D01*
X23803449Y51400167D01*
X23991502Y51554498D01*
X24145833Y51742551D01*
X24260511Y51957099D01*
X24331130Y52189899D01*
X24349000Y52371336D01*
X24349000Y53292664D01*
X24419000Y53292664D01*
X24419000Y52371335D01*
X24436870Y52189898D01*
X24507489Y51957099D01*
X24622168Y51742551D01*
X24776499Y51554498D01*
X24964552Y51400167D01*
X25179100Y51285489D01*
X25411899Y51214870D01*
X25654000Y51191025D01*
X25896102Y51214870D01*
X26128901Y51285489D01*
X26343449Y51400167D01*
X26531502Y51554498D01*
X26685833Y51742551D01*
X26800511Y51957099D01*
X26871130Y52189899D01*
X26889000Y52371336D01*
X26889000Y53292664D01*
X26959000Y53292664D01*
X26959000Y52371335D01*
X26976870Y52189898D01*
X27047489Y51957099D01*
X27162168Y51742551D01*
X27316499Y51554498D01*
X27504552Y51400167D01*
X27719100Y51285489D01*
X27951899Y51214870D01*
X28194000Y51191025D01*
X28436102Y51214870D01*
X28668901Y51285489D01*
X28883449Y51400167D01*
X29071502Y51554498D01*
X29225833Y51742551D01*
X29340511Y51957099D01*
X29390487Y52121846D01*
X29511640Y52243000D01*
X29516870Y52189898D01*
X29587489Y51957099D01*
X29702168Y51742551D01*
X29856499Y51554498D01*
X30044552Y51400167D01*
X30259100Y51285489D01*
X30491899Y51214870D01*
X30734000Y51191025D01*
X30976102Y51214870D01*
X31208901Y51285489D01*
X31423449Y51400167D01*
X31611502Y51554498D01*
X31765833Y51742551D01*
X31880511Y51957099D01*
X31951130Y52189899D01*
X31969000Y52371336D01*
X31969000Y53292664D01*
X32039000Y53292664D01*
X32039000Y52371335D01*
X32056870Y52189898D01*
X32127489Y51957099D01*
X32242168Y51742551D01*
X32396499Y51554498D01*
X32584552Y51400167D01*
X32799100Y51285489D01*
X33031899Y51214870D01*
X33274000Y51191025D01*
X33516102Y51214870D01*
X33748901Y51285489D01*
X33963449Y51400167D01*
X34151502Y51554498D01*
X34305833Y51742551D01*
X34420511Y51957099D01*
X34491130Y52189899D01*
X34509000Y52371336D01*
X34509000Y53292664D01*
X34579000Y53292664D01*
X34579000Y52371335D01*
X34596870Y52189898D01*
X34667489Y51957099D01*
X34782168Y51742551D01*
X34936499Y51554498D01*
X35124552Y51400167D01*
X35339100Y51285489D01*
X35571899Y51214870D01*
X35814000Y51191025D01*
X36056102Y51214870D01*
X36288901Y51285489D01*
X36503449Y51400167D01*
X36691502Y51554498D01*
X36845833Y51742551D01*
X36960511Y51957099D01*
X37031130Y52189899D01*
X37049000Y52371336D01*
X37049000Y53292664D01*
X37119000Y53292664D01*
X37119000Y52371335D01*
X37136870Y52189898D01*
X37207489Y51957099D01*
X37322168Y51742551D01*
X37476499Y51554498D01*
X37664552Y51400167D01*
X37879100Y51285489D01*
X38111899Y51214870D01*
X38354000Y51191025D01*
X38596102Y51214870D01*
X38828901Y51285489D01*
X39043449Y51400167D01*
X39231502Y51554498D01*
X39385833Y51742551D01*
X39500511Y51957099D01*
X39571130Y52189899D01*
X39589000Y52371336D01*
X39589000Y53292664D01*
X39659000Y53292664D01*
X39659000Y52371335D01*
X39676870Y52189898D01*
X39747489Y51957099D01*
X39862168Y51742551D01*
X40016499Y51554498D01*
X40204552Y51400167D01*
X40419100Y51285489D01*
X40651899Y51214870D01*
X40894000Y51191025D01*
X41136102Y51214870D01*
X41368901Y51285489D01*
X41583449Y51400167D01*
X41771502Y51554498D01*
X41925833Y51742551D01*
X42040511Y51957099D01*
X42111130Y52189899D01*
X42129000Y52371336D01*
X42129000Y53292664D01*
X42199000Y53292664D01*
X42199000Y52371335D01*
X42216870Y52189898D01*
X42287489Y51957099D01*
X42402168Y51742551D01*
X42556499Y51554498D01*
X42744552Y51400167D01*
X42959100Y51285489D01*
X43191899Y51214870D01*
X43434000Y51191025D01*
X43676102Y51214870D01*
X43908901Y51285489D01*
X44123449Y51400167D01*
X44311502Y51554498D01*
X44465833Y51742551D01*
X44580511Y51957099D01*
X44651130Y52189899D01*
X44669000Y52371336D01*
X44669000Y53292664D01*
X44739000Y53292664D01*
X44739000Y52371335D01*
X44756870Y52189898D01*
X44827489Y51957099D01*
X44942168Y51742551D01*
X45096499Y51554498D01*
X45284552Y51400167D01*
X45499100Y51285489D01*
X45731899Y51214870D01*
X45974000Y51191025D01*
X46216102Y51214870D01*
X46448901Y51285489D01*
X46663449Y51400167D01*
X46851502Y51554498D01*
X47005833Y51742551D01*
X47120511Y51957099D01*
X47191130Y52189899D01*
X47209000Y52371336D01*
X47209000Y53292664D01*
X47279000Y53292664D01*
X47279000Y52371335D01*
X47296870Y52189898D01*
X47367489Y51957099D01*
X47482168Y51742551D01*
X47636499Y51554498D01*
X47824552Y51400167D01*
X48039100Y51285489D01*
X48271899Y51214870D01*
X48514000Y51191025D01*
X48756102Y51214870D01*
X48988901Y51285489D01*
X49203449Y51400167D01*
X49391502Y51554498D01*
X49545833Y51742551D01*
X49660511Y51957099D01*
X49731130Y52189899D01*
X49749000Y52371336D01*
X49749000Y53292664D01*
X49819000Y53292664D01*
X49819000Y52371335D01*
X49836870Y52189898D01*
X49907489Y51957099D01*
X50022168Y51742551D01*
X50176499Y51554498D01*
X50364552Y51400167D01*
X50579100Y51285489D01*
X50811899Y51214870D01*
X51054000Y51191025D01*
X51296102Y51214870D01*
X51528901Y51285489D01*
X51743449Y51400167D01*
X51931502Y51554498D01*
X52085833Y51742551D01*
X52200511Y51957099D01*
X52271130Y52189899D01*
X52289000Y52371336D01*
X52289000Y53292665D01*
X52271130Y53474102D01*
X52200511Y53706901D01*
X52085833Y53921449D01*
X51931502Y54109502D01*
X51743448Y54263833D01*
X51528900Y54378511D01*
X51296101Y54449130D01*
X51054000Y54472975D01*
X50811898Y54449130D01*
X50579099Y54378511D01*
X50364551Y54263833D01*
X50176498Y54109502D01*
X50022167Y53921448D01*
X49907489Y53706900D01*
X49836870Y53474101D01*
X49819000Y53292664D01*
X49749000Y53292664D01*
X49749000Y53292665D01*
X49731130Y53474102D01*
X49660511Y53706901D01*
X49545833Y53921449D01*
X49391502Y54109502D01*
X49203448Y54263833D01*
X48988900Y54378511D01*
X48756101Y54449130D01*
X48514000Y54472975D01*
X48271898Y54449130D01*
X48039099Y54378511D01*
X47824551Y54263833D01*
X47636498Y54109502D01*
X47482167Y53921448D01*
X47367489Y53706900D01*
X47296870Y53474101D01*
X47279000Y53292664D01*
X47209000Y53292664D01*
X47209000Y53292665D01*
X47191130Y53474102D01*
X47120511Y53706901D01*
X47005833Y53921449D01*
X46851502Y54109502D01*
X46663448Y54263833D01*
X46448900Y54378511D01*
X46216101Y54449130D01*
X45974000Y54472975D01*
X45731898Y54449130D01*
X45499099Y54378511D01*
X45284551Y54263833D01*
X45096498Y54109502D01*
X44942167Y53921448D01*
X44827489Y53706900D01*
X44756870Y53474101D01*
X44739000Y53292664D01*
X44669000Y53292664D01*
X44669000Y53292665D01*
X44651130Y53474102D01*
X44580511Y53706901D01*
X44465833Y53921449D01*
X44311502Y54109502D01*
X44123448Y54263833D01*
X43908900Y54378511D01*
X43676101Y54449130D01*
X43434000Y54472975D01*
X43191898Y54449130D01*
X42959099Y54378511D01*
X42744551Y54263833D01*
X42556498Y54109502D01*
X42402167Y53921448D01*
X42287489Y53706900D01*
X42216870Y53474101D01*
X42199000Y53292664D01*
X42129000Y53292664D01*
X42129000Y53292665D01*
X42111130Y53474102D01*
X42040511Y53706901D01*
X41925833Y53921449D01*
X41771502Y54109502D01*
X41583448Y54263833D01*
X41368900Y54378511D01*
X41136101Y54449130D01*
X40894000Y54472975D01*
X40651898Y54449130D01*
X40419099Y54378511D01*
X40204551Y54263833D01*
X40016498Y54109502D01*
X39862167Y53921448D01*
X39747489Y53706900D01*
X39676870Y53474101D01*
X39659000Y53292664D01*
X39589000Y53292664D01*
X39589000Y53292665D01*
X39571130Y53474102D01*
X39500511Y53706901D01*
X39385833Y53921449D01*
X39231502Y54109502D01*
X39043448Y54263833D01*
X38828900Y54378511D01*
X38596101Y54449130D01*
X38354000Y54472975D01*
X38111898Y54449130D01*
X37879099Y54378511D01*
X37664551Y54263833D01*
X37476498Y54109502D01*
X37322167Y53921448D01*
X37207489Y53706900D01*
X37136870Y53474101D01*
X37119000Y53292664D01*
X37049000Y53292664D01*
X37049000Y53292665D01*
X37031130Y53474102D01*
X36960511Y53706901D01*
X36845833Y53921449D01*
X36691502Y54109502D01*
X36503448Y54263833D01*
X36288900Y54378511D01*
X36056101Y54449130D01*
X35814000Y54472975D01*
X35571898Y54449130D01*
X35339099Y54378511D01*
X35124551Y54263833D01*
X34936498Y54109502D01*
X34782167Y53921448D01*
X34667489Y53706900D01*
X34596870Y53474101D01*
X34579000Y53292664D01*
X34509000Y53292664D01*
X34509000Y53292665D01*
X34491130Y53474102D01*
X34420511Y53706901D01*
X34305833Y53921449D01*
X34151502Y54109502D01*
X33963448Y54263833D01*
X33748900Y54378511D01*
X33516101Y54449130D01*
X33274000Y54472975D01*
X33031898Y54449130D01*
X32799099Y54378511D01*
X32584551Y54263833D01*
X32396498Y54109502D01*
X32242167Y53921448D01*
X32127489Y53706900D01*
X32056870Y53474101D01*
X32039000Y53292664D01*
X31969000Y53292664D01*
X31969000Y53292665D01*
X31951130Y53474102D01*
X31880511Y53706901D01*
X31765833Y53921449D01*
X31611502Y54109502D01*
X31483330Y54214689D01*
X33053641Y55784999D01*
X33430250Y55784999D01*
X33486001Y55779508D01*
X33541752Y55784999D01*
X33541753Y55784999D01*
X33708500Y55801422D01*
X33922448Y55866323D01*
X34119624Y55971715D01*
X34292450Y56113550D01*
X34327997Y56156864D01*
X36732468Y58561335D01*
X41491000Y58561335D01*
X41491000Y58278665D01*
X41546147Y58001426D01*
X41654320Y57740273D01*
X41811363Y57505241D01*
X42011241Y57305363D01*
X42246273Y57148320D01*
X42507426Y57040147D01*
X42784665Y56985000D01*
X43067335Y56985000D01*
X43344574Y57040147D01*
X43605727Y57148320D01*
X43840759Y57305363D01*
X44040637Y57505241D01*
X44197680Y57740273D01*
X44305853Y58001426D01*
X44361000Y58278665D01*
X44361000Y58561335D01*
X44305853Y58838574D01*
X44197680Y59099727D01*
X44040637Y59334759D01*
X43840759Y59534637D01*
X43605727Y59691680D01*
X43344574Y59799853D01*
X43067335Y59855000D01*
X42784665Y59855000D01*
X42507426Y59799853D01*
X42246273Y59691680D01*
X42011241Y59534637D01*
X41811363Y59334759D01*
X41654320Y59099727D01*
X41546147Y58838574D01*
X41491000Y58561335D01*
X36732468Y58561335D01*
X39371141Y61200007D01*
X39414449Y61235549D01*
X39556284Y61408375D01*
X39661676Y61605551D01*
X39726577Y61819499D01*
X39743000Y61986246D01*
X39743000Y61986255D01*
X39748490Y62041997D01*
X39743000Y62097739D01*
X39743000Y70916893D01*
X39761475Y70935368D01*
X39878000Y71109760D01*
X39994525Y70935368D01*
X40201368Y70728525D01*
X40444589Y70566010D01*
X40714842Y70454068D01*
X41001740Y70397000D01*
X41294260Y70397000D01*
X41581158Y70454068D01*
X41851411Y70566010D01*
X42094632Y70728525D01*
X42301475Y70935368D01*
X42463990Y71178589D01*
X42575932Y71448842D01*
X42633000Y71735740D01*
X42633000Y72028260D01*
X42575932Y72315158D01*
X42463990Y72585411D01*
X42301475Y72828632D01*
X42094632Y73035475D01*
X41851411Y73197990D01*
X41581158Y73309932D01*
X41294260Y73367000D01*
X41001740Y73367000D01*
X40714842Y73309932D01*
X40444589Y73197990D01*
X40201368Y73035475D01*
X39994525Y72828632D01*
X39878000Y72654240D01*
X39761475Y72828632D01*
X39554632Y73035475D01*
X39311411Y73197990D01*
X39041158Y73309932D01*
X38754260Y73367000D01*
X38461740Y73367000D01*
X38174842Y73309932D01*
X37904589Y73197990D01*
X37661368Y73035475D01*
X37454525Y72828632D01*
X37332805Y72646466D01*
X37263178Y72763355D01*
X37068269Y72979588D01*
X36834920Y73153641D01*
X36572099Y73278825D01*
X36424890Y73323476D01*
X36195000Y73202155D01*
X36195000Y72009000D01*
X36215000Y72009000D01*
X36215000Y71755000D01*
X36195000Y71755000D01*
X36195000Y70561845D01*
X36424890Y70440524D01*
X36572099Y70485175D01*
X36834920Y70610359D01*
X37068269Y70784412D01*
X37263178Y71000645D01*
X37332805Y71117534D01*
X37454525Y70935368D01*
X37473001Y70916892D01*
X37473000Y62512130D01*
X34044392Y59083522D01*
X34037680Y59099727D01*
X33880637Y59334759D01*
X33680759Y59534637D01*
X33445727Y59691680D01*
X33184574Y59799853D01*
X32907335Y59855000D01*
X32624665Y59855000D01*
X32347426Y59799853D01*
X32086273Y59691680D01*
X31851241Y59534637D01*
X31750000Y59433396D01*
X31648759Y59534637D01*
X31413727Y59691680D01*
X31152574Y59799853D01*
X30875335Y59855000D01*
X30592665Y59855000D01*
X30315426Y59799853D01*
X30054273Y59691680D01*
X29819241Y59534637D01*
X29619363Y59334759D01*
X29462320Y59099727D01*
X29354147Y58838574D01*
X29299000Y58561335D01*
X29299000Y58278665D01*
X29354147Y58001426D01*
X29462320Y57740273D01*
X29619363Y57505241D01*
X29819241Y57305363D01*
X30054273Y57148320D01*
X30315426Y57040147D01*
X30592665Y56985000D01*
X30875335Y56985000D01*
X31085102Y57026726D01*
X28490888Y54432510D01*
X28436101Y54449130D01*
X28194000Y54472975D01*
X27951898Y54449130D01*
X27719099Y54378511D01*
X27504551Y54263833D01*
X27316498Y54109502D01*
X27162167Y53921448D01*
X27047489Y53706900D01*
X26976870Y53474101D01*
X26959000Y53292664D01*
X26889000Y53292664D01*
X26889000Y53292665D01*
X26871130Y53474102D01*
X26800511Y53706901D01*
X26685833Y53921449D01*
X26531502Y54109502D01*
X26343448Y54263833D01*
X26128900Y54378511D01*
X25896101Y54449130D01*
X25654000Y54472975D01*
X25411898Y54449130D01*
X25179099Y54378511D01*
X24964551Y54263833D01*
X24776498Y54109502D01*
X24622167Y53921448D01*
X24507489Y53706900D01*
X24436870Y53474101D01*
X24419000Y53292664D01*
X24349000Y53292664D01*
X24349000Y53292665D01*
X24331130Y53474102D01*
X24260511Y53706901D01*
X24145833Y53921449D01*
X23991502Y54109502D01*
X23803448Y54263833D01*
X23588900Y54378511D01*
X23356101Y54449130D01*
X23114000Y54472975D01*
X22871898Y54449130D01*
X22639099Y54378511D01*
X22424551Y54263833D01*
X22236498Y54109502D01*
X22082167Y53921448D01*
X21967489Y53706900D01*
X21896870Y53474101D01*
X21879000Y53292664D01*
X21809000Y53292664D01*
X21809000Y53292665D01*
X21791130Y53474102D01*
X21720511Y53706901D01*
X21605833Y53921449D01*
X21451502Y54109502D01*
X21263448Y54263833D01*
X21048900Y54378511D01*
X20816101Y54449130D01*
X20574000Y54472975D01*
X20331898Y54449130D01*
X20099099Y54378511D01*
X19884551Y54263833D01*
X19696498Y54109502D01*
X19542167Y53921448D01*
X19427489Y53706900D01*
X19356870Y53474101D01*
X19339000Y53292664D01*
X19269000Y53292664D01*
X19269000Y53292665D01*
X19251130Y53474102D01*
X19180511Y53706901D01*
X19065833Y53921449D01*
X18911502Y54109502D01*
X18723448Y54263833D01*
X18508900Y54378511D01*
X18276101Y54449130D01*
X18034000Y54472975D01*
X17791898Y54449130D01*
X17559099Y54378511D01*
X17344551Y54263833D01*
X17156498Y54109502D01*
X17002167Y53921448D01*
X16887489Y53706900D01*
X16816870Y53474101D01*
X16799000Y53292664D01*
X16729000Y53292664D01*
X16729000Y53359000D01*
X16680493Y53597496D01*
X16586390Y53821946D01*
X16450307Y54023725D01*
X16277474Y54195078D01*
X16074533Y54329421D01*
X15849282Y54421591D01*
X15811609Y54425462D01*
X15621000Y54300731D01*
X15367000Y54300731D01*
X15176391Y54425462D01*
X15138718Y54421591D01*
X14913467Y54329421D01*
X14710526Y54195078D01*
X14537693Y54023725D01*
X14401610Y53821946D01*
X14307507Y53597496D01*
X14259000Y53359000D01*
X660000Y53359000D01*
X660000Y55649298D01*
X14680903Y55649298D01*
X14752486Y55405329D01*
X15007996Y55284429D01*
X15282184Y55215700D01*
X15564512Y55201783D01*
X15844130Y55243213D01*
X16110292Y55338397D01*
X16235514Y55405329D01*
X16307097Y55649298D01*
X15494000Y56462395D01*
X14680903Y55649298D01*
X660000Y55649298D01*
X660000Y56858000D01*
X7959928Y56858000D01*
X7972188Y56733518D01*
X8008498Y56613820D01*
X8067463Y56503506D01*
X8146815Y56406815D01*
X8243506Y56327463D01*
X8353820Y56268498D01*
X8473518Y56232188D01*
X8598000Y56219928D01*
X9112250Y56223000D01*
X9271000Y56381750D01*
X9271000Y57531000D01*
X9525000Y57531000D01*
X9525000Y56381750D01*
X9683750Y56223000D01*
X10198000Y56219928D01*
X10322482Y56232188D01*
X10442180Y56268498D01*
X10552494Y56327463D01*
X10649185Y56406815D01*
X10728537Y56503506D01*
X10764874Y56571488D01*
X14053783Y56571488D01*
X14095213Y56291870D01*
X14190397Y56025708D01*
X14257329Y55900486D01*
X14501298Y55828903D01*
X15314395Y56642000D01*
X15673605Y56642000D01*
X16486702Y55828903D01*
X16730671Y55900486D01*
X16851571Y56155996D01*
X16920300Y56430184D01*
X16934217Y56712512D01*
X16892787Y56992130D01*
X16797603Y57258292D01*
X16730671Y57383514D01*
X16486702Y57455097D01*
X15673605Y56642000D01*
X15314395Y56642000D01*
X14501298Y57455097D01*
X14257329Y57383514D01*
X14136429Y57128004D01*
X14067700Y56853816D01*
X14053783Y56571488D01*
X10764874Y56571488D01*
X10787502Y56613820D01*
X10823812Y56733518D01*
X10836072Y56858000D01*
X10833000Y57372250D01*
X10674250Y57531000D01*
X9525000Y57531000D01*
X9271000Y57531000D01*
X8121750Y57531000D01*
X7963000Y57372250D01*
X7959928Y56858000D01*
X660000Y56858000D01*
X660000Y57634702D01*
X14680903Y57634702D01*
X15494000Y56821605D01*
X16307097Y57634702D01*
X16235514Y57878671D01*
X15980004Y57999571D01*
X15705816Y58068300D01*
X15423488Y58082217D01*
X15143870Y58040787D01*
X14877708Y57945603D01*
X14752486Y57878671D01*
X14680903Y57634702D01*
X660000Y57634702D01*
X660000Y58458000D01*
X7959928Y58458000D01*
X7963000Y57943750D01*
X8121750Y57785000D01*
X9271000Y57785000D01*
X9271000Y57805000D01*
X9525000Y57805000D01*
X9525000Y57785000D01*
X10674250Y57785000D01*
X10833000Y57943750D01*
X10836072Y58458000D01*
X10825895Y58561335D01*
X19139000Y58561335D01*
X19139000Y58278665D01*
X19194147Y58001426D01*
X19302320Y57740273D01*
X19459363Y57505241D01*
X19659241Y57305363D01*
X19894273Y57148320D01*
X20155426Y57040147D01*
X20432665Y56985000D01*
X20715335Y56985000D01*
X20992574Y57040147D01*
X21253727Y57148320D01*
X21488759Y57305363D01*
X21688637Y57505241D01*
X21845680Y57740273D01*
X21953853Y58001426D01*
X22009000Y58278665D01*
X22009000Y58561335D01*
X21953853Y58838574D01*
X21845680Y59099727D01*
X21688637Y59334759D01*
X21488759Y59534637D01*
X21253727Y59691680D01*
X20992574Y59799853D01*
X20715335Y59855000D01*
X20432665Y59855000D01*
X20155426Y59799853D01*
X19894273Y59691680D01*
X19659241Y59534637D01*
X19459363Y59334759D01*
X19302320Y59099727D01*
X19194147Y58838574D01*
X19139000Y58561335D01*
X10825895Y58561335D01*
X10823812Y58582482D01*
X10787502Y58702180D01*
X10728537Y58812494D01*
X10649185Y58909185D01*
X10552494Y58988537D01*
X10442180Y59047502D01*
X10346057Y59076661D01*
X10512637Y59243241D01*
X10669680Y59478273D01*
X10777853Y59739426D01*
X10833000Y60016665D01*
X10833000Y60299335D01*
X10777853Y60576574D01*
X10669680Y60837727D01*
X10512637Y61072759D01*
X10312759Y61272637D01*
X10077727Y61429680D01*
X9816574Y61537853D01*
X9539335Y61593000D01*
X9256665Y61593000D01*
X8979426Y61537853D01*
X8718273Y61429680D01*
X8483241Y61272637D01*
X8283363Y61072759D01*
X8126320Y60837727D01*
X8018147Y60576574D01*
X7963000Y60299335D01*
X7963000Y60016665D01*
X8018147Y59739426D01*
X8126320Y59478273D01*
X8283363Y59243241D01*
X8449943Y59076661D01*
X8353820Y59047502D01*
X8243506Y58988537D01*
X8146815Y58909185D01*
X8067463Y58812494D01*
X8008498Y58702180D01*
X7972188Y58582482D01*
X7959928Y58458000D01*
X660000Y58458000D01*
X660000Y61783335D01*
X14059000Y61783335D01*
X14059000Y61500665D01*
X14114147Y61223426D01*
X14222320Y60962273D01*
X14379363Y60727241D01*
X14579241Y60527363D01*
X14814273Y60370320D01*
X15075426Y60262147D01*
X15352665Y60207000D01*
X15635335Y60207000D01*
X15912574Y60262147D01*
X16173727Y60370320D01*
X16408759Y60527363D01*
X16608637Y60727241D01*
X16765680Y60962273D01*
X16873853Y61223426D01*
X16929000Y61500665D01*
X16929000Y61783335D01*
X16873853Y62060574D01*
X16765680Y62321727D01*
X16608637Y62556759D01*
X16408759Y62756637D01*
X16173727Y62913680D01*
X15912574Y63021853D01*
X15635335Y63077000D01*
X15352665Y63077000D01*
X15075426Y63021853D01*
X14814273Y62913680D01*
X14579241Y62756637D01*
X14379363Y62556759D01*
X14222320Y62321727D01*
X14114147Y62060574D01*
X14059000Y61783335D01*
X660000Y61783335D01*
X660000Y66279000D01*
X9597928Y66279000D01*
X9597928Y64529000D01*
X9627001Y64233814D01*
X9713104Y63949972D01*
X9852927Y63688382D01*
X10041097Y63459097D01*
X10270382Y63270927D01*
X10531972Y63131104D01*
X10815814Y63045001D01*
X11111000Y63015928D01*
X12861000Y63015928D01*
X13156186Y63045001D01*
X13440028Y63131104D01*
X13701618Y63270927D01*
X13930903Y63459097D01*
X14119073Y63688382D01*
X14258896Y63949972D01*
X14344999Y64233814D01*
X14374072Y64529000D01*
X14374072Y66049000D01*
X26243928Y66049000D01*
X26243928Y64799000D01*
X26261472Y64620868D01*
X26313431Y64449582D01*
X26397808Y64291724D01*
X26511361Y64153361D01*
X26649724Y64039808D01*
X26807582Y63955431D01*
X26978868Y63903472D01*
X27157000Y63885928D01*
X27407439Y63885928D01*
X27432000Y63883509D01*
X27456561Y63885928D01*
X27513928Y63885928D01*
X27513928Y62729000D01*
X27531472Y62550868D01*
X27583431Y62379582D01*
X27667808Y62221724D01*
X27781361Y62083361D01*
X27919724Y61969808D01*
X28077582Y61885431D01*
X28248868Y61833472D01*
X28427000Y61815928D01*
X28977000Y61815928D01*
X29155132Y61833472D01*
X29326418Y61885431D01*
X29484276Y61969808D01*
X29622639Y62083361D01*
X29736192Y62221724D01*
X29820569Y62379582D01*
X29872528Y62550868D01*
X29890072Y62729000D01*
X29890072Y63885928D01*
X30522000Y63885928D01*
X30646482Y63898188D01*
X30766180Y63934498D01*
X30876494Y63993463D01*
X30973185Y64072815D01*
X31052537Y64169506D01*
X31111502Y64279820D01*
X31147812Y64399518D01*
X31160072Y64524000D01*
X31160072Y65532796D01*
X32117176Y64575691D01*
X32155431Y64449582D01*
X32239808Y64291724D01*
X32353361Y64153361D01*
X32491724Y64039808D01*
X32649582Y63955431D01*
X32820868Y63903472D01*
X32999000Y63885928D01*
X33249439Y63885928D01*
X33274000Y63883509D01*
X33298561Y63885928D01*
X33355928Y63885928D01*
X33355928Y62729000D01*
X33373472Y62550868D01*
X33425431Y62379582D01*
X33509808Y62221724D01*
X33623361Y62083361D01*
X33761724Y61969808D01*
X33919582Y61885431D01*
X34090868Y61833472D01*
X34269000Y61815928D01*
X34819000Y61815928D01*
X34997132Y61833472D01*
X35168418Y61885431D01*
X35326276Y61969808D01*
X35464639Y62083361D01*
X35578192Y62221724D01*
X35662569Y62379582D01*
X35714528Y62550868D01*
X35732072Y62729000D01*
X35732072Y63885928D01*
X36364000Y63885928D01*
X36488482Y63898188D01*
X36608180Y63934498D01*
X36718494Y63993463D01*
X36815185Y64072815D01*
X36894537Y64169506D01*
X36953502Y64279820D01*
X36989812Y64399518D01*
X37002072Y64524000D01*
X37002072Y66324000D01*
X36989812Y66448482D01*
X36953502Y66568180D01*
X36894537Y66678494D01*
X36815185Y66775185D01*
X36718494Y66854537D01*
X36608180Y66913502D01*
X36488482Y66949812D01*
X36364000Y66962072D01*
X35264000Y66962072D01*
X35139518Y66949812D01*
X35019820Y66913502D01*
X34909506Y66854537D01*
X34812815Y66775185D01*
X34733463Y66678494D01*
X34674498Y66568180D01*
X34638188Y66448482D01*
X34625928Y66324000D01*
X34625928Y64892072D01*
X34462072Y64892072D01*
X34462072Y66049000D01*
X34444528Y66227132D01*
X34392569Y66398418D01*
X34308192Y66556276D01*
X34194639Y66694639D01*
X34056276Y66808192D01*
X33898418Y66892569D01*
X33727132Y66944528D01*
X33549000Y66962072D01*
X32999000Y66962072D01*
X32946255Y66956877D01*
X32115995Y67787137D01*
X32080448Y67830450D01*
X31907622Y67972285D01*
X31710446Y68077677D01*
X31496498Y68142578D01*
X31329751Y68159001D01*
X31329750Y68159001D01*
X31273999Y68164492D01*
X31218248Y68159001D01*
X28917750Y68159001D01*
X28861999Y68164492D01*
X28806247Y68159001D01*
X28639500Y68142578D01*
X28425552Y68077677D01*
X28228376Y67972285D01*
X28055550Y67830450D01*
X28020007Y67787141D01*
X27194939Y66962072D01*
X27157000Y66962072D01*
X26978868Y66944528D01*
X26807582Y66892569D01*
X26649724Y66808192D01*
X26511361Y66694639D01*
X26397808Y66556276D01*
X26313431Y66398418D01*
X26261472Y66227132D01*
X26243928Y66049000D01*
X14374072Y66049000D01*
X14374072Y66279000D01*
X14344999Y66574186D01*
X14258896Y66858028D01*
X14119073Y67119618D01*
X13930903Y67348903D01*
X13701618Y67537073D01*
X13440028Y67676896D01*
X13310840Y67716085D01*
X14700250Y67719000D01*
X14859000Y67877750D01*
X14859000Y69977000D01*
X15113000Y69977000D01*
X15113000Y67877750D01*
X15271750Y67719000D01*
X16736000Y67715928D01*
X16860482Y67728188D01*
X16980180Y67764498D01*
X17090494Y67823463D01*
X17187185Y67902815D01*
X17266537Y67999506D01*
X17325502Y68109820D01*
X17361812Y68229518D01*
X17374072Y68354000D01*
X17371000Y69818250D01*
X17212250Y69977000D01*
X15113000Y69977000D01*
X14859000Y69977000D01*
X12759750Y69977000D01*
X12601000Y69818250D01*
X12597928Y68354000D01*
X12610188Y68229518D01*
X12646498Y68109820D01*
X12705463Y67999506D01*
X12784815Y67902815D01*
X12881506Y67823463D01*
X12958131Y67782506D01*
X12861000Y67792072D01*
X11111000Y67792072D01*
X10815814Y67762999D01*
X10531972Y67676896D01*
X10270382Y67537073D01*
X10041097Y67348903D01*
X9852927Y67119618D01*
X9713104Y66858028D01*
X9627001Y66574186D01*
X9597928Y66279000D01*
X660000Y66279000D01*
X660000Y71104000D01*
X6847928Y71104000D01*
X6847928Y69104000D01*
X6874599Y68833201D01*
X6953589Y68572808D01*
X7081860Y68332829D01*
X7254485Y68122485D01*
X7464829Y67949860D01*
X7704808Y67821589D01*
X7965201Y67742599D01*
X8236000Y67715928D01*
X9736000Y67715928D01*
X10006799Y67742599D01*
X10267192Y67821589D01*
X10507171Y67949860D01*
X10717515Y68122485D01*
X10890140Y68332829D01*
X11018411Y68572808D01*
X11097401Y68833201D01*
X11124072Y69104000D01*
X11124072Y71104000D01*
X11097401Y71374799D01*
X11018411Y71635192D01*
X10901457Y71854000D01*
X12597928Y71854000D01*
X12601000Y70389750D01*
X12759750Y70231000D01*
X14859000Y70231000D01*
X14859000Y72330250D01*
X15113000Y72330250D01*
X15113000Y70231000D01*
X17212250Y70231000D01*
X17371000Y70389750D01*
X17374072Y71854000D01*
X17361812Y71978482D01*
X17325502Y72098180D01*
X17266537Y72208494D01*
X17187185Y72305185D01*
X17090494Y72384537D01*
X16980180Y72443502D01*
X16860482Y72479812D01*
X16736000Y72492072D01*
X15271750Y72489000D01*
X15113000Y72330250D01*
X14859000Y72330250D01*
X14700250Y72489000D01*
X13236000Y72492072D01*
X13111518Y72479812D01*
X12991820Y72443502D01*
X12881506Y72384537D01*
X12784815Y72305185D01*
X12705463Y72208494D01*
X12646498Y72098180D01*
X12610188Y71978482D01*
X12597928Y71854000D01*
X10901457Y71854000D01*
X10890140Y71875171D01*
X10717515Y72085515D01*
X10507171Y72258140D01*
X10267192Y72386411D01*
X10006799Y72465401D01*
X9736000Y72492072D01*
X8236000Y72492072D01*
X7965201Y72465401D01*
X7704808Y72386411D01*
X7464829Y72258140D01*
X7254485Y72085515D01*
X7081860Y71875171D01*
X6953589Y71635192D01*
X6874599Y71374799D01*
X6847928Y71104000D01*
X660000Y71104000D01*
X660000Y72732000D01*
X20863928Y72732000D01*
X20863928Y71032000D01*
X20876188Y70907518D01*
X20912498Y70787820D01*
X20971463Y70677506D01*
X21050815Y70580815D01*
X21147506Y70501463D01*
X21257820Y70442498D01*
X21377518Y70406188D01*
X21502000Y70393928D01*
X23202000Y70393928D01*
X23326482Y70406188D01*
X23446180Y70442498D01*
X23556494Y70501463D01*
X23653185Y70580815D01*
X23732537Y70677506D01*
X23791502Y70787820D01*
X23815966Y70868466D01*
X23891731Y70784412D01*
X24125080Y70610359D01*
X24387901Y70485175D01*
X24535110Y70440524D01*
X24765000Y70561845D01*
X24765000Y71755000D01*
X24745000Y71755000D01*
X24745000Y72009000D01*
X24765000Y72009000D01*
X24765000Y73202155D01*
X25019000Y73202155D01*
X25019000Y72009000D01*
X25039000Y72009000D01*
X25039000Y71755000D01*
X25019000Y71755000D01*
X25019000Y70561845D01*
X25248890Y70440524D01*
X25396099Y70485175D01*
X25658920Y70610359D01*
X25892269Y70784412D01*
X26087178Y71000645D01*
X26156805Y71117534D01*
X26278525Y70935368D01*
X26485368Y70728525D01*
X26728589Y70566010D01*
X26998842Y70454068D01*
X27285740Y70397000D01*
X27578260Y70397000D01*
X27865158Y70454068D01*
X28135411Y70566010D01*
X28378632Y70728525D01*
X28585475Y70935368D01*
X28702000Y71109760D01*
X28818525Y70935368D01*
X29025368Y70728525D01*
X29268589Y70566010D01*
X29538842Y70454068D01*
X29825740Y70397000D01*
X30118260Y70397000D01*
X30405158Y70454068D01*
X30675411Y70566010D01*
X30918632Y70728525D01*
X31125475Y70935368D01*
X31287990Y71178589D01*
X31399932Y71448842D01*
X31457000Y71735740D01*
X31457000Y72028260D01*
X31399932Y72315158D01*
X31287990Y72585411D01*
X31190043Y72732000D01*
X32039928Y72732000D01*
X32039928Y71032000D01*
X32052188Y70907518D01*
X32088498Y70787820D01*
X32147463Y70677506D01*
X32226815Y70580815D01*
X32323506Y70501463D01*
X32433820Y70442498D01*
X32553518Y70406188D01*
X32678000Y70393928D01*
X34378000Y70393928D01*
X34502482Y70406188D01*
X34622180Y70442498D01*
X34732494Y70501463D01*
X34829185Y70580815D01*
X34908537Y70677506D01*
X34967502Y70787820D01*
X34991966Y70868466D01*
X35067731Y70784412D01*
X35301080Y70610359D01*
X35563901Y70485175D01*
X35711110Y70440524D01*
X35941000Y70561845D01*
X35941000Y71755000D01*
X35921000Y71755000D01*
X35921000Y72009000D01*
X35941000Y72009000D01*
X35941000Y73202155D01*
X35711110Y73323476D01*
X35563901Y73278825D01*
X35301080Y73153641D01*
X35067731Y72979588D01*
X34991966Y72895534D01*
X34967502Y72976180D01*
X34908537Y73086494D01*
X34829185Y73183185D01*
X34732494Y73262537D01*
X34622180Y73321502D01*
X34502482Y73357812D01*
X34378000Y73370072D01*
X32678000Y73370072D01*
X32553518Y73357812D01*
X32433820Y73321502D01*
X32323506Y73262537D01*
X32226815Y73183185D01*
X32147463Y73086494D01*
X32088498Y72976180D01*
X32052188Y72856482D01*
X32039928Y72732000D01*
X31190043Y72732000D01*
X31125475Y72828632D01*
X30918632Y73035475D01*
X30675411Y73197990D01*
X30405158Y73309932D01*
X30118260Y73367000D01*
X29825740Y73367000D01*
X29538842Y73309932D01*
X29268589Y73197990D01*
X29025368Y73035475D01*
X28818525Y72828632D01*
X28702000Y72654240D01*
X28585475Y72828632D01*
X28378632Y73035475D01*
X28135411Y73197990D01*
X27865158Y73309932D01*
X27578260Y73367000D01*
X27285740Y73367000D01*
X26998842Y73309932D01*
X26728589Y73197990D01*
X26485368Y73035475D01*
X26278525Y72828632D01*
X26156805Y72646466D01*
X26087178Y72763355D01*
X25892269Y72979588D01*
X25658920Y73153641D01*
X25396099Y73278825D01*
X25248890Y73323476D01*
X25019000Y73202155D01*
X24765000Y73202155D01*
X24535110Y73323476D01*
X24387901Y73278825D01*
X24125080Y73153641D01*
X23891731Y72979588D01*
X23815966Y72895534D01*
X23791502Y72976180D01*
X23732537Y73086494D01*
X23653185Y73183185D01*
X23556494Y73262537D01*
X23446180Y73321502D01*
X23326482Y73357812D01*
X23202000Y73370072D01*
X21502000Y73370072D01*
X21377518Y73357812D01*
X21257820Y73321502D01*
X21147506Y73262537D01*
X21050815Y73183185D01*
X20971463Y73086494D01*
X20912498Y72976180D01*
X20876188Y72856482D01*
X20863928Y72732000D01*
X660000Y72732000D01*
X660000Y75540000D01*
X64618001Y75540000D01*
X64618000Y660000D01*
G37*
%TD.AperFunction*%
%TD*%
M02*
